SplineFontDB: 2.0
FontName: THKodchasal-BoldItalic
FullName: THKodchasal-BoldItalic
FamilyName: TH Kodchasal
Weight: Bold
Copyright: Copyright (c) 2006 by Department of Intellectual Property (DIP), Ministry of Commerce and Software Industry Promotion Agency (Public Organization) (SIPA). All rights reserved.
Version: 1.1
ItalicAngle: -12
UnderlinePosition: -35
UnderlineWidth: 30
Ascent: 800
Descent: 200
Order2: 1
XUID: [1021 375 425136265 16286807]
FSType: 0
OS2Version: 3
OS2_WeightWidthSlopeOnly: 0
OS2_UseTypoMetrics: 1
CreationTime: 1157457032
ModificationTime: 1196157831
PfmFamily: 17
TTFWeight: 700
TTFWidth: 5
LineGap: 60
VLineGap: 0
Panose: 2 0 5 6 0 0 0 2 0 4
OS2TypoAscent: 0
OS2TypoAOffset: 1
OS2TypoDescent: 0
OS2TypoDOffset: 1
OS2TypoLinegap: 0
OS2WinAscent: 18
OS2WinAOffset: 1
OS2WinDescent: 4
OS2WinDOffset: 1
HheadAscent: -111
HheadAOffset: 1
HheadDescent: 316
HheadDOffset: 1
OS2SubXSize: 700
OS2SubYSize: 650
OS2SubXOff: 0
OS2SubYOff: 140
OS2SupXSize: 700
OS2SupYSize: 650
OS2SupXOff: 0
OS2SupYOff: 477
OS2StrikeYSize: 30
OS2StrikeYPos: 250
OS2FamilyClass: 773
OS2Vendor: 'IPTH'
Lookup: 4 0 0 "'frac' Diagonal Fractions in Latin lookup 0"  {"'frac' Diagonal Fractions in Latin lookup 0 subtable"  } ['frac' ('latn' <'dflt' > ) ]
Lookup: 6 0 0 "'liga' Standard Ligatures in Latin lookup 1"  {"'liga' Standard Ligatures in Latin lookup 1 subtable"  } ['liga' ('latn' <'dflt' > ) ]
Lookup: 6 0 0 "'liga' Standard Ligatures in Latin lookup 2"  {"'liga' Standard Ligatures in Latin lookup 2 subtable"  } ['liga' ('latn' <'dflt' > ) ]
Lookup: 6 0 0 "'liga' Standard Ligatures in Latin lookup 3"  {"'liga' Standard Ligatures in Latin lookup 3 subtable"  } ['liga' ('latn' <'dflt' > ) ]
Lookup: 6 0 0 "'liga' Standard Ligatures in Latin lookup 4"  {"'liga' Standard Ligatures in Latin lookup 4 subtable"  } ['liga' ('latn' <'dflt' > ) ]

StartChar: .notdef
Encoding: 65536 -1 0
Width: 736
VWidth: 1473
Flags: W
HStem: 0 52<153 603> 972 52<349 798>
Fore
603 52 m 1,0,-1
 798 972 l 1,1,-1
 349 972 l 1,2,-1
 153 52 l 1,3,-1
 603 52 l 1,0,-1
642 0 m 1,4,-1
 93 0 l 1,5,-1
 309 1024 l 1,6,-1
 859 1024 l 1,7,-1
 642 0 l 1,4,-1
EndSplineSet
EndChar
StartChar: numbersign
Encoding: 35 35 4
Width: 698
VWidth: 1473
Flags: W
HStem: -9 21G<180.5 191 393 406> 211 75<151.926 227 331 442 542 615.105> 448 76<240.41 315 420 526 629 698.074> 700 20G<447 464 656.5 674>
Fore
715 483 m 0,0,1
 712 473 712 473 698.5 460.5 c 128,-1,2
 685 448 685 448 654 448 c 2,3,-1
 601 448 l 1,4,-1
 542 286 l 1,5,-1
 595 286 l 2,6,7
 616 286 616 286 627.5 276.5 c 128,-1,8
 639 267 639 267 632 246 c 0,9,10
 628 236 628 236 615.5 223.5 c 128,-1,11
 603 211 603 211 572 211 c 2,12,-1
 519 211 l 1,13,-1
 454 38 l 2,14,15
 442 9 442 9 426.5 0 c 128,-1,16
 411 -9 411 -9 401 -9 c 0,17,18
 385 -9 385 -9 379 3 c 0,19,20
 370 16 370 16 380 43 c 2,21,-1
 442 211 l 1,22,-1
 303 211 l 1,23,-1
 239 38 l 2,24,25
 227 7 227 7 211.5 -1 c 128,-1,26
 196 -9 196 -9 186 -9 c 256,27,28
 175 -9 175 -9 170 -5 c 128,-1,29
 165 -1 165 -1 162 1 c 0,30,31
 153 13 153 13 165 43 c 2,32,-1
 227 211 l 1,33,-1
 169 211 l 2,34,35
 149 211 149 211 137 218 c 128,-1,36
 125 225 125 225 133 249 c 0,37,38
 138 262 138 262 151.5 274 c 128,-1,39
 165 286 165 286 194 286 c 2,40,-1
 255 286 l 1,41,-1
 315 448 l 1,42,-1
 259 448 l 2,43,44
 239 448 239 448 227 457 c 128,-1,45
 215 466 215 466 222 488 c 0,46,47
 227 499 227 499 240 511.5 c 128,-1,48
 253 524 253 524 283 524 c 2,49,-1
 343 524 l 1,50,-1
 401 675 l 2,51,52
 411 704 411 704 425.5 712 c 128,-1,53
 440 720 440 720 454 720 c 0,54,55
 474 720 474 720 478 705.5 c 128,-1,56
 482 691 482 691 474 670 c 2,57,-1
 420 524 l 1,58,-1
 554 524 l 1,59,-1
 610 675 l 2,60,61
 620 704 620 704 635 712 c 128,-1,62
 650 720 650 720 663 720 c 0,63,64
 685 720 685 720 688 705.5 c 128,-1,65
 691 691 691 691 684 670 c 2,66,-1
 629 524 l 1,67,-1
 679 524 l 2,68,69
 700 524 700 524 711 514 c 128,-1,70
 722 504 722 504 715 483 c 0,0,1
392 448 m 1,71,-1
 331 286 l 1,72,-1
 467 286 l 1,73,-1
 526 448 l 1,74,-1
 392 448 l 1,71,-1
EndSplineSet
EndChar
StartChar: dollar
Encoding: 36 36 5
Width: 648
VWidth: 1473
Flags: W
HStem: -4 113<227.44 275 382 436.156> 605 112<378.188 405 511 572.266> 777 20G<477 495>
Fore
657 212 m 0,0,1
 645 161 645 161 616.5 121.5 c 128,-1,2
 588 82 588 82 547.5 55 c 128,-1,3
 507 28 507 28 458.5 13.5 c 128,-1,4
 410 -1 410 -1 358 -6 c 1,5,-1
 349 -43 l 2,6,7
 346 -59 346 -59 331.5 -71.5 c 128,-1,8
 317 -84 317 -84 299 -84 c 256,9,10
 281 -84 281 -84 272.5 -71.5 c 128,-1,11
 264 -59 264 -59 267 -43 c 2,12,-1
 275 -4 l 1,13,14
 199 4 199 4 144.5 37.5 c 128,-1,15
 90 71 90 71 69 122 c 0,16,17
 62 143 62 143 73 164.5 c 128,-1,18
 84 186 84 186 106 197 c 256,19,20
 128 209 128 209 149.5 204 c 128,-1,21
 171 199 171 199 178 178 c 0,22,23
 187 153 187 153 220 134.5 c 128,-1,24
 253 116 253 116 299 109 c 1,25,-1
 340 303 l 1,26,27
 296 308 296 308 256.5 322 c 128,-1,28
 217 336 217 336 188 360.5 c 128,-1,29
 159 385 159 385 146 419.5 c 128,-1,30
 133 454 133 454 143 501 c 0,31,32
 153 551 153 551 180.5 589.5 c 128,-1,33
 208 628 208 628 246 655 c 128,-1,34
 284 682 284 682 331.5 697.5 c 128,-1,35
 379 713 379 713 429 717 c 1,36,-1
 438 756 l 2,37,38
 440 772 440 772 454 784.5 c 128,-1,39
 468 797 468 797 486 797 c 256,40,41
 504 797 504 797 513.5 784.5 c 128,-1,42
 523 772 523 772 520 756 c 2,43,-1
 511 717 l 1,44,45
 594 712 594 712 651.5 678 c 128,-1,46
 709 644 709 644 729 591 c 0,47,48
 737 570 737 570 726.5 548 c 128,-1,49
 716 526 716 526 694 514 c 256,50,51
 672 502 672 502 650.5 508 c 128,-1,52
 629 514 629 514 622 535 c 0,53,54
 610 563 610 563 574.5 582 c 128,-1,55
 539 601 539 601 488 605 c 1,56,-1
 446 411 l 1,57,58
 495 408 495 408 538.5 396.5 c 128,-1,59
 582 385 582 385 612 360.5 c 128,-1,60
 642 336 642 336 654.5 299 c 128,-1,61
 667 262 667 262 657 212 c 0,0,1
405 605 m 1,62,63
 379 603 379 603 353 596 c 128,-1,64
 327 589 327 589 305.5 577.5 c 128,-1,65
 284 566 284 566 269.5 547.5 c 128,-1,66
 255 529 255 529 249 502 c 0,67,68
 245 477 245 477 253.5 461.5 c 128,-1,69
 262 446 262 446 279 436.5 c 128,-1,70
 296 427 296 427 319 422 c 128,-1,71
 342 417 342 417 364 414 c 1,72,-1
 405 605 l 1,62,63
545 212 m 0,73,74
 551 239 551 239 542 255 c 128,-1,75
 533 271 533 271 515.5 280 c 128,-1,76
 498 289 498 289 473.5 292.5 c 128,-1,77
 449 296 449 296 423 299 c 1,78,-1
 382 106 l 1,79,80
 410 110 410 110 437 117 c 128,-1,81
 464 124 464 124 486 135 c 128,-1,82
 508 146 508 146 523.5 164.5 c 128,-1,83
 539 183 539 183 545 212 c 0,73,74
EndSplineSet
EndChar
StartChar: percent
Encoding: 37 37 6
Width: 696
VWidth: 1473
Flags: W
HStem: 3 75<470.819 552.866> 224 75<513.65 593.481> 446 76<249.088 333.366> 667 75<292.678 374.92>
Fore
463 595 m 0,0,1
 455 564 455 564 438 537 c 128,-1,2
 421 510 421 510 397 490 c 128,-1,3
 373 470 373 470 343.5 458 c 128,-1,4
 314 446 314 446 283 446 c 0,5,6
 221 446 221 446 186.5 489.5 c 128,-1,7
 152 533 152 533 165 595 c 0,8,9
 171 626 171 626 188.5 652.5 c 128,-1,10
 206 679 206 679 231 699 c 128,-1,11
 256 719 256 719 285.5 730.5 c 128,-1,12
 315 742 315 742 346 742 c 256,13,14
 377 742 377 742 401.5 730.5 c 128,-1,15
 426 719 426 719 442 699 c 128,-1,16
 458 679 458 679 463 652.5 c 128,-1,17
 468 626 468 626 463 595 c 0,0,1
741 734 m 0,18,19
 742 722 742 722 734 710 c 2,20,-1
 131 -16 l 2,21,22
 122 -28 122 -28 109 -31 c 128,-1,23
 96 -34 96 -34 87 -27 c 0,24,25
 77 -19 77 -19 77 -6.5 c 128,-1,26
 77 6 77 6 85 16 c 0,27,28
 112 47 112 47 184 136 c 0,29,30
 215 172 215 172 259 226 c 128,-1,31
 303 280 303 280 365 354.5 c 128,-1,32
 427 429 427 429 506.5 524.5 c 128,-1,33
 586 620 586 620 688 742 c 0,34,35
 697 754 697 754 709.5 757 c 128,-1,36
 722 760 722 760 732 753 c 0,37,38
 741 745 741 745 741 734 c 0,18,19
682 150 m 0,39,40
 675 119 675 119 658 92.5 c 128,-1,41
 641 66 641 66 616.5 46.5 c 128,-1,42
 592 27 592 27 562.5 15 c 128,-1,43
 533 3 533 3 502 3 c 0,44,45
 440 3 440 3 406.5 45.5 c 128,-1,46
 373 88 373 88 386 150 c 0,47,48
 392 181 392 181 409.5 208.5 c 128,-1,49
 427 236 427 236 451.5 255.5 c 128,-1,50
 476 275 476 275 505.5 287 c 128,-1,51
 535 299 535 299 566 299 c 0,52,53
 628 299 628 299 661.5 255.5 c 128,-1,54
 695 212 695 212 682 150 c 0,39,40
385 595 m 0,55,56
 392 625 392 625 375 646 c 128,-1,57
 358 667 358 667 329 667 c 0,58,59
 298 667 298 667 272 646 c 128,-1,60
 246 625 246 625 239 595 c 0,61,62
 231 564 231 564 249 543 c 128,-1,63
 267 522 267 522 298 522 c 0,64,65
 327 522 327 522 352 543 c 128,-1,66
 377 564 377 564 385 595 c 0,55,56
604 150 m 0,67,68
 611 181 611 181 594 202.5 c 128,-1,69
 577 224 577 224 548 224 c 256,70,71
 519 224 519 224 493 202.5 c 128,-1,72
 467 181 467 181 460 150 c 0,73,74
 452 121 452 121 470 99.5 c 128,-1,75
 488 78 488 78 517 78 c 256,76,77
 547 78 547 78 572 99.5 c 128,-1,78
 597 121 597 121 604 150 c 0,67,68
EndSplineSet
EndChar
StartChar: ampersand
Encoding: 38 38 7
Width: 799
VWidth: 1473
Flags: W
HStem: -6 108<265.854 386.986> 656 89<426.855 559.315>
Fore
756 81 m 1,0,1
 763 63 763 63 755.5 44 c 128,-1,2
 748 25 748 25 729 13 c 0,3,4
 712 1 712 1 690.5 -1 c 128,-1,5
 669 -3 669 -3 653 10 c 0,6,7
 651 12 651 12 641 24.5 c 128,-1,8
 631 37 631 37 619 52.5 c 128,-1,9
 607 68 607 68 596.5 80.5 c 128,-1,10
 586 93 586 93 585 94 c 1,11,12
 558 77 558 77 527 57.5 c 128,-1,13
 496 38 496 38 466 25 c 0,14,15
 432 12 432 12 391.5 3 c 128,-1,16
 351 -6 351 -6 309.5 -6 c 128,-1,17
 268 -6 268 -6 229 6.5 c 128,-1,18
 190 19 190 19 159 50 c 0,19,20
 112 96 112 96 106 152.5 c 128,-1,21
 100 209 100 209 123 264.5 c 128,-1,22
 146 320 146 320 193 367 c 128,-1,23
 240 414 240 414 302 442 c 1,24,25
 284 470 284 470 271 501.5 c 128,-1,26
 258 533 258 533 265 572 c 0,27,28
 273 605 273 605 294 637 c 128,-1,29
 315 669 315 669 347.5 693 c 128,-1,30
 380 717 380 717 423.5 731 c 128,-1,31
 467 745 467 745 519 745 c 0,32,33
 591 744 591 744 630 716 c 128,-1,34
 669 688 669 688 681 656 c 0,35,36
 694 608 694 608 678 563 c 0,37,38
 664 524 664 524 620.5 481.5 c 128,-1,39
 577 439 577 439 482 410 c 1,40,-1
 603 271 l 1,41,42
 617 292 617 292 630.5 317 c 128,-1,43
 644 342 644 342 661 385 c 0,44,45
 676 421 676 421 705.5 426.5 c 128,-1,46
 735 432 735 432 750 418 c 0,47,48
 773 392 773 392 759 352 c 0,49,50
 753 334 753 334 741 310.5 c 128,-1,51
 729 287 729 287 716.5 263 c 128,-1,52
 704 239 704 239 691.5 219 c 128,-1,53
 679 199 679 199 670 190 c 1,54,55
 697 155 697 155 714 133.5 c 128,-1,56
 731 112 731 112 740 100 c 0,57,58
 750 85 750 85 756 81 c 1,0,1
573 585 m 0,59,60
 580 610 580 610 561 633 c 128,-1,61
 542 656 542 656 499 656 c 0,62,63
 455 656 455 656 428 636.5 c 128,-1,64
 401 617 401 617 393 601 c 0,65,66
 380 569 380 569 393.5 535.5 c 128,-1,67
 407 502 407 502 443 479 c 1,68,69
 446 476 446 476 464.5 483.5 c 128,-1,70
 483 491 483 491 505 505.5 c 128,-1,71
 527 520 527 520 547 540 c 128,-1,72
 567 560 567 560 573 585 c 0,59,60
359 367 m 1,73,74
 305 345 305 345 275 311.5 c 128,-1,75
 245 278 245 278 233.5 243.5 c 128,-1,76
 222 209 222 209 229 179.5 c 128,-1,77
 236 150 236 150 253 134 c 0,78,79
 289 102 289 102 332.5 102 c 128,-1,80
 376 102 376 102 415.5 116 c 128,-1,81
 455 130 455 130 484.5 151 c 128,-1,82
 514 172 514 172 523 184 c 1,83,-1
 359 367 l 1,73,74
EndSplineSet
EndChar
StartChar: quotesingle
Encoding: 39 39 8
Width: 263
VWidth: 1473
Flags: W
HStem: 436 283<237.504 262.86 224 284 284 284>
VStem: 183 141<501 653 441 501>
Fore
292 501 m 1,0,1
 284 464 284 464 263.5 450 c 128,-1,2
 243 436 243 436 224 436 c 0,3,4
 194 436 194 436 184.5 454.5 c 128,-1,5
 175 473 175 473 183 501 c 2,6,-1
 215 653 l 2,7,8
 221 681 221 681 237 700 c 128,-1,9
 253 719 253 719 284 719 c 0,10,11
 311 719 311 719 320.5 699 c 128,-1,12
 330 679 330 679 324 653 c 2,13,-1
 292 501 l 1,0,1
EndSplineSet
EndChar
StartChar: parenleft
Encoding: 40 40 9
Width: 441
VWidth: 1473
Flags: W
VStem: 174 118<-151.992 -146 -146 -129.704 -129.704 -110.431 -110.431 -69.1268 -69.1268 -54.1268 -61.6268 68.5732>
Fore
292 -125 m 0,0,1
 292 -128 292 -128 292 -137.5 c 128,-1,2
 292 -147 292 -147 286.5 -157.5 c 128,-1,3
 281 -168 281 -168 268.5 -177.5 c 128,-1,4
 256 -187 256 -187 233 -192 c 0,5,6
 222 -194 222 -194 212.5 -189 c 128,-1,7
 203 -184 203 -184 196.5 -176.5 c 128,-1,8
 190 -169 190 -169 185.5 -160.5 c 128,-1,9
 181 -152 181 -152 181 -146 c 0,10,11
 181 -144 181 -144 177.5 -112.5 c 128,-1,12
 174 -81 174 -81 174 -25 c 128,-1,13
 174 31 174 31 181.5 110.5 c 128,-1,14
 189 190 189 190 209 289 c 256,15,16
 230 387 230 387 256.5 467.5 c 128,-1,17
 283 548 283 548 307 604 c 128,-1,18
 331 660 331 660 348 691 c 128,-1,19
 365 722 365 722 367 725 c 0,20,21
 370 731 370 731 376.5 739 c 128,-1,22
 383 747 383 747 392.5 755 c 128,-1,23
 402 763 402 763 414 767.5 c 128,-1,24
 426 772 426 772 438 770 c 0,25,26
 455 768 455 768 463 759 c 128,-1,27
 471 750 471 750 473.5 739.5 c 128,-1,28
 476 729 476 729 473.5 719.5 c 128,-1,29
 471 710 471 710 468 704 c 2,30,31
 452 674.5 l 2,32,33
 436 645 436 645 414 590.5 c 128,-1,34
 392 536 392 536 366 459.5 c 128,-1,35
 340 383 340 383 320 289 c 256,36,37
 299 194 299 194 292.5 117.5 c 128,-1,38
 286 41 286 41 286 -12.5 c 128,-1,39
 286 -66 286 -66 289 -95 c 128,-1,40
 292 -124 292 -124 292 -125 c 0,0,1
EndSplineSet
EndChar
StartChar: parenright
Encoding: 41 41 10
Width: 441
VWidth: 1473
Flags: W
VStem: 278 111.5<524.43 632.642 632.642 647.885 647.885 689.431 689.431 691 704 719.204>
Fore
354 289 m 256,0,1
 333 190 333 190 306.5 110.5 c 128,-1,2
 280 31 280 31 256.5 -25 c 128,-1,3
 233 -81 233 -81 216 -112.5 c 128,-1,4
 199 -144 199 -144 197 -146 c 2,5,6
 194 -152 194 -152 186 -160.5 c 128,-1,7
 178 -169 178 -169 168.5 -176.5 c 128,-1,8
 159 -184 159 -184 148 -189 c 128,-1,9
 137 -194 137 -194 127 -192 c 0,10,11
 105 -187 105 -187 96.5 -177.5 c 128,-1,12
 88 -168 88 -168 87.5 -157.5 c 128,-1,13
 87 -147 87 -147 90.5 -137.5 c 128,-1,14
 94 -128 94 -128 96 -125 c 2,15,16
 112 -95.5 l 2,17,18
 128 -66 128 -66 151 -12.5 c 128,-1,19
 174 41 174 41 199 117.5 c 128,-1,20
 224 194 224 194 245 289 c 256,21,22
 265 383 265 383 271.5 459.5 c 128,-1,23
 278 536 278 536 278 590.5 c 128,-1,24
 278 645 278 645 275.5 674 c 128,-1,25
 273 703 273 703 273 704 c 0,26,27
 271 710 271 710 272.5 719.5 c 128,-1,28
 274 729 274 729 280.5 739.5 c 128,-1,29
 287 750 287 750 299 759 c 128,-1,30
 311 768 311 768 331 770 c 0,31,32
 345 772 345 772 354.5 767.5 c 128,-1,33
 364 763 364 763 370 755 c 128,-1,34
 376 747 376 747 379 739 c 128,-1,35
 382 731 382 731 383 725 c 1,36,37
 383 722 383 722 386.5 691 c 128,-1,38
 390 660 390 660 389.5 604 c 128,-1,39
 389 548 389 548 381.5 467.5 c 128,-1,40
 374 387 374 387 354 289 c 256,0,1
EndSplineSet
EndChar
StartChar: asterisk
Encoding: 42 42 11
Width: 674
VWidth: 1473
Flags: W
HStem: 326 409<408 496 805.069 854.484>
VStem: 259 385.5<412 614 721.069 770.484>
Fore
608 443 m 1,0,1
 608 426 608 426 594 412 c 0,2,3
 564 386 564 386 535 401 c 1,4,5
 519 415 519 415 502.5 431.5 c 128,-1,6
 486 448 486 448 471 466 c 1,7,8
 468 440 468 440 466 414.5 c 128,-1,9
 464 389 464 389 458 365 c 0,10,11
 455 349 455 349 439.5 337.5 c 128,-1,12
 424 326 424 326 408 326 c 256,13,14
 392 326 392 326 381.5 337.5 c 128,-1,15
 371 349 371 349 374 365 c 0,16,17
 380 390 380 390 388 415 c 128,-1,18
 396 440 396 440 405 466 c 1,19,20
 380 449 380 449 358 433 c 128,-1,21
 336 417 336 417 312 401 c 0,22,23
 299 392 299 392 282 395.5 c 128,-1,24
 265 399 265 399 259 412 c 0,25,26
 252 430 252 430 259.5 446.5 c 128,-1,27
 267 463 267 463 278 470 c 0,28,29
 309 486 309 486 335.5 500 c 128,-1,30
 362 514 362 514 396 530 c 1,31,32
 368 547 368 547 349 561 c 128,-1,33
 330 575 330 575 305 591 c 0,34,35
 293 600 293 600 294.5 616.5 c 128,-1,36
 296 633 296 633 309 648 c 0,37,38
 321 661 321 661 339 665 c 128,-1,39
 357 669 357 669 368 660 c 1,40,41
 385 644 385 644 400 627.5 c 128,-1,42
 415 611 415 611 432 595 c 1,43,44
 435 620 435 620 437 646 c 128,-1,45
 439 672 439 672 445 695 c 0,46,47
 448 715 448 715 463.5 725 c 128,-1,48
 479 735 479 735 496 735 c 128,-1,49
 513 735 513 735 523 725.5 c 128,-1,50
 533 716 533 716 529 695 c 0,51,52
 523 670 523 670 514 644.5 c 128,-1,53
 505 619 505 619 498 594 c 1,54,55
 522 613 522 613 544.5 628.5 c 128,-1,56
 567 644 567 644 591 660 c 1,57,58
 628 676 628 676 644 648 c 0,59,60
 654 631 654 631 644.5 614 c 128,-1,61
 635 597 635 597 625 591 c 0,62,63
 595 570 595 570 568 560 c 128,-1,64
 541 550 541 550 507 530 c 1,65,66
 532 511 532 511 554.5 501 c 128,-1,67
 577 491 577 491 598 470 c 0,68,69
 611 460 611 460 608 443 c 1,0,1
EndSplineSet
EndChar
StartChar: plus
Encoding: 43 43 12
Width: 720
VWidth: 1473
Flags: W
HStem: 200 109<166.173 343 477 662.402>
Fore
685 256 m 0,0,1
 682 236 682 236 663 218 c 128,-1,2
 644 200 644 200 607 200 c 2,3,-1
 454 200 l 1,4,-1
 429 78 l 2,5,6
 421 41 421 41 400.5 26.5 c 128,-1,7
 380 12 380 12 359 12 c 0,8,9
 330 12 330 12 320.5 31 c 128,-1,10
 311 50 311 50 318 78 c 2,11,-1
 343 200 l 1,12,-1
 192 200 l 2,13,14
 164 200 164 200 147.5 213.5 c 128,-1,15
 131 227 131 227 137 256 c 0,16,17
 144 284 144 284 165.5 296.5 c 128,-1,18
 187 309 187 309 215 309 c 2,19,-1
 367 309 l 1,20,-1
 393 436 l 2,21,22
 401 464 401 464 418 482.5 c 128,-1,23
 435 501 435 501 464 501 c 0,24,25
 491 501 491 501 501 482 c 128,-1,26
 511 463 511 463 504 436 c 2,27,-1
 477 309 l 1,28,-1
 631 309 l 2,29,30
 659 309 659 309 675.5 296.5 c 128,-1,31
 692 284 692 284 685 256 c 0,0,1
EndSplineSet
EndChar
StartChar: comma
Encoding: 44 44 13
Width: 346
VWidth: 1473
Flags: W
HStem: -150.5 317.5<63 210 210 210>
VStem: 94 186<30.6743 122.17>
Fore
94 80 m 1,0,1
 99 103 99 103 118 125 c 128,-1,2
 137 147 137 147 162 159 c 0,3,4
 189 169 189 169 210 167 c 128,-1,5
 231 165 231 165 246.5 154 c 128,-1,6
 262 143 262 143 271 125.5 c 128,-1,7
 280 108 280 108 280 85 c 0,8,9
 280 44 280 44 263 6.5 c 128,-1,10
 246 -31 246 -31 219.5 -62 c 128,-1,11
 193 -93 193 -93 160.5 -115 c 128,-1,12
 128 -137 128 -137 99 -147 c 0,13,14
 77 -155 77 -155 63 -150.5 c 128,-1,15
 49 -146 49 -146 43.5 -136.5 c 128,-1,16
 38 -127 38 -127 42.5 -115 c 128,-1,17
 47 -103 47 -103 63 -96 c 0,18,19
 97 -82 97 -82 125 -64.5 c 128,-1,20
 153 -47 153 -47 177 -9 c 1,21,22
 174 -9 174 -9 169.5 -9.5 c 128,-1,23
 165 -10 165 -10 162 -10 c 0,24,25
 124 -10 124 -10 105.5 15.5 c 128,-1,26
 87 41 87 41 94 77 c 1,27,-1
 94 80 l 1,0,1
EndSplineSet
EndChar
StartChar: hyphen
Encoding: 45 45 14
Width: 604
VWidth: 1473
Flags: W
HStem: 200 109<165.173 550.433>
VStem: 136 437<218.563 291.745 256 256 256 256>
Fore
573 256 m 0,0,1
 569 236 569 236 551 218 c 128,-1,2
 533 200 533 200 496 200 c 2,3,-1
 189 200 l 2,4,5
 161 200 161 200 145.5 213.5 c 128,-1,6
 130 227 130 227 136 256 c 0,7,8
 143 284 143 284 164.5 296.5 c 128,-1,9
 186 309 186 309 212 309 c 2,10,-1
 520 309 l 2,11,12
 547 309 547 309 563.5 296.5 c 128,-1,13
 580 284 580 284 573 256 c 0,0,1
EndSplineSet
EndChar
StartChar: period
Encoding: 46 46 15
Width: 335
VWidth: 1473
Flags: W
HStem: -15 180<138.874 227.537>
VStem: 93 180<46.3487 139.732>
Fore
93 75 m 0,0,1
 102 113 102 113 133 139 c 128,-1,2
 164 165 164 165 202 165 c 256,3,4
 240 165 240 165 260.5 139 c 128,-1,5
 281 113 281 113 273 75 c 128,-1,6
 265 37 265 37 233.5 11 c 128,-1,7
 202 -15 202 -15 164 -15 c 256,8,9
 125 -15 125 -15 105 11 c 128,-1,10
 85 37 85 37 93 75 c 0,0,1
EndSplineSet
EndChar
StartChar: slash
Encoding: 47 47 16
Width: 550
VWidth: 1473
Flags: W
Fore
628 688 m 0,0,1
 632 670 632 670 619 648 c 2,2,-1
 141 -68 l 2,3,4
 130 -88 130 -88 107 -95.5 c 128,-1,5
 84 -103 84 -103 66 -94 c 0,6,7
 50 -85 50 -85 46.5 -64.5 c 128,-1,8
 43 -44 43 -44 55 -25 c 0,9,10
 74 4 74 4 133 91 c 0,11,12
 158 128 158 128 193 181 c 128,-1,13
 228 234 228 234 277 307 c 128,-1,14
 326 380 326 380 389 475 c 128,-1,15
 452 570 452 570 532 691 c 0,16,17
 545 712 545 712 567 719 c 128,-1,18
 589 726 589 726 607 717 c 256,19,20
 625 709 625 709 628 688 c 0,0,1
EndSplineSet
EndChar
StartChar: zero
Encoding: 48 48 17
Width: 708
VWidth: 1473
Flags: W
HStem: -15 108<286.928 467.756> 617 108<427.219 573.318>
Fore
726 355 m 0,0,1
 706 258 706 258 667 188 c 128,-1,2
 628 118 628 118 577.5 73 c 128,-1,3
 527 28 527 28 469 6.5 c 128,-1,4
 411 -15 411 -15 351 -15 c 0,5,6
 284 -15 284 -15 235 7 c 128,-1,7
 186 29 186 29 156.5 75 c 128,-1,8
 127 121 127 121 120 191 c 128,-1,9
 113 261 113 261 134 355 c 0,10,11
 161 480 161 480 210 553 c 128,-1,12
 259 626 259 626 314.5 664.5 c 128,-1,13
 370 703 370 703 423 714 c 128,-1,14
 476 725 476 725 508 725 c 0,15,16
 579 725 579 725 628.5 698.5 c 128,-1,17
 678 672 678 672 706 623.5 c 128,-1,18
 734 575 734 575 739 507 c 128,-1,19
 744 439 744 439 726 355 c 0,0,1
620 355 m 0,20,21
 675 617 675 617 486 617 c 0,22,23
 387 617 387 617 326 545 c 128,-1,24
 265 473 265 473 240 355 c 0,25,26
 211 221 211 221 247 157 c 128,-1,27
 283 93 283 93 374 93 c 256,28,29
 466 93 466 93 529 158.5 c 128,-1,30
 592 224 592 224 620 355 c 0,20,21
EndSplineSet
EndChar
StartChar: one
Encoding: 49 49 18
Width: 520
VWidth: 1473
Flags: W
HStem: -4 21G<304 326> 577 20G<332.791 385.759>
VStem: 205 308<585 597 654 673 585 673 585 585>
Fore
380 50 m 1,0,1
 374 28 374 28 355.5 12 c 128,-1,2
 337 -4 337 -4 315 -4 c 256,3,4
 293 -4 293 -4 280.5 12 c 128,-1,5
 268 28 268 28 274 50 c 2,6,-1
 390 597 l 1,7,-1
 267 554 l 2,8,9
 245 547 245 547 226.5 555.5 c 128,-1,10
 208 564 208 564 205 585 c 256,11,12
 202 605 202 605 215 626 c 128,-1,13
 228 647 228 647 250 654 c 0,14,15
 326 679 326 679 367 694 c 128,-1,16
 408 709 408 709 427 716 c 0,17,18
 449 723 449 723 454 725 c 0,19,20
 474 731 474 731 486.5 727 c 128,-1,21
 499 723 499 723 505 714.5 c 128,-1,22
 511 706 511 706 512.5 695 c 128,-1,23
 514 684 514 684 513 673 c 2,24,-1
 380 50 l 1,0,1
EndSplineSet
EndChar
StartChar: two
Encoding: 50 50 19
Width: 679
VWidth: 1473
Flags: W
HStem: 0 106<275 605.921> 628 101<394.119 561.315>
VStem: 171 104<463.857 533.981>
Fore
629 53 m 256,0,1
 625 31 625 31 606.5 15.5 c 128,-1,2
 588 0 588 0 566 0 c 2,3,-1
 118 0 l 2,4,5
 115 0 115 0 107.5 0.5 c 128,-1,6
 100 1 100 1 92 4 c 128,-1,7
 84 7 84 7 76.5 14.5 c 128,-1,8
 69 22 69 22 68 35 c 0,9,10
 63 53 63 53 75.5 73.5 c 128,-1,11
 88 94 88 94 97 102 c 2,12,-1
 530 396 l 2,13,14
 576 429 576 429 593.5 469.5 c 128,-1,15
 611 510 611 510 603 545 c 128,-1,16
 595 580 595 580 565 604 c 128,-1,17
 535 628 535 628 485 628 c 256,18,19
 435 628 435 628 399.5 612.5 c 128,-1,20
 364 597 364 597 339.5 574 c 128,-1,21
 315 551 315 551 299.5 523.5 c 128,-1,22
 284 496 284 496 275 474 c 0,23,24
 268 452 268 452 249 437.5 c 128,-1,25
 230 423 230 423 209 424 c 0,26,27
 187 426 187 426 176 443 c 128,-1,28
 165 460 165 460 171 482 c 0,29,30
 202 592 202 592 289.5 660.5 c 128,-1,31
 377 729 377 729 507 729 c 0,32,33
 594 729 594 729 647.5 685.5 c 128,-1,34
 701 642 701 642 714.5 579 c 128,-1,35
 728 516 728 516 697 444.5 c 128,-1,36
 666 373 666 373 583 317 c 2,37,-1
 275 106 l 1,38,-1
 588 106 l 2,39,40
 610 106 610 106 621.5 90.5 c 128,-1,41
 633 75 633 75 629 53 c 256,0,1
EndSplineSet
EndChar
StartChar: three
Encoding: 51 51 20
Width: 658
VWidth: 1473
Flags: W
HStem: -13 93<275.331 393.714> 320 107<347.563 365 365 489.564> 632 102<377.269 537.222>
VStem: 96 107<181.778 261.664> 166 107<496.967 561.47> 573 111<516.857 599.53>
Fore
635 206 m 0,0,1
 623 152 623 152 591.5 110.5 c 128,-1,2
 560 69 560 69 515.5 42 c 128,-1,3
 471 15 471 15 419 1 c 128,-1,4
 367 -13 367 -13 314 -13 c 0,5,6
 265 -13 265 -13 219.5 0 c 128,-1,7
 174 13 174 13 141.5 41 c 128,-1,8
 109 69 109 69 95.5 114 c 128,-1,9
 82 159 82 159 96 222 c 0,10,11
 100 245 100 245 119 260 c 128,-1,12
 138 275 138 275 161 275 c 256,13,14
 183 275 183 275 195.5 260 c 128,-1,15
 208 245 208 245 203 222 c 0,16,17
 194 178 194 178 207 151 c 128,-1,18
 220 124 220 124 242 107.5 c 128,-1,19
 264 91 264 91 289.5 85.5 c 128,-1,20
 315 80 315 80 331 80 c 0,21,22
 361 80 361 80 392.5 88.5 c 128,-1,23
 424 97 424 97 453 114 c 128,-1,24
 482 131 482 131 502.5 157 c 128,-1,25
 523 183 523 183 530 217 c 256,26,27
 538 250 538 250 532 271 c 128,-1,28
 526 292 526 292 515 303 c 128,-1,29
 504 314 504 314 490 317 c 128,-1,30
 476 320 476 320 467 320 c 2,31,-1
 365 320 l 2,32,33
 343 320 343 320 330.5 335.5 c 128,-1,34
 318 351 318 351 323 373 c 0,35,36
 329 395 329 395 347 411 c 128,-1,37
 365 427 365 427 387 427 c 2,38,-1
 485 427 l 2,39,40
 496 427 496 427 511.5 435 c 128,-1,41
 527 443 527 443 540.5 458.5 c 128,-1,42
 554 474 554 474 563.5 496.5 c 128,-1,43
 573 519 573 519 573 545 c 0,44,45
 575 586 575 586 539.5 609 c 128,-1,46
 504 632 504 632 452 632 c 0,47,48
 407 632 407 632 374.5 621 c 128,-1,49
 342 610 342 610 320 594.5 c 128,-1,50
 298 579 298 579 286.5 562 c 128,-1,51
 275 545 275 545 273 533 c 0,52,53
 268 511 268 511 249.5 495.5 c 128,-1,54
 231 480 231 480 209 480 c 256,55,56
 187 480 187 480 174.5 495.5 c 128,-1,57
 162 511 162 511 166 533 c 0,58,59
 172 563 172 563 195 597.5 c 128,-1,60
 218 632 218 632 255.5 662 c 128,-1,61
 293 692 293 692 347.5 713 c 128,-1,62
 402 734 402 734 473 734 c 0,63,64
 526 734 526 734 566.5 720.5 c 128,-1,65
 607 707 607 707 633.5 683.5 c 128,-1,66
 660 660 660 660 673.5 630 c 128,-1,67
 687 600 687 600 684 564 c 0,68,69
 678 498 678 498 647.5 448.5 c 128,-1,70
 617 399 617 399 570 374 c 1,71,72
 614 362 614 362 632 318.5 c 128,-1,73
 650 275 650 275 635 206 c 0,0,1
EndSplineSet
EndChar
StartChar: four
Encoding: 52 52 21
Width: 720
VWidth: 1473
Flags: W
HStem: -6 21G<506 528> 127 106<243 492 620 678.921>
Fore
703 180 m 0,0,1
 698 158 698 158 679.5 142.5 c 128,-1,2
 661 127 661 127 639 127 c 2,3,-1
 598 127 l 1,4,-1
 580 47 l 2,5,6
 576 25 576 25 557.5 9.5 c 128,-1,7
 539 -6 539 -6 517 -6 c 256,8,9
 495 -6 495 -6 482.5 9.5 c 128,-1,10
 470 25 470 25 474 47 c 2,11,-1
 492 127 l 1,12,-1
 116 127 l 2,13,14
 99 127 99 127 88.5 135.5 c 128,-1,15
 78 144 78 144 75 157.5 c 128,-1,16
 72 171 72 171 76.5 186.5 c 128,-1,17
 81 202 81 202 94 214 c 2,18,-1
 616 704 l 2,19,20
 635 722 635 722 654 725.5 c 128,-1,21
 673 729 673 729 687 723 c 128,-1,22
 701 717 701 717 709 703 c 128,-1,23
 717 689 717 689 713 672 c 2,24,-1
 620 233 l 1,25,-1
 661 233 l 2,26,27
 684 233 684 233 696.5 217.5 c 128,-1,28
 709 202 709 202 703 180 c 0,0,1
582 554 m 1,29,-1
 243 233 l 1,30,-1
 514 233 l 1,31,-1
 582 554 l 1,29,-1
EndSplineSet
EndChar
StartChar: five
Encoding: 53 53 22
Width: 692
VWidth: 1473
Flags: W
HStem: 613 106<362 721.921>
VStem: 105 109<130.25 229.921> 577 111<265.677 355.873>
Fore
653 165 m 0,0,1
 619 96 619 96 558.5 50 c 128,-1,2
 498 4 498 4 423 -12 c 0,3,4
 362 -25 362 -25 304.5 -19 c 128,-1,5
 247 -13 247 -13 202.5 12 c 128,-1,6
 158 37 158 37 131.5 81 c 128,-1,7
 105 125 105 125 105 190 c 0,8,9
 105 212 105 212 121 230.5 c 128,-1,10
 137 249 137 249 159 253 c 0,11,12
 183 258 183 258 198.5 245.5 c 128,-1,13
 214 233 214 233 214 211 c 0,14,15
 214 138 214 138 258 108 c 128,-1,16
 302 78 302 78 395 85 c 0,17,18
 448 90 448 90 493.5 127 c 128,-1,19
 539 164 539 164 562 211.5 c 128,-1,20
 585 259 585 259 577 308.5 c 128,-1,21
 569 358 569 358 516 389 c 0,22,23
 491 404 491 404 454 407 c 128,-1,24
 417 410 417 410 380 403 c 128,-1,25
 343 396 343 396 310 380.5 c 128,-1,26
 277 365 277 365 258 346 c 0,27,28
 245 333 245 333 227 328.5 c 128,-1,29
 209 324 209 324 194.5 329 c 128,-1,30
 180 334 180 334 171 346.5 c 128,-1,31
 162 359 162 359 169 380 c 2,32,-1
 292 719 l 1,33,-1
 704 719 l 2,34,35
 726 719 726 719 738.5 703.5 c 128,-1,36
 751 688 751 688 747 666 c 0,37,38
 741 644 741 644 722.5 628.5 c 128,-1,39
 704 613 704 613 682 613 c 2,40,-1
 362 613 l 1,41,-1
 314 480 l 1,42,43
 358 496 358 496 407.5 503 c 128,-1,44
 457 510 457 510 502.5 504.5 c 128,-1,45
 548 499 548 499 588 481.5 c 128,-1,46
 628 464 628 464 653 432 c 0,47,48
 670 408 670 408 679 376.5 c 128,-1,49
 688 345 688 345 688 309.5 c 128,-1,50
 688 274 688 274 679 237 c 128,-1,51
 670 200 670 200 653 165 c 0,0,1
EndSplineSet
EndChar
StartChar: six
Encoding: 54 54 23
Width: 696
VWidth: 1473
Flags: W
HStem: -16 104<342.427 412.828> 402 100<384.75 502.733> 633 107<411.333 597.567>
Fore
689 249 m 0,0,1
 676 193 676 193 646 143.5 c 128,-1,2
 616 94 616 94 571.5 59 c 128,-1,3
 527 24 527 24 470.5 3 c 128,-1,4
 414 -18 414 -18 351 -16 c 0,5,6
 273 -15 273 -15 222 14 c 128,-1,7
 171 43 171 43 146 93.5 c 128,-1,8
 121 144 121 144 118.5 212.5 c 128,-1,9
 116 281 116 281 136 361 c 0,10,11
 155 448 155 448 192.5 518 c 128,-1,12
 230 588 230 588 282 637.5 c 128,-1,13
 334 687 334 687 399 713.5 c 128,-1,14
 464 740 464 740 538 740 c 0,15,16
 582 740 582 740 619 728 c 128,-1,17
 656 716 656 716 683 696 c 128,-1,18
 710 676 710 676 727 650.5 c 128,-1,19
 744 625 744 625 748 597 c 0,20,21
 751 575 751 575 740 554 c 128,-1,22
 729 533 729 533 704 526 c 0,23,24
 681 519 681 519 662.5 528.5 c 128,-1,25
 644 538 644 538 641 560 c 0,26,27
 638 585 638 585 601 609 c 128,-1,28
 564 633 564 633 513 633 c 0,29,30
 414 633 414 633 353.5 576 c 128,-1,31
 293 519 293 519 261 420 c 1,32,33
 306 457 306 457 360 479.5 c 128,-1,34
 414 502 414 502 466 502 c 0,35,36
 526 502 526 502 574 484.5 c 128,-1,37
 622 467 622 467 652 434 c 128,-1,38
 682 401 682 401 692.5 354.5 c 128,-1,39
 703 308 703 308 689 249 c 0,0,1
583 245 m 0,40,41
 591 278 591 278 583 307 c 128,-1,42
 575 336 575 336 555 357.5 c 128,-1,43
 535 379 535 379 506 390.5 c 128,-1,44
 477 402 477 402 445 402 c 0,45,46
 411 402 411 402 377 390.5 c 128,-1,47
 343 379 343 379 315 357.5 c 128,-1,48
 287 336 287 336 266.5 307 c 128,-1,49
 246 278 246 278 239 245 c 256,50,51
 231 211 231 211 239 182 c 128,-1,52
 247 153 247 153 266.5 132.5 c 128,-1,53
 286 112 286 112 314.5 100 c 128,-1,54
 343 88 343 88 377 88 c 0,55,56
 412 88 412 88 446 100.5 c 128,-1,57
 480 113 480 113 508 134 c 128,-1,58
 536 155 536 155 556 183.5 c 128,-1,59
 576 212 576 212 583 245 c 0,40,41
EndSplineSet
EndChar
StartChar: seven
Encoding: 55 55 24
Width: 651
VWidth: 1473
Flags: W
HStem: 610 106<209.594 227 227 603>
Fore
250 3 m 2,0,1
 234 -16 234 -16 212 -22 c 128,-1,2
 190 -28 190 -28 172 -16 c 0,3,4
 156 -4 156 -4 154.5 16.5 c 128,-1,5
 153 37 153 37 169 56 c 2,6,-1
 603 610 l 1,7,-1
 227 610 l 2,8,9
 205 610 205 610 193 625.5 c 128,-1,10
 181 641 181 641 186 663 c 256,11,12
 190 685 190 685 209 700.5 c 128,-1,13
 228 716 228 716 250 716 c 2,14,-1
 745 716 l 1,15,-1
 720 603 l 1,16,-1
 250 3 l 2,0,1
EndSplineSet
EndChar
StartChar: eight
Encoding: 56 56 25
Width: 665
VWidth: 1473
Flags: W
HStem: -25 103<277.433 411.345> 354 88<391.655 445.557> 639 101<416.889 549.75>
Fore
663 214 m 256,0,1
 651 158 651 158 617 113.5 c 128,-1,2
 583 69 583 69 537 38 c 128,-1,3
 491 7 491 7 436.5 -9 c 128,-1,4
 382 -25 382 -25 329 -25 c 256,5,6
 275 -25 275 -25 228 -9 c 128,-1,7
 181 7 181 7 148 38 c 128,-1,8
 115 69 115 69 99.5 113.5 c 128,-1,9
 84 158 84 158 96 214 c 0,10,11
 109 273 109 273 148 321.5 c 128,-1,12
 187 370 187 370 246 404 c 1,13,14
 221 429 221 429 211.5 465 c 128,-1,15
 202 501 202 501 209 539 c 0,16,17
 218 580 218 580 244.5 617 c 128,-1,18
 271 654 271 654 310 681.5 c 128,-1,19
 349 709 349 709 395.5 724.5 c 128,-1,20
 442 740 442 740 491 740 c 0,21,22
 535 740 535 740 574.5 726 c 128,-1,23
 614 712 614 712 643 686 c 128,-1,24
 672 660 672 660 685 622.5 c 128,-1,25
 698 585 698 585 688 539 c 0,26,27
 681 501 681 501 656.5 465 c 128,-1,28
 632 429 632 429 595 404 c 1,29,30
 638 374 638 374 656.5 322 c 128,-1,31
 675 270 675 270 663 214 c 256,0,1
579 539 m 0,32,33
 589 589 589 589 554.5 614 c 128,-1,34
 520 639 520 639 470 639 c 0,35,36
 448 639 448 639 423 632.5 c 128,-1,37
 398 626 398 626 376.5 613.5 c 128,-1,38
 355 601 355 601 339 582 c 128,-1,39
 323 563 323 563 317 539 c 0,40,41
 309 508 309 508 320 489 c 128,-1,42
 331 470 331 470 350.5 459.5 c 128,-1,43
 370 449 370 449 391 445.5 c 128,-1,44
 412 442 412 442 427 442 c 0,45,46
 445 442 445 442 468.5 446.5 c 128,-1,47
 492 451 492 451 514 462 c 128,-1,48
 536 473 536 473 554.5 491.5 c 128,-1,49
 573 510 573 510 579 539 c 0,32,33
558 214 m 0,50,51
 567 253 567 253 554 280.5 c 128,-1,52
 541 308 541 308 516.5 324 c 128,-1,53
 492 340 492 340 462.5 347 c 128,-1,54
 433 354 433 354 410 354 c 0,55,56
 405 354 405 354 376.5 351 c 128,-1,57
 348 348 348 348 312.5 334.5 c 128,-1,58
 277 321 277 321 244 293 c 128,-1,59
 211 265 211 265 200 214 c 0,60,61
 192 174 192 174 204.5 147.5 c 128,-1,62
 217 121 217 121 239.5 105.5 c 128,-1,63
 262 90 262 90 291.5 84 c 128,-1,64
 321 78 321 78 346 78 c 0,65,66
 376 78 376 78 409.5 85.5 c 128,-1,67
 443 93 443 93 474 109 c 128,-1,68
 505 125 505 125 528 151 c 128,-1,69
 551 177 551 177 558 214 c 0,50,51
EndSplineSet
EndChar
StartChar: nine
Encoding: 57 57 26
Width: 686
VWidth: 1473
Flags: W
HStem: -21 106<230.098 429.28> 208 100<302.163 470.779> 622 103<392.624 515.07>
VStem: 88 106<72.976 159.691>
Fore
700 348 m 0,0,1
 659 174 659 174 553.5 76.5 c 128,-1,2
 448 -21 448 -21 299 -21 c 0,3,4
 249 -21 249 -21 211.5 -9 c 128,-1,5
 174 3 174 3 147.5 23 c 128,-1,6
 121 43 121 43 107 68 c 128,-1,7
 93 93 93 93 88 121 c 0,8,9
 84 143 84 143 96 163.5 c 128,-1,10
 108 184 108 184 131 192 c 0,11,12
 156 199 156 199 173 189.5 c 128,-1,13
 190 180 190 180 194 158 c 0,14,15
 200 128 200 128 229.5 106.5 c 128,-1,16
 259 85 259 85 324 85 c 0,17,18
 423 85 423 85 481 137.5 c 128,-1,19
 539 190 539 190 573 289 c 1,20,21
 526 253 526 253 473 230.5 c 128,-1,22
 420 208 420 208 368 208 c 0,23,24
 311 208 311 208 264 225.5 c 128,-1,25
 217 243 217 243 186 275.5 c 128,-1,26
 155 308 155 308 143 354.5 c 128,-1,27
 131 401 131 401 144 460 c 0,28,29
 158 516 158 516 188 564.5 c 128,-1,30
 218 613 218 613 262 648.5 c 128,-1,31
 306 684 306 684 361.5 704.5 c 128,-1,32
 417 725 417 725 479 725 c 0,33,34
 558 725 558 725 609 696 c 128,-1,35
 660 667 660 667 686.5 616.5 c 128,-1,36
 713 566 713 566 715 496.5 c 128,-1,37
 717 427 717 427 700 348 c 0,0,1
595 464 m 0,38,39
 603 498 603 498 594.5 526.5 c 128,-1,40
 586 555 586 555 567 576.5 c 128,-1,41
 548 598 548 598 519.5 610 c 128,-1,42
 491 622 491 622 457 622 c 0,43,44
 421 622 421 622 386.5 609.5 c 128,-1,45
 352 597 352 597 325 575.5 c 128,-1,46
 298 554 298 554 278 525 c 128,-1,47
 258 496 258 496 250 464 c 0,48,49
 236 395 236 395 275.5 351.5 c 128,-1,50
 315 308 315 308 390 308 c 0,51,52
 464 308 464 308 522 351.5 c 128,-1,53
 580 395 580 395 595 464 c 0,38,39
EndSplineSet
EndChar
StartChar: colon
Encoding: 58 58 27
Width: 343
VWidth: 1473
Flags: W
HStem: -9 180<139.874 228.947> 339 180<213.874 303.109>
VStem: 94 254<81 429 50.9923 145.724>
Fore
168 429 m 0,0,1
 177 467 177 467 208 493 c 128,-1,2
 239 519 239 519 277 519 c 256,3,4
 315 519 315 519 336 493 c 128,-1,5
 357 467 357 467 348 429 c 0,6,7
 340 390 340 390 308.5 364.5 c 128,-1,8
 277 339 277 339 239 339 c 256,9,10
 200 339 200 339 180.5 364.5 c 128,-1,11
 161 390 161 390 168 429 c 0,0,1
94 81 m 0,12,13
 103 119 103 119 134 145 c 128,-1,14
 165 171 165 171 203 171 c 256,15,16
 242 171 242 171 262.5 145 c 128,-1,17
 283 119 283 119 274 81 c 0,18,19
 267 43 267 43 235 17 c 128,-1,20
 203 -9 203 -9 165 -9 c 256,21,22
 127 -9 127 -9 107 17 c 128,-1,23
 87 43 87 43 94 81 c 0,12,13
EndSplineSet
EndChar
StartChar: semicolon
Encoding: 59 59 28
Width: 346
VWidth: 1473
Flags: W
HStem: -29 20G<143 163.5 165 175.5> 339 180<213.874 303.109>
VStem: 94 186<30.6743 122.17> 168 180<398.992 493.724>
Fore
94 80 m 1,0,1
 99 103 99 103 118 125 c 128,-1,2
 137 147 137 147 162 159 c 0,3,4
 189 169 189 169 210 167 c 128,-1,5
 231 165 231 165 246.5 154 c 128,-1,6
 262 143 262 143 271 125.5 c 128,-1,7
 280 108 280 108 280 85 c 0,8,9
 280 44 280 44 263 6.5 c 128,-1,10
 246 -31 246 -31 219.5 -62 c 128,-1,11
 193 -93 193 -93 160.5 -115 c 128,-1,12
 128 -137 128 -137 99 -147 c 0,13,14
 77 -155 77 -155 63 -150.5 c 128,-1,15
 49 -146 49 -146 43.5 -136.5 c 128,-1,16
 38 -127 38 -127 42.5 -115 c 128,-1,17
 47 -103 47 -103 63 -96 c 0,18,19
 97 -82 97 -82 125 -64.5 c 128,-1,20
 153 -47 153 -47 177 -9 c 1,21,22
 174 -9 174 -9 169.5 -9.5 c 128,-1,23
 165 -10 165 -10 162 -10 c 0,24,25
 124 -10 124 -10 105.5 15.5 c 128,-1,26
 87 41 87 41 94 77 c 1,27,-1
 94 80 l 1,0,1
168 429 m 0,28,29
 177 467 177 467 208 493 c 128,-1,30
 239 519 239 519 277 519 c 256,31,32
 315 519 315 519 336 493 c 128,-1,33
 357 467 357 467 348 429 c 0,34,35
 340 390 340 390 308.5 364.5 c 128,-1,36
 277 339 277 339 239 339 c 256,37,38
 200 339 200 339 180.5 364.5 c 128,-1,39
 161 390 161 390 168 429 c 0,28,29
EndSplineSet
EndChar
StartChar: less
Encoding: 60 60 29
Width: 677
VWidth: 1473
Flags: W
Fore
592 32 m 256,0,1
 576 12 576 12 551.5 6 c 128,-1,2
 527 0 527 0 508 12 c 2,3,-1
 166 220 l 2,4,5
 155 228 155 228 151 239 c 128,-1,6
 147 250 147 250 149 261 c 0,7,8
 153 299 153 299 190 318 c 2,9,-1
 617 524 l 2,10,11
 642 536 642 536 663.5 529.5 c 128,-1,12
 685 523 685 523 692 502 c 256,13,14
 700 482 700 482 689 459 c 128,-1,15
 678 436 678 436 654 424 c 0,16,17
 582 392 582 392 517 362 c 0,18,19
 461 337 461 337 403 310.5 c 128,-1,20
 345 284 345 284 309 268 c 1,21,-1
 588 112 l 2,22,23
 608 100 608 100 608 76.5 c 128,-1,24
 608 53 608 53 592 32 c 256,0,1
EndSplineSet
EndChar
StartChar: equal
Encoding: 61 61 30
Width: 692
VWidth: 1473
Flags: W
HStem: 97 109<143.658 612.433> 305 110<187.658 655.917>
Fore
679 361 m 0,0,1
 675 340 675 340 656.5 322.5 c 128,-1,2
 638 305 638 305 601 305 c 2,3,-1
 212 305 l 2,4,5
 184 305 184 305 168.5 318 c 128,-1,6
 153 331 153 331 161 361 c 0,7,8
 166 389 166 389 187 402 c 128,-1,9
 208 415 208 415 236 415 c 2,10,-1
 625 415 l 2,11,12
 653 415 653 415 669 401 c 128,-1,13
 685 387 685 387 679 361 c 0,0,1
633 152 m 0,14,15
 631 131 631 131 613 114 c 128,-1,16
 595 97 595 97 558 97 c 2,17,-1
 169 97 l 2,18,19
 141 97 141 97 125 109.5 c 128,-1,20
 109 122 109 122 115 152 c 0,21,22
 122 181 122 181 143 193.5 c 128,-1,23
 164 206 164 206 192 206 c 2,24,-1
 580 206 l 2,25,26
 608 206 608 206 624.5 193 c 128,-1,27
 641 180 641 180 633 152 c 0,14,15
EndSplineSet
EndChar
StartChar: greater
Encoding: 62 62 31
Width: 677
VWidth: 1473
Flags: W
Fore
650 261 m 0,0,1
 647 250 647 250 639 239 c 128,-1,2
 631 228 631 228 614 220 c 2,3,-1
 184 12 l 2,4,5
 161 0 161 0 138.5 6 c 128,-1,6
 116 12 116 12 109 32 c 256,7,8
 102 53 102 53 113 76.5 c 128,-1,9
 124 100 124 100 149 112 c 2,10,-1
 492 268 l 1,11,12
 463 284 463 284 417 310.5 c 128,-1,13
 371 337 371 337 326 362 c 0,14,15
 273 392 273 392 215 424 c 0,16,17
 196 436 196 436 194.5 459 c 128,-1,18
 193 482 193 482 209 502 c 256,19,20
 225 523 225 523 250 529.5 c 128,-1,21
 275 536 275 536 293 524 c 2,22,-1
 632 318 l 2,23,24
 664 299 664 299 650 261 c 0,0,1
EndSplineSet
EndChar
StartChar: question
Encoding: 63 63 32
Width: 677
VWidth: 1473
Flags: W
HStem: -16 144<232.329 314.671> 644 107<382.325 559.153>
VStem: 199 150<31.5057 111.211> 258 109<201.915 276.411>
Fore
710 522 m 256,0,1
 700 474 700 474 676.5 438 c 128,-1,2
 653 402 653 402 621 377 c 128,-1,3
 589 352 589 352 549.5 336 c 128,-1,4
 510 320 510 320 468 311 c 0,5,6
 452 308 452 308 436.5 304.5 c 128,-1,7
 421 301 421 301 408 292 c 0,8,9
 392 283 392 283 381.5 272 c 128,-1,10
 371 261 371 261 367 236 c 0,11,12
 358 199 358 199 339 188 c 128,-1,13
 320 177 320 177 299 177 c 0,14,15
 268 177 268 177 260.5 195.5 c 128,-1,16
 253 214 253 214 258 242 c 0,17,18
 262 264 262 264 269.5 282.5 c 128,-1,19
 277 301 277 301 290 317.5 c 128,-1,20
 303 334 303 334 324 349.5 c 128,-1,21
 345 365 345 365 376 383 c 0,22,23
 396 395 396 395 419 401.5 c 128,-1,24
 442 408 442 408 464 412 c 0,25,26
 532 427 532 427 566 465.5 c 128,-1,27
 600 504 600 504 600.5 543.5 c 128,-1,28
 601 583 601 583 570 613.5 c 128,-1,29
 539 644 539 644 477 644 c 0,30,31
 430 644 430 644 382 622.5 c 128,-1,32
 334 601 334 601 292 564 c 0,33,34
 271 548 271 548 248 547.5 c 128,-1,35
 225 547 225 547 212 563 c 256,36,37
 199 579 199 579 203.5 602 c 128,-1,38
 208 625 208 625 227 641 c 0,39,40
 289 694 289 694 357.5 722.5 c 128,-1,41
 426 751 426 751 498 751 c 0,42,43
 564 751 564 751 609 733 c 128,-1,44
 654 715 654 715 680 684 c 128,-1,45
 706 653 706 653 713 611 c 128,-1,46
 720 569 720 569 710 522 c 256,0,1
349 56 m 0,47,48
 342 27 342 27 315.5 5.5 c 128,-1,49
 289 -16 289 -16 258 -16 c 256,50,51
 227 -16 227 -16 209.5 5.5 c 128,-1,52
 192 27 192 27 199 56 c 0,53,54
 205 85 205 85 231.5 106.5 c 128,-1,55
 258 128 258 128 289 128 c 256,56,57
 320 128 320 128 337.5 106.5 c 128,-1,58
 355 85 355 85 349 56 c 0,47,48
EndSplineSet
EndChar
StartChar: at
Encoding: 64 64 33
Width: 1022
VWidth: 1473
Flags: W
HStem: -64 77<384.886 523.972 523.972 535.181 535.181 682.792> 131 72<432.275 556.787> 392 74<519.076 682.476> 533 75<569.757 725.955> 709.5 76.5<635.044 801.234>
Fore
974 346 m 0,0,1
 944 277 944 277 898.5 229 c 128,-1,2
 853 181 853 181 793 150 c 0,3,4
 759 133 759 133 719 130 c 128,-1,5
 679 127 679 127 663 146 c 1,6,7
 657 150 657 150 653.5 159.5 c 128,-1,8
 650 169 650 169 653 184 c 1,9,10
 614 156 614 156 570 143.5 c 128,-1,11
 526 131 526 131 483 131 c 0,12,13
 399 131 399 131 361.5 181 c 128,-1,14
 324 231 324 231 348 303 c 0,15,16
 373 380 373 380 442 423 c 128,-1,17
 511 466 511 466 611 466 c 0,18,19
 661 466 661 466 693 449 c 128,-1,20
 725 432 725 432 738 408 c 1,21,22
 759 461 759 461 744 489 c 0,23,24
 726 533 726 533 636 533 c 0,25,26
 603 533 603 533 572.5 525 c 128,-1,27
 542 517 542 517 504 498 c 0,28,29
 479 485 479 485 468.5 490.5 c 128,-1,30
 458 496 458 496 455 502 c 0,31,32
 448 519 448 519 459 534.5 c 128,-1,33
 470 550 470 550 488 560 c 0,34,35
 576 608 576 608 664 608 c 0,36,37
 785 608 785 608 816 538 c 0,38,39
 832 502 832 502 825 462.5 c 128,-1,40
 818 423 818 423 803 390 c 2,41,-1
 793 368 l 2,42,43
 785 352 785 352 768 314.5 c 128,-1,44
 751 277 751 277 722 209 c 0,45,46
 716 197 716 197 722 194.5 c 128,-1,47
 728 192 728 192 737 193 c 0,48,49
 747 194 747 194 762 200 c 0,50,51
 803 218 803 218 843.5 258 c 128,-1,52
 884 298 884 298 909 359 c 1,53,54
 906 354 906 354 915.5 376.5 c 128,-1,55
 925 399 925 399 930 438 c 128,-1,56
 935 477 935 477 930 524.5 c 128,-1,57
 925 572 925 572 893 616 c 0,58,59
 862 659 862 659 813.5 682.5 c 128,-1,60
 765 706 765 706 707.5 709.5 c 128,-1,61
 650 713 650 713 587 697.5 c 128,-1,62
 524 682 524 682 467 649.5 c 128,-1,63
 410 617 410 617 361 566.5 c 128,-1,64
 312 516 312 516 283 449 c 0,65,66
 250 377 250 377 241.5 320.5 c 128,-1,67
 233 264 233 264 239 220.5 c 128,-1,68
 245 177 245 177 262.5 145 c 128,-1,69
 280 113 280 113 300.5 92 c 128,-1,70
 321 71 321 71 341 58.5 c 128,-1,71
 361 46 361 46 373 40 c 0,72,73
 412 19 412 19 472.5 13 c 128,-1,74
 533 7 533 7 598 15.5 c 128,-1,75
 663 24 663 24 722.5 47.5 c 128,-1,76
 782 71 782 71 819 110 c 0,77,78
 831 122 831 122 849.5 130 c 128,-1,79
 868 138 868 138 881 130 c 0,80,81
 893 121 893 121 894.5 105.5 c 128,-1,82
 896 90 896 90 882 75 c 0,83,84
 838 21 838 21 763.5 -12.5 c 128,-1,85
 689 -46 689 -46 609 -58.5 c 128,-1,86
 529 -71 529 -71 451.5 -64 c 128,-1,87
 374 -57 374 -57 324 -31 c 0,88,89
 267 -1 267 -1 227 46.5 c 128,-1,90
 187 94 187 94 170 157 c 128,-1,91
 153 220 153 220 162 298 c 128,-1,92
 171 376 171 376 211 467 c 0,93,94
 247 550 247 550 306 611.5 c 128,-1,95
 365 673 365 673 435 713.5 c 128,-1,96
 505 754 505 754 581 772.5 c 128,-1,97
 657 791 657 791 728.5 786 c 128,-1,98
 800 781 800 781 861 752 c 128,-1,99
 922 723 922 723 962 670 c 0,100,101
 991 629 991 629 1001.5 584 c 128,-1,102
 1012 539 1012 539 1010 495.5 c 128,-1,103
 1008 452 1008 452 997.5 413 c 128,-1,104
 987 374 987 374 974 346 c 0,0,1
689 301 m 0,105,106
 706 337 706 337 692 359 c 0,107,108
 672 392 672 392 592 392 c 0,109,110
 564 392 564 392 536 386 c 128,-1,111
 508 380 508 380 484 369 c 128,-1,112
 460 358 460 358 442 340.5 c 128,-1,113
 424 323 424 323 417 301 c 0,114,115
 401 250 401 250 429 226.5 c 128,-1,116
 457 203 457 203 505 203 c 256,117,118
 554 203 554 203 587 215 c 128,-1,119
 620 227 620 227 641.5 243 c 128,-1,120
 663 259 663 259 674 275.5 c 128,-1,121
 685 292 685 292 689 301 c 0,105,106
EndSplineSet
EndChar
StartChar: A
Encoding: 65 65 34
Width: 730
VWidth: 1473
Flags: W
HStem: 0 21G<111.5 125.5 616.5 630.5> 302 109<256 628> 617 103<389.935 598.296>
Fore
687 66 m 2,0,1
 679 29 679 29 660 14.5 c 128,-1,2
 641 0 641 0 620 0 c 0,3,4
 613 0 613 0 604 2 c 128,-1,5
 595 4 595 4 587.5 11.5 c 128,-1,6
 580 19 580 19 576.5 31.5 c 128,-1,7
 573 44 573 44 577 66 c 2,8,-1
 628 302 l 1,9,-1
 233 302 l 1,10,-1
 183 66 l 2,11,12
 175 29 175 29 155.5 14.5 c 128,-1,13
 136 0 136 0 115 0 c 0,14,15
 108 0 108 0 99 2 c 128,-1,16
 90 4 90 4 82.5 11.5 c 128,-1,17
 75 19 75 19 72 31.5 c 128,-1,18
 69 44 69 44 74 66 c 0,19,20
 87 131 87 131 102 197 c 0,21,22
 113 253 113 253 126.5 317.5 c 128,-1,23
 140 382 140 382 152 433 c 0,24,25
 164 491 164 491 191 542.5 c 128,-1,26
 218 594 218 594 263 633.5 c 128,-1,27
 308 673 308 673 371.5 696.5 c 128,-1,28
 435 720 435 720 520 720 c 0,29,30
 604 720 604 720 657 697.5 c 128,-1,31
 710 675 710 675 738 636 c 128,-1,32
 766 597 766 597 772 545.5 c 128,-1,33
 778 494 778 494 766 438 c 2,34,-1
 687 66 l 2,0,1
659 442 m 2,35,36
 666 474 666 474 663.5 505 c 128,-1,37
 661 536 661 536 644.5 561 c 128,-1,38
 628 586 628 586 593 601.5 c 128,-1,39
 558 617 558 617 499 617 c 0,40,41
 439 617 439 617 397 601.5 c 128,-1,42
 355 586 355 586 327 561 c 128,-1,43
 299 536 299 536 284.5 505 c 128,-1,44
 270 474 270 474 262 442 c 0,45,46
 261 435 261 435 259 429 c 0,47,48
 256 414 256 414 256 411 c 1,49,-1
 653 411 l 1,50,51
 653 414 653 414 656 426.5 c 128,-1,52
 659 439 659 439 659 442 c 2,35,36
EndSplineSet
EndChar
StartChar: B
Encoding: 66 66 35
Width: 730
VWidth: 1473
Flags: W
HStem: 0 105<282.235 478.62> 302 109<331.173 585.438> 613 110<450.162 584.803>
Fore
318 0 m 2,0,1
 270 0 270 0 225.5 13.5 c 128,-1,2
 181 27 181 27 151.5 55.5 c 128,-1,3
 122 84 122 84 109 127.5 c 128,-1,4
 96 171 96 171 109 231 c 2,5,-1
 162 485 l 2,6,7
 177 552 177 552 214.5 598 c 128,-1,8
 252 644 252 644 301.5 672 c 128,-1,9
 351 700 351 700 409 711.5 c 128,-1,10
 467 723 467 723 523 723 c 0,11,12
 582 723 582 723 634.5 708.5 c 128,-1,13
 687 694 687 694 723 665 c 128,-1,14
 759 636 759 636 776 595 c 128,-1,15
 793 554 793 554 782 499 c 0,16,17
 760 404 760 404 670 358 c 1,18,19
 709 334 709 334 719 293.5 c 128,-1,20
 729 253 729 253 719 206 c 0,21,22
 701 121 701 121 623 59 c 0,23,24
 586 29 586 29 531.5 14.5 c 128,-1,25
 477 0 477 0 435 0 c 2,26,-1
 318 0 l 2,0,1
514 411 m 2,27,28
 570 408 570 408 615.5 431.5 c 128,-1,29
 661 455 661 455 672 505 c 0,30,31
 678 535 678 535 664.5 555.5 c 128,-1,32
 651 576 651 576 626 588.5 c 128,-1,33
 601 601 601 601 567 607 c 128,-1,34
 533 613 533 613 499 613 c 0,35,36
 467 613 467 613 430 608.5 c 128,-1,37
 393 604 393 604 361 590 c 128,-1,38
 329 576 329 576 304.5 550 c 128,-1,39
 280 524 280 524 271 482 c 2,40,-1
 220 236 l 2,41,42
 212 200 212 200 218.5 176.5 c 128,-1,43
 225 153 225 153 241.5 137.5 c 128,-1,44
 258 122 258 122 281.5 115 c 128,-1,45
 305 108 305 108 331 105 c 2,46,-1
 457 105 l 2,47,48
 507 105 507 105 552 130 c 128,-1,49
 597 155 597 155 608 206 c 0,50,51
 629 302 629 302 491 302 c 2,52,-1
 357 302 l 2,53,54
 320 302 320 302 309 319.5 c 128,-1,55
 298 337 298 337 302 358 c 0,56,57
 309 387 309 387 330.5 399 c 128,-1,58
 352 411 352 411 380 411 c 2,59,-1
 514 411 l 2,27,28
EndSplineSet
EndChar
StartChar: C
Encoding: 67 67 36
Width: 687
VWidth: 1473
Flags: W
HStem: 610 110<412.523 615.646>
Fore
778 613 m 0,0,1
 790 597 790 597 784.5 573.5 c 128,-1,2
 779 550 779 550 759 533 c 256,3,4
 738 517 738 517 715 518 c 128,-1,5
 692 519 692 519 681 535 c 0,6,7
 654 572 654 572 613.5 591 c 128,-1,8
 573 610 573 610 524 610 c 0,9,10
 417 610 417 610 336.5 546.5 c 128,-1,11
 256 483 256 483 230 358 c 0,12,13
 217 296 217 296 225 252.5 c 128,-1,14
 233 209 233 209 253 179.5 c 128,-1,15
 273 150 273 150 298.5 133 c 128,-1,16
 324 116 324 116 348 110 c 0,17,18
 383 100 383 100 419 102.5 c 128,-1,19
 455 105 455 105 489 116 c 128,-1,20
 523 127 523 127 552.5 144 c 128,-1,21
 582 161 582 161 604 180 c 0,22,23
 620 193 620 193 645 196 c 128,-1,24
 670 199 670 199 684 181 c 0,25,26
 700 159 700 159 689.5 134.5 c 128,-1,27
 679 110 679 110 667 102 c 0,28,29
 569 19 569 19 471.5 1.5 c 128,-1,30
 374 -16 374 -16 298 3 c 0,31,32
 258 13 258 13 218 41 c 128,-1,33
 178 69 178 69 151 115 c 128,-1,34
 124 161 124 161 113 222 c 128,-1,35
 102 283 102 283 118 358 c 0,36,37
 134 436 134 436 174 502.5 c 128,-1,38
 214 569 214 569 270.5 617.5 c 128,-1,39
 327 666 327 666 397.5 693 c 128,-1,40
 468 720 468 720 548 720 c 0,41,42
 620 720 620 720 680 692 c 128,-1,43
 740 664 740 664 778 613 c 0,0,1
EndSplineSet
EndChar
StartChar: D
Encoding: 68 68 37
Width: 723
VWidth: 1473
Flags: W
HStem: -0.5 108.5<238.566 286.308 286.308 302.085 302.085 312 312 357.496> 608 109<352.185 428.419 428.419 454.842 454.842 474.797>
VStem: 281 8<555.863 558.812>
Fore
754 358 m 256,0,1
 720 199 720 199 601 103 c 0,2,3
 550 62 550 62 494.5 40.5 c 128,-1,4
 439 19 439 19 394 9.5 c 128,-1,5
 349 0 349 0 319 -0.5 c 128,-1,6
 289 -1 289 -1 286 -1 c 2,7,-1
 239 -1 l 2,8,9
 206 -1 206 -1 176 10.5 c 128,-1,10
 146 22 146 22 124.5 42.5 c 128,-1,11
 103 63 103 63 94 92 c 128,-1,12
 85 121 85 121 94 155 c 1,13,14
 93 152 93 152 102 192 c 0,15,16
 106 209 106 209 112 237 c 128,-1,17
 118 265 118 265 127 308.5 c 128,-1,18
 136 352 136 352 149 413 c 128,-1,19
 162 474 162 474 180 557 c 0,20,21
 187 592 187 592 207 621.5 c 128,-1,22
 227 651 227 651 255.5 672.5 c 128,-1,23
 284 694 284 694 319.5 705.5 c 128,-1,24
 355 717 355 717 393 717 c 2,25,-1
 439 717 l 2,26,27
 442 717 442 717 471.5 716.5 c 128,-1,28
 501 716 501 716 543 706.5 c 128,-1,29
 585 697 585 697 630.5 675.5 c 128,-1,30
 676 654 676 654 710 613 c 0,31,32
 788 517 788 517 754 358 c 256,0,1
645 358 m 256,33,34
 670 473 670 473 619 535 c 0,35,36
 594 563 594 563 560 578.5 c 128,-1,37
 526 594 526 594 494.5 600.5 c 128,-1,38
 463 607 463 607 440.5 607.5 c 128,-1,39
 418 608 418 608 417 608 c 2,40,-1
 371 608 l 2,41,42
 333 608 333 608 312.5 590 c 128,-1,43
 292 572 292 572 289 555 c 1,44,45
 289 558 289 558 281 520 c 0,46,47
 277 502 277 502 271 474 c 128,-1,48
 265 446 265 446 256 402.5 c 128,-1,49
 247 359 247 359 234 298 c 128,-1,50
 221 237 221 237 203 155 c 0,51,52
 197 130 197 130 218 118 c 128,-1,53
 239 106 239 106 264 106 c 0,54,55
 296 106 296 106 308 107 c 128,-1,56
 320 108 320 108 320.5 108 c 128,-1,57
 321 108 321 108 319 108 c 2,58,-1
 312 108 l 1,59,60
 335 108.5 l 2,61,62
 358 109 358 109 392 115.5 c 128,-1,63
 426 122 426 122 466.5 137 c 128,-1,64
 507 152 507 152 544 181 c 0,65,66
 620 243 620 243 645 358 c 256,33,34
EndSplineSet
EndChar
StartChar: E
Encoding: 69 69 38
Width: 695
VWidth: 1473
Flags: W
HStem: -7 110<305.661 508.441> 302 110<236 530.917> 613 110<440.563 612.06>
Fore
141 485 m 2,0,1
 156 552 156 552 195 598 c 128,-1,2
 234 644 234 644 286.5 672 c 128,-1,3
 339 700 339 700 398.5 711.5 c 128,-1,4
 458 723 458 723 514 723 c 0,5,6
 608 723 608 723 680.5 691 c 128,-1,7
 753 659 753 659 775 600 c 0,8,9
 782 579 782 579 775 558.5 c 128,-1,10
 768 538 768 538 744 526 c 0,11,12
 722 514 722 514 702 520.5 c 128,-1,13
 682 527 682 527 670 545 c 0,14,15
 654 575 654 575 610 594 c 128,-1,16
 566 613 566 613 491 613 c 0,17,18
 458 613 458 613 420 608.5 c 128,-1,19
 382 604 382 604 347 590 c 128,-1,20
 312 576 312 576 285.5 550 c 128,-1,21
 259 524 259 524 250 482 c 2,22,-1
 236 412 l 1,23,-1
 499 411 l 2,24,25
 527 411 527 411 544 399 c 128,-1,26
 561 387 561 387 554 358 c 0,27,28
 550 337 550 337 531.5 319.5 c 128,-1,29
 513 302 513 302 476 302 c 2,30,-1
 212 302 l 1,31,-1
 199 236 l 2,32,33
 189 190 189 190 204.5 163.5 c 128,-1,34
 220 137 220 137 248.5 123.5 c 128,-1,35
 277 110 277 110 313 106.5 c 128,-1,36
 349 103 349 103 382 103 c 0,37,38
 457 103 457 103 510 122 c 128,-1,39
 563 141 563 141 591 171 c 0,40,41
 610 189 610 189 633 195.5 c 128,-1,42
 656 202 656 202 673 190 c 256,43,44
 691 178 691 178 689.5 157.5 c 128,-1,45
 688 137 688 137 672 116 c 0,46,47
 625 57 625 57 538.5 25 c 128,-1,48
 452 -7 452 -7 358 -7 c 0,49,50
 302 -7 302 -7 247.5 4.5 c 128,-1,51
 193 16 193 16 152.5 44 c 128,-1,52
 112 72 112 72 93 118 c 128,-1,53
 74 164 74 164 88 231 c 2,54,-1
 141 485 l 2,0,1
EndSplineSet
EndChar
StartChar: F
Encoding: 70 70 39
Width: 701
VWidth: 1473
Flags: W
HStem: -1 21G<99.5 125.5> 302 109<258 552.917> 613 110<462.563 634.387>
Fore
164 485 m 0,0,1
 178 552 178 552 217 598 c 128,-1,2
 256 644 256 644 308.5 672 c 128,-1,3
 361 700 361 700 420.5 711.5 c 128,-1,4
 480 723 480 723 536 723 c 0,5,6
 631 723 631 723 703 691 c 128,-1,7
 775 659 775 659 797 600 c 0,8,9
 804 579 804 579 797 558.5 c 128,-1,10
 790 538 790 538 766 526 c 0,11,12
 744 514 744 514 724 520.5 c 128,-1,13
 704 527 704 527 692 545 c 0,14,15
 676 575 676 575 632 594 c 128,-1,16
 588 613 588 613 513 613 c 0,17,18
 480 613 480 613 442 608.5 c 128,-1,19
 404 604 404 604 369 590 c 128,-1,20
 334 576 334 576 307.5 550 c 128,-1,21
 281 524 281 524 273 482 c 2,22,-1
 258 411 l 1,23,-1
 522 411 l 2,24,25
 550 411 550 411 566.5 399 c 128,-1,26
 583 387 583 387 576 358 c 0,27,28
 572 337 572 337 553.5 319.5 c 128,-1,29
 535 302 535 302 498 302 c 2,30,-1
 233 302 l 1,31,-1
 183 65 l 2,32,33
 175 28 175 28 155.5 13.5 c 128,-1,34
 136 -1 136 -1 115 -1 c 0,35,36
 84 -1 84 -1 77.5 18 c 128,-1,37
 71 37 71 37 75 65 c 0,38,39
 77 69 77 69 85 116 c 0,40,41
 93 155 93 155 111.5 241 c 128,-1,42
 130 327 130 327 164 485 c 0,0,1
EndSplineSet
EndChar
StartChar: G
Encoding: 71 71 40
Width: 764
VWidth: 1473
Flags: W
HStem: -6 111<317.481 469.863> 301 110<348.783 663.995> 613 110<416.523 647.865>
Fore
558 723 m 0,0,1
 664 723 664 723 727 688.5 c 128,-1,2
 790 654 790 654 815 598 c 0,3,4
 824 577 824 577 815 556 c 128,-1,5
 806 535 806 535 784 523 c 256,6,7
 762 511 762 511 742.5 518.5 c 128,-1,8
 723 526 723 526 710 542 c 0,9,10
 687 570 687 570 649 591.5 c 128,-1,11
 611 613 611 613 536 613 c 0,12,13
 411 613 411 613 336.5 544.5 c 128,-1,14
 262 476 262 476 237 357 c 0,15,16
 212 236 212 236 263 170.5 c 128,-1,17
 314 105 314 105 429 105 c 0,18,19
 464 105 464 105 501.5 113 c 128,-1,20
 539 121 539 121 571 136.5 c 128,-1,21
 603 152 603 152 625 173 c 128,-1,22
 647 194 647 194 653 221 c 2,23,-1
 661 258 l 2,24,25
 664 274 664 274 664 287.5 c 128,-1,26
 664 301 664 301 642 301 c 2,27,-1
 380 301 l 2,28,29
 349 301 349 301 328.5 313.5 c 128,-1,30
 308 326 308 326 315 357 c 0,31,32
 323 386 323 386 348 398.5 c 128,-1,33
 373 411 373 411 404 411 c 2,34,-1
 666 411 l 2,35,36
 737 411 737 411 762 371 c 128,-1,37
 787 331 787 331 775 275 c 2,38,-1
 763 221 l 2,39,40
 753 171 753 171 726.5 137 c 128,-1,41
 700 103 700 103 666 75 c 0,42,43
 659 69 659 69 638 56 c 128,-1,44
 617 43 617 43 583.5 29 c 128,-1,45
 550 15 550 15 505 4.5 c 128,-1,46
 460 -6 460 -6 405 -6 c 0,47,48
 323 -6 323 -6 263 20.5 c 128,-1,49
 203 47 203 47 166.5 95 c 128,-1,50
 130 143 130 143 119 209 c 128,-1,51
 108 275 108 275 125 357 c 256,52,53
 143 438 143 438 180.5 505.5 c 128,-1,54
 218 573 218 573 274 621.5 c 128,-1,55
 330 670 330 670 402 696.5 c 128,-1,56
 474 723 474 723 558 723 c 0,0,1
EndSplineSet
EndChar
StartChar: H
Encoding: 72 72 41
Width: 746
VWidth: 1473
Flags: W
HStem: 0 21G<107.5 132.5 613 638> 302 109<264 636> 697 20G<259.5 288 764.5 793>
Fore
695 65 m 1,0,1
 688 28 688 28 668 14 c 128,-1,2
 648 0 648 0 628 0 c 0,3,4
 598 0 598 0 589 18.5 c 128,-1,5
 580 37 580 37 586 65 c 2,6,-1
 636 302 l 1,7,-1
 240 302 l 1,8,-1
 190 65 l 2,9,10
 183 28 183 28 163 14 c 128,-1,11
 143 0 143 0 122 0 c 0,12,13
 93 0 93 0 84 19 c 128,-1,14
 75 38 75 38 81 65 c 2,15,-1
 206 653 l 2,16,17
 212 679 212 679 228.5 698 c 128,-1,18
 245 717 245 717 274 717 c 0,19,20
 302 717 302 717 311.5 698 c 128,-1,21
 321 679 321 679 315 653 c 2,22,-1
 264 411 l 1,23,-1
 660 411 l 1,24,-1
 712 653 l 2,25,26
 717 681 717 681 733.5 699 c 128,-1,27
 750 717 750 717 779 717 c 0,28,29
 807 717 807 717 816.5 698 c 128,-1,30
 826 679 826 679 821 653 c 2,31,-1
 695 65 l 1,0,1
EndSplineSet
EndChar
StartChar: I
Encoding: 73 73 42
Width: 244
VWidth: 1473
Flags: W
HStem: 0 21G<109 133.5> 697 20G<260.5 288.5>
VStem: 82 235<65 653 65 65>
Fore
192 65 m 1,0,1
 184 28 184 28 163.5 14 c 128,-1,2
 143 0 143 0 124 0 c 0,3,4
 94 0 94 0 85.5 18.5 c 128,-1,5
 77 37 77 37 82 65 c 2,6,-1
 208 653 l 2,7,8
 214 681 214 681 230 699 c 128,-1,9
 246 717 246 717 275 717 c 0,10,11
 302 717 302 717 312.5 698 c 128,-1,12
 323 679 323 679 317 653 c 2,13,-1
 192 65 l 1,0,1
EndSplineSet
EndChar
StartChar: J
Encoding: 74 74 43
Width: 598
VWidth: 1473
Flags: W
HStem: -9 108<223.575 324.078>
Fore
579 239 m 1,0,1
 563 164 563 164 524.5 115 c 128,-1,2
 486 66 486 66 442.5 39 c 128,-1,3
 399 12 399 12 357 1.5 c 128,-1,4
 315 -9 315 -9 293 -9 c 2,5,-1
 268 -9 l 2,6,7
 220 -9 220 -9 179 7.5 c 128,-1,8
 138 24 138 24 111.5 54.5 c 128,-1,9
 85 85 85 85 75 129.5 c 128,-1,10
 65 174 65 174 77 228 c 2,11,-1
 94 311 l 2,12,13
 100 337 100 337 117 357 c 128,-1,14
 134 377 134 377 164 377 c 0,15,16
 192 377 192 377 200.5 357 c 128,-1,17
 209 337 209 337 203 311 c 2,18,-1
 186 228 l 2,19,20
 174 172 174 172 206.5 135.5 c 128,-1,21
 239 99 239 99 305 99 c 0,22,23
 358 99 358 99 406.5 135 c 128,-1,24
 455 171 455 171 470 239 c 2,25,-1
 557 645 l 2,26,27
 563 673 563 673 580 691.5 c 128,-1,28
 597 710 597 710 623 710 c 0,29,30
 653 710 653 710 662.5 691.5 c 128,-1,31
 672 673 672 673 666 645 c 2,32,-1
 579 239 l 1,0,1
EndSplineSet
EndChar
StartChar: K
Encoding: 75 75 44
Width: 686
VWidth: 1473
Flags: W
HStem: 0 21G<109 133.5> 699 20G<260.5 288.5>
VStem: 558 115<10.5947 32 32 174.027>
Fore
673 52 m 0,0,1
 673 29 673 29 655.5 10 c 128,-1,2
 638 -9 638 -9 616 -13 c 0,3,4
 591 -18 591 -18 574.5 -4 c 128,-1,5
 558 10 558 10 558 32 c 0,6,7
 560 113 560 113 538 176 c 128,-1,8
 516 239 516 239 485 283 c 128,-1,9
 454 327 454 327 422 353.5 c 128,-1,10
 390 380 390 380 373 390 c 1,11,-1
 243 315 l 1,12,-1
 190 66 l 2,13,14
 183 29 183 29 163 14.5 c 128,-1,15
 143 0 143 0 124 0 c 0,16,17
 94 0 94 0 84.5 19 c 128,-1,18
 75 38 75 38 81 65 c 2,19,-1
 206 653 l 2,20,21
 212 681 212 681 229 700 c 128,-1,22
 246 719 246 719 275 719 c 0,23,24
 302 719 302 719 311.5 699 c 128,-1,25
 321 679 321 679 315 653 c 2,26,-1
 270 443 l 1,27,28
 277 446 277 446 327 476 c 0,29,30
 349 489 349 489 382 508 c 128,-1,31
 415 527 415 527 464 556 c 128,-1,32
 513 585 513 585 579 623 c 128,-1,33
 645 661 645 661 734 713 c 1,34,35
 753 720 753 720 765.5 716 c 128,-1,36
 778 712 778 712 784 704 c 0,37,38
 791 692 791 692 792 679.5 c 128,-1,39
 793 667 793 667 789 657.5 c 128,-1,40
 785 648 785 648 779 640.5 c 128,-1,41
 773 633 773 633 768 631 c 2,42,-1
 477 454 l 1,43,44
 507 432 507 432 542 397 c 128,-1,45
 577 362 577 362 606.5 312 c 128,-1,46
 636 262 636 262 655.5 197.5 c 128,-1,47
 675 133 675 133 673 52 c 0,0,1
EndSplineSet
EndChar
StartChar: L
Encoding: 76 76 45
Width: 664
VWidth: 1473
Flags: W
HStem: -1 109<215.871 628.918> 696 20G<265 293>
Fore
653 55 m 0,0,1
 648 34 648 34 629.5 16.5 c 128,-1,2
 611 -1 611 -1 575 -1 c 2,3,-1
 211 -1 l 2,4,5
 149 -1 149 -1 118.5 39.5 c 128,-1,6
 88 80 88 80 102 140 c 2,7,-1
 209 651 l 2,8,9
 217 679 217 679 233.5 697.5 c 128,-1,10
 250 716 250 716 280 716 c 0,11,12
 306 716 306 716 316 697 c 128,-1,13
 326 678 326 678 318 651 c 2,14,-1
 209 137 l 2,15,16
 206 124 206 124 213 114.5 c 128,-1,17
 220 105 220 105 234 108 c 1,18,-1
 598 108 l 2,19,20
 625 108 625 108 642 94.5 c 128,-1,21
 659 81 659 81 653 55 c 0,0,1
EndSplineSet
EndChar
StartChar: M
Encoding: 77 77 46
Width: 1025
VWidth: 1473
Flags: W
HStem: -7 21G<105 129.5 496 520 886.5 911.5> 617 109<374.495 512.391 764.905 802 802 838.397 838.397 924.966>
Fore
969 59 m 1,0,1
 962 22 962 22 941.5 7.5 c 128,-1,2
 921 -7 921 -7 902 -7 c 0,3,4
 871 -7 871 -7 862.5 12 c 128,-1,5
 854 31 854 31 860 59 c 2,6,-1
 952 489 l 2,7,8
 980 617 980 617 837 617 c 2,9,10
 815 615 l 2,11,12
 793 613 793 613 764 600.5 c 128,-1,13
 735 588 735 588 708.5 562 c 128,-1,14
 682 536 682 536 672 489 c 2,15,-1
 580 59 l 2,16,17
 573 22 573 22 551.5 7.5 c 128,-1,18
 530 -7 530 -7 510 -7 c 0,19,20
 482 -7 482 -7 473 12.5 c 128,-1,21
 464 32 464 32 470 59 c 2,22,-1
 561 489 l 2,23,24
 573 547 573 547 540.5 582 c 128,-1,25
 508 617 508 617 452 617 c 0,26,27
 405 617 405 617 374 604.5 c 128,-1,28
 343 592 343 592 324 573.5 c 128,-1,29
 305 555 305 555 295.5 532.5 c 128,-1,30
 286 510 286 510 281 489 c 2,31,-1
 190 59 l 2,32,33
 183 22 183 22 161.5 7.5 c 128,-1,34
 140 -7 140 -7 119 -7 c 0,35,36
 91 -7 91 -7 82.5 12 c 128,-1,37
 74 31 74 31 80 59 c 2,38,-1
 171 489 l 2,39,40
 184 550 184 550 213 594.5 c 128,-1,41
 242 639 242 639 283 668.5 c 128,-1,42
 324 698 324 698 372.5 712 c 128,-1,43
 421 726 421 726 474 726 c 0,44,45
 499 726 499 726 526.5 719.5 c 128,-1,46
 554 713 554 713 578.5 700.5 c 128,-1,47
 603 688 603 688 621 669.5 c 128,-1,48
 639 651 639 651 647 629 c 1,49,50
 664 651 664 651 689.5 669.5 c 128,-1,51
 715 688 715 688 743.5 700.5 c 128,-1,52
 772 713 772 713 802 719.5 c 128,-1,53
 832 726 832 726 859 726 c 0,54,55
 913 726 913 726 956.5 710.5 c 128,-1,56
 1000 695 1000 695 1027.5 665.5 c 128,-1,57
 1055 636 1055 636 1064.5 592 c 128,-1,58
 1074 548 1074 548 1061 489 c 2,59,-1
 969 59 l 1,0,1
EndSplineSet
EndChar
StartChar: N
Encoding: 78 78 47
Width: 717
VWidth: 1473
Flags: W
HStem: 0 21G<107.5 132.5 582 607> 699 20G<733.5 762>
VStem: 80 110<33.1966 537.278>
Fore
664 65 m 1,0,1
 657 29 657 29 637 14.5 c 128,-1,2
 617 0 617 0 597 0 c 0,3,4
 567 0 567 0 558.5 18.5 c 128,-1,5
 550 37 550 37 555 65 c 2,6,-1
 600 275 l 1,7,8
 591 309 591 309 571 363 c 128,-1,9
 551 417 551 417 523.5 469.5 c 128,-1,10
 496 522 496 522 462.5 563 c 128,-1,11
 429 604 429 604 390 613 c 0,12,13
 365 619 365 619 347 612 c 128,-1,14
 329 605 329 605 316 590 c 128,-1,15
 303 575 303 575 296 554 c 128,-1,16
 289 533 289 533 284 513 c 2,17,-1
 190 65 l 2,18,19
 183 29 183 29 163 14.5 c 128,-1,20
 143 0 143 0 122 0 c 0,21,22
 93 0 93 0 83.5 18.5 c 128,-1,23
 74 37 74 37 80 65 c 2,24,-1
 178 527 l 2,25,26
 187 569 187 569 210 608 c 128,-1,27
 233 647 233 647 267.5 675 c 128,-1,28
 302 703 302 703 345.5 715.5 c 128,-1,29
 389 728 389 728 439 715 c 0,30,31
 477 706 477 706 509 680 c 128,-1,32
 541 654 541 654 566 620 c 128,-1,33
 591 586 591 586 610 548.5 c 128,-1,34
 629 511 629 511 642 477 c 1,35,-1
 681 653 l 2,36,37
 687 681 687 681 703 700 c 128,-1,38
 719 719 719 719 748 719 c 0,39,40
 776 719 776 719 786 699 c 128,-1,41
 796 679 796 679 790 653 c 2,42,-1
 664 65 l 1,0,1
EndSplineSet
EndChar
StartChar: O
Encoding: 79 79 48
Width: 788
VWidth: 1473
Flags: W
HStem: -7 112<325.697 517.147> 608 112<424.338 616.241>
Fore
826 357 m 0,0,1
 810 283 810 283 769 217.5 c 128,-1,2
 728 152 728 152 669 102 c 128,-1,3
 610 52 610 52 538.5 22.5 c 128,-1,4
 467 -7 467 -7 393 -7 c 256,5,6
 320 -7 320 -7 261.5 22.5 c 128,-1,7
 203 52 203 52 165.5 102 c 128,-1,8
 128 152 128 152 114 217.5 c 128,-1,9
 100 283 100 283 116 357 c 0,10,11
 131 429 131 429 173 495 c 128,-1,12
 215 561 215 561 273 611 c 128,-1,13
 331 661 331 661 402.5 690.5 c 128,-1,14
 474 720 474 720 548 720 c 256,15,16
 622 720 622 720 681 690.5 c 128,-1,17
 740 661 740 661 777.5 611 c 128,-1,18
 815 561 815 561 828 495 c 128,-1,19
 841 429 841 429 826 357 c 0,0,1
715 357 m 256,20,21
 725 407 725 407 715.5 452.5 c 128,-1,22
 706 498 706 498 681 532.5 c 128,-1,23
 656 567 656 567 615.5 587.5 c 128,-1,24
 575 608 575 608 524 608 c 128,-1,25
 473 608 473 608 424.5 587.5 c 128,-1,26
 376 567 376 567 336 533 c 128,-1,27
 296 499 296 499 267.5 453 c 128,-1,28
 239 407 239 407 228 357 c 0,29,30
 217 305 217 305 226.5 259.5 c 128,-1,31
 236 214 236 214 261 180 c 128,-1,32
 286 146 286 146 326.5 125.5 c 128,-1,33
 367 105 367 105 418 105 c 0,34,35
 468 105 468 105 517.5 125.5 c 128,-1,36
 567 146 567 146 607 180.5 c 128,-1,37
 647 215 647 215 675.5 260.5 c 128,-1,38
 704 306 704 306 715 357 c 256,20,21
EndSplineSet
EndChar
StartChar: P
Encoding: 80 80 49
Width: 723
VWidth: 1473
Flags: W
HStem: -1 21G<93.5 123.5> 617 105<418.554 602.821>
Fore
311 299 m 0,0,1
 295 311 295 311 286 328 c 128,-1,2
 277 345 277 345 293 370 c 0,3,4
 311 396 311 396 333 400 c 128,-1,5
 355 404 355 404 376 392 c 0,6,7
 408 374 408 374 451.5 366 c 128,-1,8
 495 358 495 358 537.5 364 c 128,-1,9
 580 370 580 370 615.5 393.5 c 128,-1,10
 651 417 651 417 664 464 c 0,11,12
 673 491 673 491 671 518 c 128,-1,13
 669 545 669 545 650.5 567 c 128,-1,14
 632 589 632 589 594.5 603 c 128,-1,15
 557 617 557 617 496 617 c 0,16,17
 395 617 395 617 336 578 c 128,-1,18
 277 539 277 539 256 448 c 2,19,-1
 175 65 l 2,20,21
 169 38 169 38 153.5 18.5 c 128,-1,22
 138 -1 138 -1 109 -1 c 0,23,24
 78 -1 78 -1 70 18.5 c 128,-1,25
 62 38 62 38 68 65 c 2,26,-1
 156 485 l 2,27,28
 169 548 169 548 207 593.5 c 128,-1,29
 245 639 245 639 295.5 667 c 128,-1,30
 346 695 346 695 404.5 708.5 c 128,-1,31
 463 722 463 722 519 722 c 0,32,33
 577 722 577 722 631 708.5 c 128,-1,34
 685 695 685 695 723.5 665 c 128,-1,35
 762 635 762 635 778 588.5 c 128,-1,36
 794 542 794 542 779 476 c 0,37,38
 765 412 765 412 731.5 370.5 c 128,-1,39
 698 329 698 329 654.5 303.5 c 128,-1,40
 611 278 611 278 562 268 c 128,-1,41
 513 258 513 258 465 258.5 c 128,-1,42
 417 259 417 259 376.5 270 c 128,-1,43
 336 281 336 281 311 299 c 0,0,1
EndSplineSet
EndChar
StartChar: Q
Encoding: 81 81 50
Width: 802
VWidth: 1473
Flags: W
HStem: -6 105<345.788 512.324> 197 93<371.74 512.666> 610 112<422.496 623.116>
Fore
832 358 m 0,0,1
 807 236 807 236 715 140 c 1,2,3
 725 116 725 116 736 84.5 c 128,-1,4
 747 53 747 53 750 24 c 0,5,6
 754 -21 754 -21 709 -38 c 0,7,8
 681 -49 681 -49 666 -36.5 c 128,-1,9
 651 -24 651 -24 648 -1 c 0,10,11
 647 15 647 15 639.5 35 c 128,-1,12
 632 55 632 55 628 66 c 1,13,14
 576 34 576 34 515.5 14 c 128,-1,15
 455 -6 455 -6 401 -6 c 0,16,17
 327 -6 327 -6 268 23.5 c 128,-1,18
 209 53 209 53 171.5 103 c 128,-1,19
 134 153 134 153 120 218.5 c 128,-1,20
 106 284 106 284 122 358 c 0,21,22
 138 433 138 433 177.5 498.5 c 128,-1,23
 217 564 217 564 273.5 614 c 128,-1,24
 330 664 330 664 402 693 c 128,-1,25
 474 722 474 722 555 722 c 0,26,27
 629 722 629 722 687 692.5 c 128,-1,28
 745 663 745 663 783 613 c 128,-1,29
 821 563 821 563 834 496.5 c 128,-1,30
 847 430 847 430 832 358 c 0,0,1
720 358 m 0,31,32
 731 408 731 408 722 454.5 c 128,-1,33
 713 501 713 501 688 535 c 128,-1,34
 663 569 663 569 622.5 589.5 c 128,-1,35
 582 610 582 610 530 610 c 0,36,37
 471 610 471 610 421 589.5 c 128,-1,38
 371 569 371 569 333.5 533.5 c 128,-1,39
 296 498 296 498 270.5 452.5 c 128,-1,40
 245 407 245 407 234 358 c 0,41,42
 215 267 215 267 259 197 c 1,43,44
 298 236 298 236 360.5 265.5 c 128,-1,45
 423 295 423 295 505 290 c 0,46,47
 516 290 516 290 533.5 288 c 128,-1,48
 551 286 551 286 572.5 279.5 c 128,-1,49
 594 273 594 273 616.5 261.5 c 128,-1,50
 639 250 639 250 660 233 c 1,51,52
 685 262 685 262 699 292.5 c 128,-1,53
 713 323 713 323 720 358 c 0,31,32
594 156 m 1,54,55
 567 180 567 180 535.5 188.5 c 128,-1,56
 504 197 504 197 471 197 c 0,57,58
 410 197 410 197 370.5 176.5 c 128,-1,59
 331 156 331 156 309 134 c 1,60,61
 320 125 320 125 345 113.5 c 128,-1,62
 370 102 370 102 421 99 c 0,63,64
 476 96 476 96 513.5 111.5 c 128,-1,65
 551 127 551 127 594 156 c 1,54,55
EndSplineSet
EndChar
StartChar: R
Encoding: 82 82 51
Width: 746
VWidth: 1473
Flags: W
HStem: -1 21G<100.5 131> 617 105<469.5 566.416>
Fore
318 299 m 0,0,1
 302 311 302 311 293 328 c 128,-1,2
 284 345 284 345 301 370 c 0,3,4
 318 396 318 396 340 400 c 128,-1,5
 362 404 362 404 383 392 c 0,6,7
 411 376 411 376 453.5 367 c 128,-1,8
 496 358 496 358 539 363 c 128,-1,9
 582 368 582 368 619 391.5 c 128,-1,10
 656 415 656 415 673 467 c 0,11,12
 682 495 682 495 677.5 523 c 128,-1,13
 673 551 673 551 653 572.5 c 128,-1,14
 633 594 633 594 595.5 606.5 c 128,-1,15
 558 619 558 619 504 617 c 0,16,17
 401 614 401 614 342.5 576.5 c 128,-1,18
 284 539 284 539 264 448 c 2,19,-1
 183 65 l 2,20,21
 177 38 177 38 161.5 18.5 c 128,-1,22
 146 -1 146 -1 116 -1 c 0,23,24
 85 -1 85 -1 77 18.5 c 128,-1,25
 69 38 69 38 75 65 c 2,26,-1
 164 485 l 2,27,28
 177 548 177 548 214.5 593.5 c 128,-1,29
 252 639 252 639 303 667 c 128,-1,30
 354 695 354 695 412 708.5 c 128,-1,31
 470 722 470 722 526 722 c 0,32,33
 575 722 575 722 627 711 c 128,-1,34
 679 700 679 700 720.5 672.5 c 128,-1,35
 762 645 762 645 782.5 598 c 128,-1,36
 803 551 803 551 788 479 c 0,37,38
 776 426 776 426 749 385.5 c 128,-1,39
 722 345 722 345 686 318.5 c 128,-1,40
 650 292 650 292 609.5 278.5 c 128,-1,41
 569 265 569 265 532 265 c 1,42,43
 569 234 569 234 605 185 c 128,-1,44
 641 136 641 136 663 72 c 0,45,46
 670 52 670 52 664.5 29 c 128,-1,47
 659 6 659 6 625 -6 c 0,48,49
 611 -12 611 -12 598 -9 c 0,50,51
 586 -7 586 -7 576 1 c 128,-1,52
 566 9 566 9 558 29 c 0,53,54
 541 75 541 75 510.5 115 c 128,-1,55
 480 155 480 155 446 189.5 c 128,-1,56
 412 224 412 224 377.5 251 c 128,-1,57
 343 278 343 278 318 299 c 0,0,1
EndSplineSet
EndChar
StartChar: S
Encoding: 83 83 52
Width: 685
VWidth: 1473
Flags: W
HStem: -9 112<300.787 407.654> 299.5 118.5<349.629 398.577 398.577 438.485 438.485 470 470 490.768> 611 111<423.795 536.66>
Fore
687 211 m 0,0,1
 675 153 675 153 640 112 c 128,-1,2
 605 71 605 71 557.5 44.5 c 128,-1,3
 510 18 510 18 453 4.5 c 128,-1,4
 396 -9 396 -9 340 -9 c 0,5,6
 293 -9 293 -9 249.5 0 c 128,-1,7
 206 9 206 9 171 25 c 128,-1,8
 136 41 136 41 110 64.5 c 128,-1,9
 84 88 84 88 74 118 c 0,10,11
 66 137 66 137 76.5 159 c 128,-1,12
 87 181 87 181 109 193 c 0,13,14
 133 205 133 205 153.5 199.5 c 128,-1,15
 174 194 174 194 181 174 c 0,16,17
 187 158 187 158 204.5 144.5 c 128,-1,18
 222 131 222 131 247.5 122 c 128,-1,19
 273 113 273 113 303 108 c 128,-1,20
 333 103 333 103 364 103 c 0,21,22
 396 103 396 103 431 108 c 128,-1,23
 466 113 466 113 496 125 c 128,-1,24
 526 137 526 137 547.5 158.5 c 128,-1,25
 569 180 569 180 576 211 c 0,26,27
 582 239 582 239 568 257 c 128,-1,28
 554 275 554 275 528 285.5 c 128,-1,29
 502 296 502 296 470 299.5 c 128,-1,30
 438 303 438 303 407 303 c 0,31,32
 354 303 354 303 303 314.5 c 128,-1,33
 252 326 252 326 213.5 350 c 128,-1,34
 175 374 175 374 155.5 412.5 c 128,-1,35
 136 451 136 451 147 504 c 0,36,37
 159 561 159 561 194.5 602.5 c 128,-1,38
 230 644 230 644 278 670.5 c 128,-1,39
 326 697 326 697 383 709.5 c 128,-1,40
 440 722 440 722 496 722 c 0,41,42
 544 722 544 722 586.5 713 c 128,-1,43
 629 704 629 704 664.5 688 c 128,-1,44
 700 672 700 672 725 649 c 128,-1,45
 750 626 750 626 762 597 c 0,46,47
 769 576 769 576 758.5 554 c 128,-1,48
 748 532 748 532 726 520 c 0,49,50
 703 508 703 508 682 514 c 128,-1,51
 661 520 661 520 654 541 c 0,52,53
 648 557 648 557 630.5 570 c 128,-1,54
 613 583 613 583 588.5 592 c 128,-1,55
 564 601 564 601 534 606 c 128,-1,56
 504 611 504 611 473 611 c 0,57,58
 440 611 440 611 404 607 c 128,-1,59
 368 603 368 603 337 591 c 128,-1,60
 306 579 306 579 283.5 558.5 c 128,-1,61
 261 538 261 538 253 505 c 0,62,63
 247 476 247 476 262.5 458 c 128,-1,64
 278 440 278 440 305.5 430.5 c 128,-1,65
 333 421 333 421 367 418 c 128,-1,66
 401 415 401 415 430 415 c 0,67,68
 485 415 485 415 536.5 404 c 128,-1,69
 588 393 588 393 625.5 369 c 128,-1,70
 663 345 663 345 680.5 306 c 128,-1,71
 698 267 698 267 687 211 c 0,0,1
EndSplineSet
EndChar
StartChar: T
Encoding: 84 84 53
Width: 651
VWidth: 1473
Flags: W
HStem: 0 21G<312.5 336.5> 608 114<508 525.242 525.242 573 573 597.132>
Fore
393 65 m 2,0,1
 386 28 386 28 366 14 c 128,-1,2
 346 0 346 0 327 0 c 0,3,4
 298 0 298 0 287.5 17.5 c 128,-1,5
 277 35 277 35 284 65 c 2,6,-1
 399 608 l 1,7,8
 345 601 345 601 297.5 585 c 128,-1,9
 250 569 250 569 225 545 c 0,10,11
 209 530 209 530 188.5 524.5 c 128,-1,12
 168 519 168 519 150 530 c 256,13,14
 133 542 133 542 132 564 c 128,-1,15
 131 586 131 586 147 607 c 0,16,17
 171 636 171 636 208 657.5 c 128,-1,18
 245 679 245 679 289.5 694 c 128,-1,19
 334 709 334 709 383.5 715.5 c 128,-1,20
 433 722 433 722 480 722 c 256,21,22
 527 722 527 722 573 715.5 c 128,-1,23
 619 709 619 709 657 694 c 128,-1,24
 695 679 695 679 722.5 657.5 c 128,-1,25
 750 636 750 636 762 607 c 0,26,27
 769 586 769 586 758.5 564 c 128,-1,28
 748 542 748 542 726 530 c 256,29,30
 704 519 704 519 685 524.5 c 128,-1,31
 666 530 666 530 657 545 c 0,32,33
 642 569 642 569 601 585 c 128,-1,34
 560 601 560 601 508 608 c 1,35,-1
 393 65 l 2,0,1
EndSplineSet
EndChar
StartChar: U
Encoding: 85 85 54
Width: 749
VWidth: 1473
Flags: W
HStem: -7 97<283.915 508.575>
VStem: 626 112<202.609 259 259 279.056>
Fore
779 466 m 2,0,1
 768 415 l 0,2,3
 757 364 757 364 752 337.5 c 128,-1,4
 747 311 747 311 742.5 294.5 c 128,-1,5
 738 278 738 278 738 277 c 0,6,7
 726 212 726 212 696 160 c 128,-1,8
 666 108 666 108 619 70 c 128,-1,9
 572 32 572 32 509 12.5 c 128,-1,10
 446 -7 446 -7 373 -7 c 0,11,12
 221 -7 221 -7 160 72.5 c 128,-1,13
 99 152 99 152 127 281 c 0,14,15
 138 333 138 333 151.5 397 c 128,-1,16
 165 461 165 461 177 517 c 0,17,18
 192 582 192 582 205 648 c 0,19,20
 211 676 211 676 228 694.5 c 128,-1,21
 245 713 245 713 274 713 c 0,22,23
 299 713 299 713 309.5 694 c 128,-1,24
 320 675 320 675 314 648 c 0,25,26
 311 639 311 639 302 595 c 0,27,28
 295 557 295 557 278.5 480.5 c 128,-1,29
 262 404 262 404 233 264 c 0,30,31
 196 90 196 90 392 90 c 0,32,33
 492 90 492 90 551 135 c 128,-1,34
 610 180 610 180 626 259 c 1,35,36
 626 262 626 262 631 287 c 128,-1,37
 636 312 636 312 644.5 350.5 c 128,-1,38
 653 389 653 389 663 434.5 c 128,-1,39
 673 480 673 480 682 522 c 128,-1,40
 691 564 691 564 698.5 598 c 128,-1,41
 706 632 706 632 709 648 c 0,42,43
 715 676 715 676 731.5 694.5 c 128,-1,44
 748 713 748 713 778 713 c 0,45,46
 803 713 803 713 813.5 694 c 128,-1,47
 824 675 824 675 818 648 c 2,48,-1
 779 466 l 2,0,1
EndSplineSet
EndChar
StartChar: V
Encoding: 86 86 55
Width: 655
VWidth: 1473
Flags: W
HStem: 3.5 90<294.344 309.417 309.417 332.031 320.724 370.182>
VStem: 158 109.5<170.99 295.308 295.308 419.246 419.246 627.615 627.615 696.144>
Fore
768 641 m 0,0,1
 766 635 766 635 747 588 c 0,2,3
 731 548 731 548 693.5 460.5 c 128,-1,4
 656 373 656 373 586 212 c 0,5,6
 555 140 555 140 521.5 97.5 c 128,-1,7
 488 55 488 55 454 32.5 c 128,-1,8
 420 10 420 10 387 3.5 c 128,-1,9
 354 -3 354 -3 326 -3 c 256,10,11
 298 -3 298 -3 267.5 3.5 c 128,-1,12
 237 10 237 10 213 32.5 c 128,-1,13
 189 55 189 55 173.5 97.5 c 128,-1,14
 158 140 158 140 158 212 c 2,15,-1
 158 644 l 2,16,17
 158 695 158 695 209 713 c 0,18,19
 239 722 239 722 254.5 703 c 128,-1,20
 270 684 270 684 268 654 c 1,21,22
 267 647 267 647 267 600 c 0,23,24
 267 579 267 579 267 548 c 128,-1,25
 267 517 267 517 267 472 c 128,-1,26
 267 427 267 427 267.5 366 c 128,-1,27
 268 305 268 305 268 224 c 0,28,29
 268 178 268 178 275.5 151.5 c 128,-1,30
 283 125 283 125 294 111 c 128,-1,31
 305 97 305 97 319 93.5 c 128,-1,32
 333 90 333 90 345 90 c 256,33,34
 357 90 357 90 372 93.5 c 128,-1,35
 387 97 387 97 405 111 c 128,-1,36
 423 125 423 125 442 151.5 c 128,-1,37
 461 178 461 178 482 225 c 2,38,-1
 504 278 l 2,39,40
 520 318 520 318 557 406 c 128,-1,41
 594 494 594 494 663 656 c 0,42,43
 675 684 675 684 697.5 703.5 c 128,-1,44
 720 723 720 723 747 713 c 0,45,46
 790 697 790 697 768 641 c 0,0,1
EndSplineSet
EndChar
StartChar: W
Encoding: 87 87 56
Width: 997
VWidth: 1473
Flags: W
HStem: -12 109<243.448 372.291 661.085 796.19> 702 20G<244 268 634 658.5 1024.5 1049.5>
Fore
1078 656 m 2,0,-1
 987 225 l 2,1,2
 974 166 974 166 946 122 c 128,-1,3
 918 78 918 78 878 48 c 128,-1,4
 838 18 838 18 789 3 c 128,-1,5
 740 -12 740 -12 685 -12 c 256,6,7
 631 -12 631 -12 580 14 c 128,-1,8
 529 40 529 40 514 85 c 1,9,10
 496 63 496 63 470.5 45 c 128,-1,11
 445 27 445 27 415.5 14 c 128,-1,12
 386 1 386 1 356 -5.5 c 128,-1,13
 326 -12 326 -12 301 -12 c 0,14,15
 247 -12 247 -12 204.5 2 c 128,-1,16
 162 16 162 16 134 45.5 c 128,-1,17
 106 75 106 75 95 120 c 128,-1,18
 84 165 84 165 97 225 c 2,19,-1
 189 656 l 2,20,21
 194 684 194 684 212 703 c 128,-1,22
 230 722 230 722 258 722 c 0,23,24
 278 722 278 722 292 707 c 128,-1,25
 306 692 306 692 299 656 c 2,26,-1
 208 225 l 2,27,28
 203 205 203 205 203 182 c 128,-1,29
 203 159 203 159 214 140.5 c 128,-1,30
 225 122 225 122 251 109.5 c 128,-1,31
 277 97 277 97 324 97 c 0,32,33
 380 97 380 97 428 132.5 c 128,-1,34
 476 168 476 168 488 225 c 2,35,-1
 579 656 l 2,36,37
 585 682 585 682 602.5 702 c 128,-1,38
 620 722 620 722 648 722 c 0,39,40
 669 722 669 722 683 707 c 128,-1,41
 697 692 697 692 689 656 c 2,42,-1
 598 225 l 2,43,44
 588 178 588 178 604 151.5 c 128,-1,45
 620 125 620 125 643 113.5 c 128,-1,46
 666 102 666 102 686.5 99.5 c 128,-1,47
 707 97 707 97 709 97 c 0,48,49
 850 97 850 97 878 225 c 2,50,-1
 969 656 l 2,51,52
 975 684 975 684 992 703 c 128,-1,53
 1009 722 1009 722 1040 722 c 0,54,55
 1059 722 1059 722 1072.5 707 c 128,-1,56
 1086 692 1086 692 1078 656 c 2,0,-1
EndSplineSet
EndChar
StartChar: X
Encoding: 88 88 57
Width: 687
VWidth: 1473
Flags: W
Fore
791 681 m 0,0,1
 793 659 793 659 779 638 c 2,2,-1
 760 613 l 2,3,4
 745 594 745 594 716 555 c 128,-1,5
 687 516 687 516 631 443 c 0,6,7
 607 414 607 414 585 397 c 128,-1,8
 563 380 563 380 542 368 c 1,9,10
 558 355 558 355 571.5 338 c 128,-1,11
 585 321 585 321 597 290 c 2,12,13
 602 274 l 2,14,15
 607 258 607 258 613.5 234.5 c 128,-1,16
 620 211 620 211 628 183 c 128,-1,17
 636 155 636 155 643 130.5 c 128,-1,18
 650 106 650 106 654.5 90.5 c 128,-1,19
 659 75 659 75 659 74 c 2,20,21
 666 53 666 53 653.5 31.5 c 128,-1,22
 641 10 641 10 619 0 c 256,23,24
 597 -10 597 -10 576 -3 c 128,-1,25
 555 4 555 4 550 25 c 0,26,27
 535 80 535 80 522 124 c 0,28,29
 510 162 510 162 501 195 c 128,-1,30
 492 228 492 228 491 236 c 1,31,32
 479 262 479 262 469.5 277 c 128,-1,33
 460 292 460 292 450 300 c 128,-1,34
 440 308 440 308 430 309.5 c 128,-1,35
 420 311 420 311 408 311 c 256,36,37
 396 311 396 311 386 309.5 c 128,-1,38
 376 308 376 308 363.5 300 c 128,-1,39
 351 292 351 292 334.5 277 c 128,-1,40
 318 262 318 262 296 236 c 2,41,-1
 146 25 l 2,42,43
 131 4 131 4 108 -3 c 128,-1,44
 85 -10 85 -10 68 0 c 0,45,46
 47 10 47 10 44 31.5 c 128,-1,47
 41 53 41 53 57 74 c 2,48,49
 59 77 59 77 75 100 c 0,50,51
 90 121 90 121 121 164.5 c 128,-1,52
 152 208 152 208 209 289 c 0,53,54
 233 318 233 318 255.5 336.5 c 128,-1,55
 278 355 278 355 301 368 c 1,56,57
 284 380 284 380 268.5 397.5 c 128,-1,58
 253 415 253 415 243 445 c 2,59,-1
 234 468 l 2,60,61
 227 486 227 486 214.5 525 c 128,-1,62
 202 564 202 564 177 636 c 0,63,64
 169 657 169 657 181.5 679 c 128,-1,65
 194 701 194 701 218 713 c 0,66,67
 240 723 240 723 260.5 716 c 128,-1,68
 281 709 281 709 287 688 c 2,69,-1
 295 663 l 2,70,71
 301 644 301 644 313.5 604 c 128,-1,72
 326 564 326 564 351 491 c 0,73,74
 359 464 359 464 369 450 c 128,-1,75
 379 436 379 436 388.5 429.5 c 128,-1,76
 398 423 398 423 409 421.5 c 128,-1,77
 420 420 420 420 432 420 c 256,78,79
 443 420 443 420 454.5 421.5 c 128,-1,80
 466 423 466 423 479 429.5 c 128,-1,81
 492 436 492 436 507.5 451 c 128,-1,82
 523 466 523 466 544 492 c 0,83,84
 545 494 545 494 561 516 c 0,85,86
 575 533 575 533 605 573 c 128,-1,87
 635 613 635 613 691 688 c 0,88,89
 706 709 706 709 728.5 716 c 128,-1,90
 751 723 751 723 769 713 c 0,91,92
 790 700 790 700 791 681 c 0,0,1
EndSplineSet
EndChar
StartChar: Y
Encoding: 89 89 58
Width: 693
VWidth: 1473
Flags: W
HStem: -3 109<191.173 499.719> 209 109<328.861 504.48> 696 20G<246 275 720.5 748.5>
Fore
679 203 m 1,0,1
 667 152 667 152 640.5 113.5 c 128,-1,2
 614 75 614 75 578 49.5 c 128,-1,3
 542 24 542 24 501 10.5 c 128,-1,4
 460 -3 460 -3 418 -3 c 2,5,-1
 217 -3 l 2,6,7
 189 -3 189 -3 172.5 9.5 c 128,-1,8
 156 22 156 22 164 52 c 0,9,10
 169 81 169 81 190.5 93.5 c 128,-1,11
 212 106 212 106 240 106 c 2,12,-1
 442 106 l 2,13,14
 485 106 485 106 522.5 132.5 c 128,-1,15
 560 159 560 159 570 203 c 2,16,-1
 583 268 l 1,17,18
 544 236 544 236 493 222.5 c 128,-1,19
 442 209 442 209 390 209 c 0,20,21
 317 209 317 209 267 230.5 c 128,-1,22
 217 252 217 252 189 290.5 c 128,-1,23
 161 329 161 329 153.5 381 c 128,-1,24
 146 433 146 433 159 496 c 0,25,26
 171 550 l 128,-1,27
 177 577 177 577 181 600 c 2,28,-1
 192 651 l 2,29,30
 199 679 199 679 215 697.5 c 128,-1,31
 231 716 231 716 261 716 c 0,32,33
 289 716 289 716 298.5 697.5 c 128,-1,34
 308 679 308 679 301 651 c 2,35,-1
 265 492 l 2,36,37
 258 460 258 460 263 429 c 128,-1,38
 268 398 268 398 285.5 373.5 c 128,-1,39
 303 349 303 349 334 333.5 c 128,-1,40
 365 318 365 318 412 318 c 0,41,42
 486 318 486 318 543.5 350 c 128,-1,43
 601 382 601 382 623 452 c 0,44,45
 623 454 623 454 628 476 c 0,46,47
 631 495 631 495 639.5 535 c 128,-1,48
 648 575 648 575 664 651 c 0,49,50
 672 679 672 679 689 697.5 c 128,-1,51
 706 716 706 716 735 716 c 0,52,53
 762 716 762 716 771.5 697.5 c 128,-1,54
 781 679 781 679 773 651 c 2,55,-1
 679 203 l 1,0,1
EndSplineSet
EndChar
StartChar: Z
Encoding: 90 90 59
Width: 680
VWidth: 1473
Flags: W
HStem: -1 109<189.328 636.917> 608 109<202.082 661.648>
Fore
632 532 m 2,0,1
 647 539 647 539 655.5 553 c 128,-1,2
 664 567 664 567 663 579 c 0,3,4
 663 608 663 608 631 608 c 2,5,-1
 233 608 l 2,6,7
 206 608 206 608 189 621.5 c 128,-1,8
 172 635 172 635 178 661 c 0,9,10
 183 682 183 682 201.5 699.5 c 128,-1,11
 220 717 220 717 256 717 c 2,12,-1
 656 717 l 2,13,14
 717 717 717 717 746 682 c 128,-1,15
 775 647 775 647 773 603 c 0,16,17
 773 588 773 588 769 569 c 128,-1,18
 765 550 765 550 754.5 529 c 128,-1,19
 744 508 744 508 725 488 c 128,-1,20
 706 468 706 468 678 455 c 2,21,-1
 206 184 l 2,22,23
 193 177 193 177 183.5 163 c 128,-1,24
 174 149 174 149 175 137 c 0,25,26
 177 124 177 124 183.5 116 c 128,-1,27
 190 108 190 108 208 108 c 2,28,-1
 605 108 l 2,29,30
 632 108 632 108 649 94.5 c 128,-1,31
 666 81 666 81 660 55 c 0,32,33
 656 34 656 34 637.5 16.5 c 128,-1,34
 619 -1 619 -1 582 -1 c 2,35,-1
 183 -1 l 2,36,37
 121 -1 121 -1 92 34 c 128,-1,38
 63 69 63 69 65 113 c 0,39,40
 65 128 65 128 69.5 147 c 128,-1,41
 74 166 74 166 84 187 c 128,-1,42
 94 208 94 208 112.5 227.5 c 128,-1,43
 131 247 131 247 161 261 c 2,44,-1
 632 532 l 2,0,1
EndSplineSet
EndChar
StartChar: bracketleft
Encoding: 91 91 60
Width: 441
VWidth: 1473
Flags: W
HStem: -180 109<181 328.467> 653 109<336 483.727>
VStem: 62 465<-124 704 -124 -124>
Fore
352 -122 m 0,0,1
 346 -147 346 -147 329 -163.5 c 128,-1,2
 312 -180 312 -180 287 -180 c 2,3,-1
 99 -180 l 2,4,5
 69 -180 69 -180 62 -163 c 128,-1,6
 55 -146 55 -146 62 -124 c 2,7,-1
 237 706 l 2,8,9
 242 726 242 726 255 744 c 128,-1,10
 268 762 268 762 298 762 c 2,11,-1
 486 762 l 2,12,13
 511 762 511 762 522 745.5 c 128,-1,14
 533 729 533 729 527 704 c 0,15,16
 522 678 522 678 502.5 665.5 c 128,-1,17
 483 653 483 653 464 653 c 2,18,-1
 336 653 l 1,19,-1
 181 -71 l 1,20,-1
 309 -71 l 2,21,22
 329 -71 329 -71 343.5 -83.5 c 128,-1,23
 358 -96 358 -96 352 -122 c 0,0,1
EndSplineSet
EndChar
StartChar: backslash
Encoding: 92 92 61
Width: 366
VWidth: 1473
Flags: W
VStem: 130 259<69 669 669 669>
Fore
389 69 m 1,0,1
 395 49 395 49 384.5 29 c 128,-1,2
 374 9 374 9 354 0 c 256,3,4
 333 -9 333 -9 312.5 -1.5 c 128,-1,5
 292 6 292 6 286 27 c 2,6,-1
 130 669 l 2,7,8
 125 689 125 689 134 709 c 128,-1,9
 143 729 143 729 165 738 c 0,10,11
 186 748 186 748 207 739.5 c 128,-1,12
 228 731 228 731 233 713 c 2,13,-1
 389 69 l 1,0,1
EndSplineSet
EndChar
StartChar: bracketright
Encoding: 93 93 62
Width: 441
VWidth: 1473
Flags: W
HStem: -180 109<76.2733 224> 653 109<231.018 250 250 379>
VStem: 32 466<-122 706 -333 -204>
Fore
323 -124 m 1,0,1
 318 -146 318 -146 305 -163 c 128,-1,2
 292 -180 292 -180 262 -180 c 2,3,-1
 74 -180 l 2,4,5
 49 -180 49 -180 38 -163.5 c 128,-1,6
 27 -147 27 -147 32 -122 c 0,7,8
 38 -96 38 -96 57.5 -83.5 c 128,-1,9
 77 -71 77 -71 96 -71 c 2,10,-1
 224 -71 l 1,11,-1
 379 653 l 1,12,-1
 250 653 l 2,13,14
 231 653 231 653 216.5 665.5 c 128,-1,15
 202 678 202 678 208 704 c 0,16,17
 214 729 214 729 230.5 745.5 c 128,-1,18
 247 762 247 762 273 762 c 2,19,-1
 461 762 l 2,20,21
 491 762 491 762 496.5 744 c 128,-1,22
 502 726 502 726 498 706 c 2,23,-1
 323 -124 l 1,0,1
EndSplineSet
EndChar
StartChar: asciicircum
Encoding: 94 94 63
Width: 718
VWidth: 1473
Flags: W
HStem: 252.5 473.5<519 583.5 519 583.5 519 519>
VStem: 552 102<285.811 348.88>
Fore
628 259 m 0,0,1
 607 247 607 247 583.5 252.5 c 128,-1,2
 560 258 560 258 552 286 c 2,3,-1
 485 575 l 1,4,-1
 296 286 l 2,5,6
 277 261 277 261 254 255 c 128,-1,7
 231 249 231 249 212 261 c 0,8,9
 194 273 194 273 197 295.5 c 128,-1,10
 200 318 200 318 218 343 c 2,11,-1
 473 701 l 2,12,13
 485 716 485 716 496 721 c 128,-1,14
 507 726 507 726 519 726 c 256,15,16
 530 726 530 726 540 719.5 c 128,-1,17
 550 713 550 713 552 701 c 2,18,-1
 654 343 l 2,19,20
 661 318 661 318 655.5 294.5 c 128,-1,21
 650 271 650 271 628 259 c 0,0,1
EndSplineSet
EndChar
StartChar: underscore
Encoding: 95 95 64
Width: 736
VWidth: 1473
Flags: W
HStem: -169 95<-15 700>
Fore
-35 -169 m 1,0,-1
 -15 -74 l 1,1,-1
 720 -74 l 1,2,-1
 700 -169 l 1,3,-1
 -35 -169 l 1,0,-1
EndSplineSet
EndChar
StartChar: grave
Encoding: 96 96 65
Width: 343
VWidth: 1473
Flags: W
HStem: 435 282<285.019 309.859 270 330 330 330>
VStem: 230 141<499 653 439 499>
Fore
339 499 m 1,0,1
 331 463 331 463 310.5 449 c 128,-1,2
 290 435 290 435 270 435 c 0,3,4
 240 435 240 435 231 453 c 128,-1,5
 222 471 222 471 230 499 c 2,6,-1
 262 653 l 2,7,8
 268 681 268 681 284.5 699 c 128,-1,9
 301 717 301 717 330 717 c 0,10,11
 358 717 358 717 367.5 698 c 128,-1,12
 377 679 377 679 371 653 c 2,13,-1
 339 499 l 1,0,1
EndSplineSet
EndChar
StartChar: a
Encoding: 97 97 66
Width: 633
VWidth: 1473
Flags: W
HStem: -7 92<246.479 384.234> 273 95<297.454 443.834> 429 101<343.543 476.817>
VStem: 538 99.5<315.06 343.029 343.029 373>
Fore
579 46 m 2,0,1
 575 22 575 22 554 7.5 c 128,-1,2
 533 -7 533 -7 513 -7 c 256,3,4
 492 -7 492 -7 481.5 7.5 c 128,-1,5
 471 22 471 22 479 46 c 1,6,7
 445 19 445 19 395 6 c 128,-1,8
 345 -7 345 -7 295 -7 c 0,9,10
 180 -7 180 -7 122.5 40.5 c 128,-1,11
 65 88 65 88 84 178 c 0,12,13
 93 218 93 218 118.5 253.5 c 128,-1,14
 144 289 144 289 184 314 c 128,-1,15
 224 339 224 339 275 353.5 c 128,-1,16
 326 368 326 368 385 368 c 0,17,18
 440 368 440 368 484.5 352 c 128,-1,19
 529 336 529 336 538 314 c 1,20,21
 542 351 542 351 534 373 c 128,-1,22
 526 395 526 395 506 407.5 c 128,-1,23
 486 420 486 420 455 424.5 c 128,-1,24
 424 429 424 429 386 429 c 0,25,26
 342 429 342 429 303.5 418.5 c 128,-1,27
 265 408 265 408 233 392 c 0,28,29
 199 374 199 374 184 383 c 128,-1,30
 169 392 169 392 166 398 c 0,31,32
 153 418 153 418 165 441 c 128,-1,33
 177 464 177 464 200 477 c 0,34,35
 249 505 249 505 299 517.5 c 128,-1,36
 349 530 349 530 405 530 c 0,37,38
 482 530 482 530 531 514 c 128,-1,39
 580 498 580 498 606.5 467 c 128,-1,40
 633 436 633 436 637.5 391 c 128,-1,41
 642 346 642 346 631 289 c 2,42,-1
 579 46 l 2,0,1
504 177 m 0,43,44
 510 206 510 206 499.5 224.5 c 128,-1,45
 489 243 489 243 468.5 254 c 128,-1,46
 448 265 448 265 419 269 c 128,-1,47
 390 273 390 273 359 273 c 0,48,49
 333 273 333 273 304 267 c 128,-1,50
 275 261 275 261 251 250 c 128,-1,51
 227 239 227 239 209.5 222.5 c 128,-1,52
 192 206 192 206 187 184 c 0,53,54
 180 159 180 159 188.5 140.5 c 128,-1,55
 197 122 197 122 215.5 109.5 c 128,-1,56
 234 97 234 97 260 91 c 128,-1,57
 286 85 286 85 315 85 c 0,58,59
 387 85 387 85 441 110.5 c 128,-1,60
 495 136 495 136 504 177 c 0,43,44
EndSplineSet
Substitution2: "Single Substitution lookup 22 subtable" uni0E38
Substitution2: "Single Substitution lookup 22 subtable" uni0E38
EndChar
StartChar: b
Encoding: 98 98 67
Width: 674
VWidth: 1473
Flags: W
HStem: -7 109<270.993 468.178> 417 107<343.167 526.715> 815 20G<286.5 309>
Fore
75 44 m 0,0,1
 103 177 103 177 125 279.5 c 128,-1,2
 147 382 147 382 163.5 458.5 c 128,-1,3
 180 535 180 535 191 588.5 c 128,-1,4
 202 642 202 642 209 678 c 2,5,-1
 230 781 l 2,6,7
 234 803 234 803 254.5 819 c 128,-1,8
 275 835 275 835 298 835 c 256,9,10
 320 835 320 835 331.5 819 c 128,-1,11
 343 803 343 803 339 781 c 2,12,-1
 273 468 l 1,13,14
 305 492 305 492 347.5 508 c 128,-1,15
 390 524 390 524 457 524 c 0,16,17
 522 524 522 524 569.5 504.5 c 128,-1,18
 617 485 617 485 645 449.5 c 128,-1,19
 673 414 673 414 682 365.5 c 128,-1,20
 691 317 691 317 679 259 c 256,21,22
 667 202 667 202 637.5 153.5 c 128,-1,23
 608 105 608 105 565.5 68.5 c 128,-1,24
 523 32 523 32 466.5 12.5 c 128,-1,25
 410 -7 410 -7 343 -7 c 0,26,27
 292 -7 292 -7 250 7 c 128,-1,28
 208 21 208 21 183 50 c 1,29,30
 178 28 178 28 162 9.5 c 128,-1,31
 146 -9 146 -9 118 -9 c 0,32,33
 96 -9 96 -9 83.5 6.5 c 128,-1,34
 71 22 71 22 75 44 c 0,0,1
228 259 m 1,35,36
 211 177 211 177 250 139.5 c 128,-1,37
 289 102 289 102 367 102 c 256,38,39
 445 102 445 102 501 141 c 128,-1,40
 557 180 557 180 573 259 c 0,41,42
 589 333 589 333 551.5 375 c 128,-1,43
 514 417 514 417 435 417 c 0,44,45
 367 417 367 417 307 378 c 128,-1,46
 247 339 247 339 228 261 c 1,47,-1
 228 259 l 1,35,36
EndSplineSet
Substitution2: "Single Substitution lookup 22 subtable" uni0E39
Substitution2: "Single Substitution lookup 22 subtable" uni0E39
EndChar
StartChar: c
Encoding: 99 99 68
Width: 595
VWidth: 1473
Flags: W
Fore
560 82 m 0,0,1
 542 60 542 60 512.5 41 c 128,-1,2
 483 22 483 22 447 9 c 128,-1,3
 411 -4 411 -4 368.5 -10 c 128,-1,4
 326 -16 326 -16 281 -9 c 0,5,6
 171 7 171 7 124.5 75 c 128,-1,7
 78 143 78 143 102 253 c 0,8,9
 115 320 115 320 147.5 367.5 c 128,-1,10
 180 415 180 415 220.5 448.5 c 128,-1,11
 261 482 261 482 306.5 500.5 c 128,-1,12
 352 519 352 519 395 524 c 0,13,14
 442 530 442 530 482 524.5 c 128,-1,15
 522 519 522 519 552.5 505.5 c 128,-1,16
 583 492 583 492 604.5 473 c 128,-1,17
 626 454 626 454 635 432 c 0,18,19
 642 412 642 412 632.5 391 c 128,-1,20
 623 370 623 370 603 358 c 256,21,22
 582 346 582 346 561.5 351.5 c 128,-1,23
 541 357 541 357 533 376 c 0,24,25
 530 382 530 382 519 392 c 128,-1,26
 508 402 508 402 489.5 409.5 c 128,-1,27
 471 417 471 417 445.5 421.5 c 128,-1,28
 420 426 420 426 387 421 c 0,29,30
 374 420 374 420 348.5 412.5 c 128,-1,31
 323 405 323 405 295.5 386 c 128,-1,32
 268 367 268 367 243 335 c 128,-1,33
 218 303 218 303 208 253 c 0,34,35
 193 186 193 186 220 144.5 c 128,-1,36
 247 103 247 103 318 91 c 0,37,38
 349 87 349 87 376.5 91.5 c 128,-1,39
 404 96 404 96 426 104.5 c 128,-1,40
 448 113 448 113 462.5 123 c 128,-1,41
 477 133 477 133 483 140 c 0,42,43
 499 158 499 158 521.5 163 c 128,-1,44
 544 168 544 168 560 156 c 256,45,46
 576 144 576 144 576 123 c 128,-1,47
 576 102 576 102 560 82 c 0,0,1
EndSplineSet
Substitution2: "Single Substitution lookup 22 subtable" uni0E3A
Substitution2: "Single Substitution lookup 22 subtable" uni0E3A
EndChar
StartChar: d
Encoding: 100 100 69
Width: 674
VWidth: 1473
Flags: W
HStem: -7 109<253.461 432.707> 417 107<316.165 479.033> 815 20G<718 740>
Fore
616 44 m 0,0,1
 611 22 611 22 591.5 6.5 c 128,-1,2
 572 -9 572 -9 550 -9 c 0,3,4
 522 -9 522 -9 513 9.5 c 128,-1,5
 504 28 504 28 511 50 c 1,6,7
 473 21 473 21 424.5 7 c 128,-1,8
 376 -7 376 -7 324 -7 c 0,9,10
 258 -7 258 -7 210 12.5 c 128,-1,11
 162 32 162 32 135 68.5 c 128,-1,12
 108 105 108 105 99.5 153.5 c 128,-1,13
 91 202 91 202 103 259 c 256,14,15
 115 317 115 317 144.5 365.5 c 128,-1,16
 174 414 174 414 217.5 449.5 c 128,-1,17
 261 485 261 485 317 504.5 c 128,-1,18
 373 524 373 524 438 524 c 0,19,20
 504 524 504 524 540.5 508 c 128,-1,21
 577 492 577 492 598 468 c 1,22,-1
 664 781 l 2,23,24
 669 803 669 803 688 819 c 128,-1,25
 707 835 707 835 729 835 c 256,26,27
 751 835 751 835 763.5 819 c 128,-1,28
 776 803 776 803 772 781 c 0,29,30
 768 762 768 762 750 678 c 0,31,32
 742 642 742 642 730.5 588.5 c 128,-1,33
 719 535 719 535 703 458.5 c 128,-1,34
 687 382 687 382 665.5 279.5 c 128,-1,35
 644 177 644 177 616 44 c 0,0,1
554 261 m 1,36,37
 561 299 561 299 553 328.5 c 128,-1,38
 545 358 545 358 526 378 c 128,-1,39
 507 398 507 398 478 407.5 c 128,-1,40
 449 417 449 417 415 417 c 0,41,42
 336 417 336 417 280.5 375 c 128,-1,43
 225 333 225 333 209 259 c 0,44,45
 193 180 193 180 231.5 141 c 128,-1,46
 270 102 270 102 348 102 c 256,47,48
 426 102 426 102 481 139.5 c 128,-1,49
 536 177 536 177 554 259 c 1,50,-1
 554 261 l 1,36,37
EndSplineSet
EndChar
StartChar: e
Encoding: 101 101 70
Width: 645
VWidth: 1473
Flags: W
HStem: -7 97<256.08 441.105> 222 98<233 556.25> 436 96<356.208 513.489>
VStem: 557 102.5<320.357 391.55>
Fore
641 271 m 0,0,1
 620 242 620 242 590 232 c 128,-1,2
 560 222 560 222 530 222 c 2,3,-1
 205 222 l 1,4,5
 197 158 197 158 238.5 124 c 128,-1,6
 280 90 280 90 346 90 c 0,7,8
 395 90 395 90 431 102.5 c 128,-1,9
 467 115 467 115 492 136 c 0,10,11
 519 158 519 158 538.5 158.5 c 128,-1,12
 558 159 558 159 570 147 c 0,13,14
 586 133 586 133 579.5 108.5 c 128,-1,15
 573 84 573 84 551 68 c 0,16,17
 507 34 507 34 454 13.5 c 128,-1,18
 401 -7 401 -7 327 -7 c 0,19,20
 264 -7 264 -7 216 10 c 128,-1,21
 168 27 168 27 139 61.5 c 128,-1,22
 110 96 110 96 100.5 146.5 c 128,-1,23
 91 197 91 197 106 265 c 0,24,25
 119 326 119 326 151 375 c 128,-1,26
 183 424 183 424 228 459 c 128,-1,27
 273 494 273 494 328 513 c 128,-1,28
 383 532 383 532 442 532 c 0,29,30
 517 532 517 532 560 508.5 c 128,-1,31
 603 485 603 485 623 460 c 0,32,33
 645 430 645 430 652.5 401.5 c 128,-1,34
 660 373 660 373 659.5 347 c 128,-1,35
 659 321 659 321 653 301 c 128,-1,36
 647 281 647 281 641 271 c 0,0,1
557 320 m 1,37,38
 557 367 557 367 528 401.5 c 128,-1,39
 499 436 499 436 424 436 c 0,40,41
 383 436 383 436 350 424 c 128,-1,42
 317 412 317 412 292.5 394.5 c 128,-1,43
 268 377 268 377 252.5 356.5 c 128,-1,44
 237 336 237 336 233 320 c 1,45,-1
 557 320 l 1,37,38
EndSplineSet
EndChar
StartChar: f
Encoding: 102 102 71
Width: 371
VWidth: 1473
Flags: W
HStem: -4 21G<113.5 137.5> 420 107<331.08 431.918> 737 107<373.83 587.918>
Fore
611 791 m 0,0,1
 607 770 607 770 588.5 753.5 c 128,-1,2
 570 737 570 737 536 737 c 2,3,-1
 442 737 l 2,4,5
 390 737 390 737 358 706 c 128,-1,6
 326 675 326 675 315 625 c 2,7,-1
 287 496 l 1,8,9
 295 513 295 513 317.5 520 c 128,-1,10
 340 527 340 527 365 527 c 2,11,-1
 402 527 l 2,12,13
 436 527 436 527 446.5 509.5 c 128,-1,14
 457 492 457 492 454 477 c 0,15,16
 451 457 451 457 432.5 438.5 c 128,-1,17
 414 420 414 420 379 420 c 2,18,-1
 333 420 l 2,19,20
 292 420 292 420 277 399.5 c 128,-1,21
 262 379 262 379 258 354 c 2,22,-1
 194 60 l 2,23,24
 187 25 187 25 167 10.5 c 128,-1,25
 147 -4 147 -4 128 -4 c 0,26,27
 99 -4 99 -4 90.5 15.5 c 128,-1,28
 82 35 82 35 88 60 c 2,29,-1
 209 625 l 2,30,31
 218 670 218 670 241 710.5 c 128,-1,32
 264 751 264 751 297 780.5 c 128,-1,33
 330 810 330 810 372.5 827 c 128,-1,34
 415 844 415 844 464 844 c 2,35,-1
 558 844 l 2,36,37
 583 844 583 844 600 831.5 c 128,-1,38
 617 819 617 819 611 791 c 0,0,1
EndSplineSet
EndChar
StartChar: g
Encoding: 103 103 72
Width: 667
VWidth: 1473
Flags: W
HStem: -261.5 106.5<262.719 328.691> -1 109<254.594 427.972> 423 109<318.082 505.447>
Fore
604 -6 m 0,0,1
 583 -97 583 -97 521.5 -161 c 128,-1,2
 460 -225 460 -225 367 -250 c 0,3,4
 323 -262 323 -262 280 -261.5 c 128,-1,5
 237 -261 237 -261 201 -250.5 c 128,-1,6
 165 -240 165 -240 139 -220 c 128,-1,7
 113 -200 113 -200 103 -172 c 0,8,9
 94 -153 94 -153 102 -134 c 128,-1,10
 110 -115 110 -115 131 -103 c 0,11,12
 152 -88 152 -88 175.5 -94 c 128,-1,13
 199 -100 199 -100 205 -119 c 1,14,15
 209 -128 209 -128 223 -137 c 128,-1,16
 237 -146 237 -146 257.5 -150.5 c 128,-1,17
 278 -155 278 -155 304.5 -155 c 128,-1,18
 331 -155 331 -155 361 -147 c 0,19,20
 380 -143 380 -143 401.5 -133.5 c 128,-1,21
 423 -124 423 -124 441.5 -107 c 128,-1,22
 460 -90 460 -90 475.5 -65.5 c 128,-1,23
 491 -41 491 -41 498 -6 c 2,24,-1
 513 65 l 1,25,26
 470 31 470 31 421.5 15 c 128,-1,27
 373 -1 373 -1 326 -1 c 0,28,29
 197 -1 197 -1 137.5 71.5 c 128,-1,30
 78 144 78 144 103 265 c 0,31,32
 116 327 116 327 147 377 c 128,-1,33
 178 427 178 427 222.5 461 c 128,-1,34
 267 495 267 495 322 513.5 c 128,-1,35
 377 532 377 532 439 532 c 0,36,37
 489 532 489 532 531 516.5 c 128,-1,38
 573 501 573 501 600 473 c 1,39,40
 603 494 603 494 619 513.5 c 128,-1,41
 635 533 635 533 664 533 c 256,42,43
 694 533 694 533 703 511 c 128,-1,44
 712 489 712 489 704 468 c 1,45,46
 701 454 701 454 689 398 c 0,47,48
 679 351 679 351 659 256 c 128,-1,49
 639 161 639 161 604 -6 c 0,0,1
555 265 m 0,50,51
 569 331 569 331 532.5 377 c 128,-1,52
 496 423 496 423 417 423 c 256,53,54
 337 423 337 423 281 383 c 128,-1,55
 225 343 225 343 209 265 c 0,56,57
 192 184 192 184 231.5 146 c 128,-1,58
 271 108 271 108 349 108 c 0,59,60
 436 108 436 108 488.5 152.5 c 128,-1,61
 541 197 541 197 555 265 c 0,50,51
EndSplineSet
EndChar
StartChar: h
Encoding: 104 104 73
Width: 662
VWidth: 1473
Flags: W
HStem: -7 21G<104.5 127 530 552> 421 109<396.063 492.438> 836 20G<289 311>
VStem: 552.5 106<276.811 380.373>
Fore
605 47 m 1,0,1
 601 25 601 25 582 9 c 128,-1,2
 563 -7 563 -7 541 -7 c 256,3,4
 519 -7 519 -7 507 10 c 128,-1,5
 495 27 495 27 499 47 c 2,6,-1
 547 264 l 2,7,8
 554 302 554 302 552.5 331.5 c 128,-1,9
 551 361 551 361 536.5 381 c 128,-1,10
 522 401 522 401 494 411 c 128,-1,11
 466 421 466 421 420 421 c 0,12,13
 389 421 389 421 358 410 c 128,-1,14
 327 399 327 399 300.5 378.5 c 128,-1,15
 274 358 274 358 255 328.5 c 128,-1,16
 236 299 236 299 230 264 c 0,17,18
 228 259 228 259 222 234 c 0,19,20
 218 214 218 214 208.5 170.5 c 128,-1,21
 199 127 199 127 181 47 c 0,22,23
 177 25 177 25 157.5 9 c 128,-1,24
 138 -7 138 -7 116 -7 c 0,25,26
 93 -7 93 -7 82 9 c 128,-1,27
 71 25 71 25 75 47 c 2,28,-1
 236 803 l 2,29,30
 242 826 242 826 259.5 841 c 128,-1,31
 277 856 277 856 301 856 c 0,32,33
 321 856 321 856 334.5 840.5 c 128,-1,34
 348 825 348 825 342 803 c 2,35,-1
 270 458 l 1,36,37
 283 473 283 473 303.5 486 c 128,-1,38
 324 499 324 499 347.5 509 c 128,-1,39
 371 519 371 519 396 524.5 c 128,-1,40
 421 530 421 530 443 530 c 0,41,42
 511 530 511 530 557 510.5 c 128,-1,43
 603 491 603 491 628 455.5 c 128,-1,44
 653 420 653 420 658.5 370.5 c 128,-1,45
 664 321 664 321 653 264 c 2,46,-1
 605 47 l 1,0,1
EndSplineSet
EndChar
StartChar: i
Encoding: 105 105 74
Width: 237
VWidth: 1473
Flags: W
HStem: 585 132<217.144 292.857>
VStem: 78 243<59 653 265.503 284.226>
Fore
183 59 m 2,0,-1
 268 463 l 2,1,2
 275 491 275 491 267 509 c 128,-1,3
 259 527 259 527 231 527 c 0,4,5
 202 527 202 527 185.5 508 c 128,-1,6
 169 489 169 489 164 463 c 2,7,-1
 78 59 l 2,8,9
 72 32 72 32 80 13 c 128,-1,10
 88 -6 88 -6 118 -6 c 0,11,12
 137 -6 137 -6 156 9 c 128,-1,13
 175 24 175 24 183 59 c 2,0,-1
321 653 m 0,14,15
 314 622 314 622 293.5 603.5 c 128,-1,16
 273 585 273 585 242 585 c 0,17,18
 209 585 209 585 196 603.5 c 128,-1,19
 183 622 183 622 190 653 c 0,20,21
 196 682 196 682 216.5 699.5 c 128,-1,22
 237 717 237 717 270 717 c 0,23,24
 295 717 295 717 312 703 c 128,-1,25
 329 689 329 689 321 653 c 0,14,15
EndSplineSet
EndChar
StartChar: j
Encoding: 106 106 75
Width: 238
VWidth: 1473
Flags: W
HStem: -303 106<-102.436 -25.2507> 586 133<217.628 292.857>
VStem: -127 448<-250 654 -250 343.012>
Fore
158 -68 m 2,0,-1
 271 466 l 2,1,2
 277 492 277 492 267.5 510.5 c 128,-1,3
 258 529 258 529 231 529 c 256,4,5
 205 529 205 529 188 510 c 128,-1,6
 171 491 171 491 165 466 c 2,7,-1
 52 -68 l 2,8,9
 44 -102 44 -102 36.5 -126 c 128,-1,10
 29 -150 29 -150 17.5 -166.5 c 128,-1,11
 6 -183 6 -183 -13 -190 c 128,-1,12
 -32 -197 -32 -197 -62 -197 c 0,13,14
 -85 -197 -85 -197 -103 -212 c 128,-1,15
 -121 -227 -121 -227 -127 -250 c 0,16,17
 -131 -273 -131 -273 -118.5 -288 c 128,-1,18
 -106 -303 -106 -303 -84 -303 c 0,19,20
 22 -303 22 -303 78 -240.5 c 128,-1,21
 134 -178 134 -178 158 -68 c 2,0,-1
321 654 m 0,22,23
 314 623 314 623 293.5 604.5 c 128,-1,24
 273 586 273 586 242 586 c 0,25,26
 209 586 209 586 196 604.5 c 128,-1,27
 183 623 183 623 190 654 c 0,28,29
 197 684 197 684 217 701.5 c 128,-1,30
 237 719 237 719 270 719 c 0,31,32
 295 719 295 719 312 705 c 128,-1,33
 329 691 329 691 321 654 c 0,22,23
EndSplineSet
EndChar
StartChar: k
Encoding: 107 107 76
Width: 561
VWidth: 1473
Flags: W
HStem: -7 21G<100 124.5> 818 20G<280 309>
VStem: 449 108<14.5637 35 35 187.492>
Fore
657 504 m 0,0,1
 664 488 664 488 658.5 471 c 128,-1,2
 653 454 653 454 635 439 c 1,3,-1
 635 440 l 1,4,5
 631 436 631 436 620.5 431 c 128,-1,6
 610 426 610 426 590 415.5 c 128,-1,7
 570 405 570 405 537.5 390.5 c 128,-1,8
 505 376 505 376 458 354 c 1,9,10
 501 309 501 309 530.5 230.5 c 128,-1,11
 560 152 560 152 557 55 c 0,12,13
 555 32 555 32 539.5 14 c 128,-1,14
 524 -4 524 -4 501 -7 c 0,15,16
 479 -12 479 -12 462.5 0.5 c 128,-1,17
 446 13 446 13 449 35 c 0,18,19
 451 127 451 127 423 199 c 128,-1,20
 395 271 395 271 352 305 c 1,21,-1
 221 237 l 1,22,-1
 183 59 l 2,23,24
 175 22 175 22 154.5 7.5 c 128,-1,25
 134 -7 134 -7 115 -7 c 0,26,27
 85 -7 85 -7 78 12.5 c 128,-1,28
 71 32 71 32 77 57 c 2,29,-1
 228 773 l 2,30,31
 234 800 234 800 249.5 819 c 128,-1,32
 265 838 265 838 295 838 c 0,33,34
 323 838 323 838 331.5 819.5 c 128,-1,35
 340 801 340 801 334 773 c 0,36,37
 331 757 331 757 321 709 c 0,38,39
 312 666 312 666 293.5 582 c 128,-1,40
 275 498 275 498 245 349 c 1,41,42
 373 408 373 408 446 442.5 c 128,-1,43
 519 477 519 477 555 496 c 0,44,45
 598 519 598 519 608 526 c 1,46,47
 626 530 626 530 639.5 523.5 c 128,-1,48
 653 517 653 517 657 504 c 0,0,1
EndSplineSet
EndChar
StartChar: l
Encoding: 108 108 77
Width: 238
VWidth: 1473
Flags: W
HStem: -1 21G<104.5 128.5> 827 20G<286 313.5>
VStem: 80 257<63 782 63 63>
Fore
186 63 m 1,0,1
 178 28 178 28 158 13.5 c 128,-1,2
 138 -1 138 -1 119 -1 c 0,3,4
 90 -1 90 -1 82 18 c 128,-1,5
 74 37 74 37 80 63 c 2,6,-1
 231 782 l 2,7,8
 237 809 237 809 254 828 c 128,-1,9
 271 847 271 847 301 847 c 0,10,11
 326 847 326 847 334.5 827 c 128,-1,12
 343 807 343 807 337 782 c 2,13,-1
 186 63 l 1,0,1
EndSplineSet
EndChar
StartChar: m
Encoding: 109 109 78
Width: 932
VWidth: 1473
Flags: W
HStem: -1 21G<104.5 126 456 477.5 807.5 829> 433 102<330.851 458.4 690 705 705 718.585 718.585 737.297 727.941 800.677>
VStem: 826 115<311.102 320.372 320.372 338.5 338.5 372.338>
Fore
882 53 m 2,0,1
 878 31 878 31 859 15 c 128,-1,2
 840 -1 840 -1 818 -1 c 0,3,4
 797 -1 797 -1 783.5 15.5 c 128,-1,5
 770 32 770 32 776 53 c 0,6,7
 796 146 796 146 806 193 c 128,-1,8
 816 240 816 240 820.5 260 c 128,-1,9
 825 280 825 280 825.5 281.5 c 128,-1,10
 826 283 826 283 826 284 c 0,11,12
 832 312 832 312 833 338.5 c 128,-1,13
 834 365 834 365 825 386 c 128,-1,14
 816 407 816 407 795.5 420 c 128,-1,15
 775 433 775 433 735 433 c 0,16,17
 713 433 713 433 690 426.5 c 128,-1,18
 667 420 667 420 646.5 406.5 c 128,-1,19
 626 393 626 393 611.5 375 c 128,-1,20
 597 357 597 357 592 333 c 2,21,-1
 532 53 l 2,22,23
 527 31 527 31 507.5 15 c 128,-1,24
 488 -1 488 -1 467 -1 c 0,25,26
 445 -1 445 -1 432.5 15 c 128,-1,27
 420 31 420 31 424 53 c 2,28,-1
 485 333 l 2,29,30
 494 376 494 376 466 404.5 c 128,-1,31
 438 433 438 433 390 433 c 0,32,33
 317 433 317 433 279.5 390.5 c 128,-1,34
 242 348 242 348 230 284 c 2,35,-1
 180 53 l 2,36,37
 175 31 175 31 156 15 c 128,-1,38
 137 -1 137 -1 115 -1 c 0,39,40
 94 -1 94 -1 81.5 15.5 c 128,-1,41
 69 32 69 32 74 53 c 2,42,-1
 165 480 l 2,43,44
 169 501 169 501 189 518 c 128,-1,45
 209 535 209 535 230 535 c 0,46,47
 252 535 252 535 263.5 518 c 128,-1,48
 275 501 275 501 271 480 c 2,49,-1
 268 470 l 1,50,51
 292 499 292 499 334.5 517 c 128,-1,52
 377 535 377 535 412 535 c 0,53,54
 464 535 464 535 504 515 c 128,-1,55
 544 495 544 495 566 454 c 1,56,57
 580 471 580 471 603 486.5 c 128,-1,58
 626 502 626 502 652 512.5 c 128,-1,59
 678 523 678 523 705 529 c 128,-1,60
 732 535 732 535 757 535 c 0,61,62
 810 535 810 535 849 521.5 c 128,-1,63
 888 508 888 508 911.5 478.5 c 128,-1,64
 935 449 935 449 941 402 c 128,-1,65
 947 355 947 355 933 286 c 2,66,-1
 882 53 l 2,0,1
EndSplineSet
EndChar
StartChar: n
Encoding: 110 110 79
Width: 662
VWidth: 1473
Flags: W
HStem: -1 21G<109 130 532 553> 426 107<353.117 512.453>
Fore
607 53 m 1,0,1
 603 31 603 31 583.5 15 c 128,-1,2
 564 -1 564 -1 542 -1 c 0,3,4
 522 -1 522 -1 509 15.5 c 128,-1,5
 496 32 496 32 501 53 c 2,6,-1
 547 268 l 2,7,8
 563 339 563 339 534 382.5 c 128,-1,9
 505 426 505 426 423 426 c 0,10,11
 264 426 264 426 230 264 c 2,12,-1
 184 53 l 2,13,14
 180 31 180 31 160.5 15 c 128,-1,15
 141 -1 141 -1 119 -1 c 0,16,17
 99 -1 99 -1 86.5 15.5 c 128,-1,18
 74 32 74 32 78 53 c 2,19,-1
 168 479 l 2,20,21
 172 499 172 499 191.5 516 c 128,-1,22
 211 533 211 533 231 533 c 0,23,24
 253 533 253 533 266.5 517 c 128,-1,25
 280 501 280 501 275 479 c 2,26,-1
 271 463 l 1,27,28
 308 495 308 495 353.5 515 c 128,-1,29
 399 535 399 535 446 535 c 0,30,31
 511 535 511 535 556 515.5 c 128,-1,32
 601 496 601 496 627 461 c 128,-1,33
 653 426 653 426 659.5 376.5 c 128,-1,34
 666 327 666 327 653 268 c 2,35,-1
 607 53 l 1,0,1
EndSplineSet
EndChar
StartChar: o
Encoding: 111 111 80
Width: 659
VWidth: 1473
Flags: W
HStem: 1 107<255.75 451.02> 429 106<321.581 513.615>
Fore
664 268 m 0,0,1
 651 208 651 208 621.5 158.5 c 128,-1,2
 592 109 592 109 548.5 74.5 c 128,-1,3
 505 40 505 40 449 20.5 c 128,-1,4
 393 1 393 1 329 1 c 0,5,6
 203 1 203 1 141.5 72 c 128,-1,7
 80 143 80 143 106 268 c 0,8,9
 119 330 119 330 150 379.5 c 128,-1,10
 181 429 181 429 225.5 463.5 c 128,-1,11
 270 498 270 498 325 516.5 c 128,-1,12
 380 535 380 535 442 535 c 0,13,14
 514 535 514 535 562 511.5 c 128,-1,15
 610 488 610 488 636.5 449.5 c 128,-1,16
 663 411 663 411 669 364 c 128,-1,17
 675 317 675 317 664 268 c 0,0,1
561 268 m 0,18,19
 576 334 576 334 542 381.5 c 128,-1,20
 508 429 508 429 418 429 c 0,21,22
 331 429 331 429 278 387 c 128,-1,23
 225 345 225 345 209 268 c 0,24,25
 193 187 193 187 231.5 147.5 c 128,-1,26
 270 108 270 108 351 108 c 0,27,28
 438 108 438 108 491.5 151 c 128,-1,29
 545 194 545 194 561 268 c 0,18,19
EndSplineSet
EndChar
StartChar: p
Encoding: 112 112 81
Width: 674
VWidth: 1473
Flags: W
HStem: -312 21G<39.5 61> -1 107<268.729 471.297> 421 109<351.549 525.981>
Fore
679 264 m 0,0,1
 653 138 653 138 564.5 68.5 c 128,-1,2
 476 -1 476 -1 342 -1 c 0,3,4
 289 -1 289 -1 248.5 13.5 c 128,-1,5
 208 28 208 28 183 53 c 1,6,-1
 116 -258 l 2,7,8
 112 -281 112 -281 92 -296.5 c 128,-1,9
 72 -312 72 -312 50 -312 c 0,10,11
 29 -312 29 -312 15 -296 c 128,-1,12
 1 -280 1 -280 7 -258 c 2,13,-1
 164 477 l 2,14,15
 168 498 168 498 188 515 c 128,-1,16
 208 532 208 532 228 532 c 0,17,18
 250 532 250 532 262.5 515.5 c 128,-1,19
 275 499 275 499 270 477 c 2,20,-1
 267 460 l 1,21,22
 302 492 302 492 351.5 511 c 128,-1,23
 401 530 401 530 455 530 c 0,24,25
 585 530 585 530 645.5 461.5 c 128,-1,26
 706 393 706 393 679 264 c 0,0,1
572 264 m 0,27,28
 586 334 586 334 551 377.5 c 128,-1,29
 516 421 516 421 432 421 c 0,30,31
 351 421 351 421 299 382 c 128,-1,32
 247 343 247 343 228 273 c 0,33,34
 208 196 208 196 242.5 151 c 128,-1,35
 277 106 277 106 365 106 c 0,36,37
 451 106 451 106 503 147.5 c 128,-1,38
 555 189 555 189 572 264 c 0,27,28
EndSplineSet
EndChar
StartChar: q
Encoding: 113 113 82
Width: 674
VWidth: 1473
Flags: W
HStem: -312 21G<473.5 496.5> -1 107<259.834 435.469> 421 109<320.947 510.354>
Fore
551 -258 m 2,0,1
 547 -281 547 -281 527 -296.5 c 128,-1,2
 507 -312 507 -312 486 -312 c 0,3,4
 461 -312 461 -312 450.5 -296.5 c 128,-1,5
 440 -281 440 -281 445 -258 c 2,6,-1
 511 53 l 1,7,8
 473 27 473 27 424.5 13 c 128,-1,9
 376 -1 376 -1 327 -1 c 0,10,11
 267 -1 267 -1 219.5 18 c 128,-1,12
 172 37 172 37 142 72.5 c 128,-1,13
 112 108 112 108 101.5 156.5 c 128,-1,14
 91 205 91 205 105 264 c 0,15,16
 118 326 118 326 149 375 c 128,-1,17
 180 424 180 424 225 459 c 128,-1,18
 270 494 270 494 325 512 c 128,-1,19
 380 530 380 530 440 530 c 0,20,21
 491 530 491 530 533 514.5 c 128,-1,22
 575 499 575 499 601 467 c 1,23,-1
 603 477 l 2,24,25
 608 499 608 499 626.5 515.5 c 128,-1,26
 645 532 645 532 667 532 c 0,27,28
 688 532 688 532 701.5 515 c 128,-1,29
 715 498 715 498 709 477 c 2,30,-1
 551 -258 l 2,0,1
558 273 m 0,31,32
 575 343 575 343 533.5 382 c 128,-1,33
 492 421 492 421 417 421 c 0,34,35
 337 421 337 421 282.5 379 c 128,-1,36
 228 337 228 337 212 264 c 0,37,38
 196 193 196 193 233.5 149.5 c 128,-1,39
 271 106 271 106 351 106 c 0,40,41
 435 106 435 106 493 151 c 128,-1,42
 551 196 551 196 558 273 c 0,31,32
EndSplineSet
EndChar
StartChar: r
Encoding: 114 114 83
Width: 439
VWidth: 1473
Flags: W
HStem: -1 21G<97.5 119> 420 107<350.659 504.949>
VStem: 153 106<454.429 511.501>
Fore
153 463 m 2,0,1
 161 491 161 491 176.5 509 c 128,-1,2
 192 527 192 527 221 527 c 0,3,4
 249 527 249 527 258 509 c 128,-1,5
 267 491 267 491 259 463 c 2,6,-1
 255 438 l 1,7,8
 290 474 290 474 341 500.5 c 128,-1,9
 392 527 392 527 454 527 c 2,10,-1
 476 527 l 2,11,12
 501 527 501 527 517 515.5 c 128,-1,13
 533 504 533 504 527 474 c 0,14,15
 523 454 523 454 505.5 437 c 128,-1,16
 488 420 488 420 452 420 c 2,17,-1
 417 420 l 2,18,19
 364 412 364 412 327 390 c 128,-1,20
 290 368 290 368 265 337 c 128,-1,21
 240 306 240 306 225.5 268.5 c 128,-1,22
 211 231 211 231 203 196 c 2,23,-1
 172 53 l 2,24,25
 168 31 168 31 149 15 c 128,-1,26
 130 -1 130 -1 108 -1 c 0,27,28
 87 -1 87 -1 74.5 15.5 c 128,-1,29
 62 32 62 32 66 53 c 2,30,-1
 153 463 l 2,0,1
EndSplineSet
EndChar
StartChar: s
Encoding: 115 115 84
Width: 531
VWidth: 1473
Flags: W
HStem: -18 95<257.411 308.656>
VStem: 71 112<95.5073 146.859>
Fore
550 379 m 0,0,1
 524 361 524 361 498.5 366 c 128,-1,2
 473 371 473 371 466 387 c 0,3,4
 452 417 452 417 417.5 430 c 128,-1,5
 383 443 383 443 347.5 441.5 c 128,-1,6
 312 440 312 440 283.5 425 c 128,-1,7
 255 410 255 410 253 383 c 0,8,9
 252 364 252 364 270.5 350 c 128,-1,10
 289 336 289 336 313 325.5 c 128,-1,11
 337 315 337 315 358.5 309 c 128,-1,12
 380 303 380 303 385 302 c 0,13,14
 407 295 407 295 430.5 285 c 128,-1,15
 454 275 454 275 474 261 c 128,-1,16
 494 247 494 247 508 229 c 128,-1,17
 522 211 522 211 522 187 c 0,18,19
 524 136 524 136 500.5 96.5 c 128,-1,20
 477 57 477 57 438 31.5 c 128,-1,21
 399 6 399 6 350 -6.5 c 128,-1,22
 301 -19 301 -19 252 -18 c 0,23,24
 214 -18 214 -18 182 -7 c 128,-1,25
 150 4 150 4 126.5 22 c 128,-1,26
 103 40 103 40 89 62 c 128,-1,27
 75 84 75 84 71 108 c 0,28,29
 66 128 66 128 79.5 151 c 128,-1,30
 93 174 93 174 118 181 c 0,31,32
 141 187 141 187 159.5 178 c 128,-1,33
 178 169 178 169 183 149 c 0,34,35
 187 133 187 133 197.5 119.5 c 128,-1,36
 208 106 208 106 222 96.5 c 128,-1,37
 236 87 236 87 252 82 c 128,-1,38
 268 77 268 77 281 77 c 0,39,40
 301 75 301 75 323.5 79.5 c 128,-1,41
 346 84 346 84 366 93 c 128,-1,42
 386 102 386 102 399 116.5 c 128,-1,43
 412 131 412 131 411 152 c 0,44,45
 411 171 411 171 386.5 185.5 c 128,-1,46
 362 200 362 200 329 212.5 c 128,-1,47
 296 225 296 225 263.5 234 c 128,-1,48
 231 243 231 243 217 250 c 0,49,50
 183 265 183 265 163.5 291.5 c 128,-1,51
 144 318 144 318 142 350 c 128,-1,52
 140 382 140 382 155.5 415.5 c 128,-1,53
 171 449 171 449 206 479 c 0,54,55
 245 511 245 511 301 526.5 c 128,-1,56
 357 542 357 542 412 538.5 c 128,-1,57
 467 535 467 535 512 512 c 128,-1,58
 557 489 557 489 573 448 c 0,59,60
 580 429 580 429 573 409.5 c 128,-1,61
 566 390 566 390 550 379 c 0,0,1
EndSplineSet
EndChar
StartChar: t
Encoding: 116 116 85
Width: 409
VWidth: 1473
Flags: W
HStem: 0 108<236.84 393.949> 420 107<284 420.949> 812 20G<283 311>
VStem: 107.5 335.5<122.5 473 122.5 349.021>
Fore
415 53 m 0,0,1
 412 34 412 34 394.5 17 c 128,-1,2
 377 0 377 0 342 0 c 2,3,-1
 290 0 l 2,4,5
 240 0 240 0 202 13.5 c 128,-1,6
 164 27 164 27 139.5 54 c 128,-1,7
 115 81 115 81 107.5 122.5 c 128,-1,8
 100 164 100 164 112 220 c 2,9,-1
 228 768 l 2,10,11
 236 796 236 796 252 814 c 128,-1,12
 268 832 268 832 298 832 c 0,13,14
 324 832 324 832 333 814 c 128,-1,15
 342 796 342 796 334 768 c 2,16,-1
 284 527 l 1,17,-1
 392 527 l 2,18,19
 418 527 418 527 433.5 514.5 c 128,-1,20
 449 502 449 502 443 473 c 0,21,22
 439 452 439 452 421.5 436 c 128,-1,23
 404 420 404 420 368 420 c 2,24,-1
 261 420 l 1,25,-1
 218 220 l 2,26,27
 206 162 206 162 231 135 c 128,-1,28
 256 108 256 108 312 108 c 2,29,-1
 364 108 l 2,30,31
 390 108 390 108 406.5 95 c 128,-1,32
 423 82 423 82 415 53 c 0,0,1
EndSplineSet
EndChar
StartChar: u
Encoding: 117 117 86
Width: 658
VWidth: 1473
Flags: W
HStem: -7 109<260.267 423.146> 507 20G<218 240 642 663>
Fore
604 49 m 1,0,1
 598 25 598 25 579.5 9.5 c 128,-1,2
 561 -6 561 -6 539 -6 c 0,3,4
 519 -6 519 -6 505 8 c 128,-1,5
 491 22 491 22 496 44 c 2,6,-1
 499 56 l 1,7,8
 461 27 461 27 417 10 c 128,-1,9
 373 -7 373 -7 326 -7 c 0,10,11
 194 -7 194 -7 143.5 66.5 c 128,-1,12
 93 140 93 140 118 259 c 2,13,-1
 164 474 l 2,14,15
 168 496 168 496 188 511.5 c 128,-1,16
 208 527 208 527 228 527 c 0,17,18
 252 527 252 527 263 512.5 c 128,-1,19
 274 498 274 498 270 474 c 2,20,-1
 224 259 l 2,21,22
 208 187 208 187 238 144.5 c 128,-1,23
 268 102 268 102 349 102 c 0,24,25
 432 102 432 102 478 139.5 c 128,-1,26
 524 177 524 177 542 259 c 2,27,-1
 588 474 l 2,28,29
 592 496 592 496 611.5 511.5 c 128,-1,30
 631 527 631 527 653 527 c 0,31,32
 673 527 673 527 686.5 511.5 c 128,-1,33
 700 496 700 496 694 474 c 2,34,-1
 604 49 l 1,0,1
EndSplineSet
EndChar
StartChar: v
Encoding: 118 118 87
Width: 589
VWidth: 1473
Flags: W
HStem: -7 103<277.363 347.223>
Fore
666 457 m 0,0,1
 663 451 663 451 642 412 c 0,2,3
 625 379 625 379 586 309.5 c 128,-1,4
 547 240 547 240 473 110 c 0,5,6
 466 97 466 97 452 77 c 128,-1,7
 438 57 438 57 415 39 c 128,-1,8
 392 21 392 21 361 7 c 128,-1,9
 330 -7 330 -7 290 -7 c 256,10,11
 250 -7 250 -7 226 6 c 128,-1,12
 202 19 202 19 188 38 c 128,-1,13
 174 57 174 57 167.5 77 c 128,-1,14
 161 97 161 97 158 109 c 1,15,-1
 158 110 l 1,16,-1
 112 457 l 2,17,18
 109 477 109 477 123.5 497 c 128,-1,19
 138 517 138 517 159 524 c 0,20,21
 181 533 181 533 199.5 523 c 128,-1,22
 218 513 218 513 221 492 c 2,23,-1
 225 449 l 2,24,25
 228 417 228 417 237 347.5 c 128,-1,26
 246 278 246 278 265 150 c 0,27,28
 270 119 270 119 280 107.5 c 128,-1,29
 290 96 290 96 312 96 c 256,30,31
 334 96 334 96 350.5 107.5 c 128,-1,32
 367 119 367 119 383 150 c 2,33,-1
 572 492 l 2,34,35
 583 513 583 513 607 523 c 128,-1,36
 631 533 631 533 648 524 c 0,37,38
 667 517 667 517 672.5 497 c 128,-1,39
 678 477 678 477 666 457 c 0,0,1
EndSplineSet
EndChar
StartChar: w
Encoding: 119 119 88
Width: 880
VWidth: 1473
Flags: W
HStem: -7 109<225.028 368.75 555.301 717.196> 507 20G<189 210.5 540.5 563 892 913.5>
VStem: 79.5 109.5<168.783 218.991>
Fore
897 255 m 2,0,1
 885 197 885 197 861.5 149.5 c 128,-1,2
 838 102 838 102 802 67 c 128,-1,3
 766 32 766 32 716.5 12.5 c 128,-1,4
 667 -7 667 -7 605 -7 c 0,5,6
 548 -7 548 -7 508 14 c 128,-1,7
 468 35 468 35 452 63 c 1,8,9
 417 31 417 31 366 12 c 128,-1,10
 315 -7 315 -7 268 -7 c 0,11,12
 205 -7 205 -7 164.5 12 c 128,-1,13
 124 31 124 31 103 65.5 c 128,-1,14
 82 100 82 100 79.5 149.5 c 128,-1,15
 77 199 77 199 90 259 c 2,16,-1
 136 474 l 2,17,18
 140 496 140 496 159 511.5 c 128,-1,19
 178 527 178 527 200 527 c 0,20,21
 221 527 221 527 233.5 511.5 c 128,-1,22
 246 496 246 496 242 474 c 0,23,24
 224 393 224 393 215 349.5 c 128,-1,25
 206 306 206 306 201.5 285.5 c 128,-1,26
 197 265 197 265 195.5 260.5 c 128,-1,27
 194 256 194 256 194 255 c 0,28,29
 189 227 189 227 189 199.5 c 128,-1,30
 189 172 189 172 198.5 150 c 128,-1,31
 208 128 208 128 230.5 115 c 128,-1,32
 253 102 253 102 292 102 c 0,33,34
 339 102 339 102 378 126 c 128,-1,35
 417 150 417 150 426 193 c 2,36,-1
 486 474 l 2,37,38
 491 496 491 496 510.5 511.5 c 128,-1,39
 530 527 530 527 551 527 c 0,40,41
 575 527 575 527 586 512.5 c 128,-1,42
 597 498 597 498 592 474 c 2,43,-1
 532 193 l 2,44,45
 523 150 523 150 552.5 126 c 128,-1,46
 582 102 582 102 629 102 c 0,47,48
 706 102 706 102 741 142.5 c 128,-1,49
 776 183 776 183 793 259 c 2,50,-1
 838 474 l 2,51,52
 843 496 843 496 862 511.5 c 128,-1,53
 881 527 881 527 903 527 c 0,54,55
 924 527 924 527 936.5 511.5 c 128,-1,56
 949 496 949 496 944 474 c 2,57,-1
 897 255 l 2,0,1
EndSplineSet
EndChar
StartChar: x
Encoding: 120 120 89
Width: 573
VWidth: 1473
Flags: W
Fore
558 84 m 0,0,1
 566 65 566 65 558.5 43 c 128,-1,2
 551 21 551 21 530 7 c 256,3,4
 510 -6 510 -6 488 -3 c 128,-1,5
 466 0 466 0 455 19 c 0,6,7
 443 44 443 44 432 71 c 0,8,9
 420 93 420 93 407.5 120 c 128,-1,10
 395 147 395 147 383 172 c 0,11,12
 374 190 374 190 366 207 c 128,-1,13
 358 224 358 224 333 224 c 0,14,15
 312 224 312 224 294.5 207 c 128,-1,16
 277 190 277 190 261 172 c 1,17,18
 261 169 261 169 245 153 c 0,19,20
 231 138 231 138 202.5 107.5 c 128,-1,21
 174 77 174 77 122 19 c 0,22,23
 106 0 106 0 83 -3 c 128,-1,24
 60 -6 60 -6 44 7 c 256,25,26
 28 21 28 21 30 43 c 128,-1,27
 32 65 32 65 49 84 c 0,28,29
 100 141 100 141 129 172 c 128,-1,30
 158 203 158 203 169 217 c 0,31,32
 184 233 184 233 184 234 c 1,33,34
 197 249 197 249 215.5 257 c 128,-1,35
 234 265 234 265 247 265 c 1,36,37
 231 267 231 267 217 278 c 128,-1,38
 203 289 203 289 199 296 c 2,39,-1
 190 315 l 2,40,41
 183 329 183 329 168 358 c 128,-1,42
 153 387 153 387 125 442 c 0,43,44
 116 460 116 460 123.5 482 c 128,-1,45
 131 504 131 504 150 519 c 0,46,47
 171 532 171 532 194.5 530.5 c 128,-1,48
 218 529 218 529 225 508 c 2,49,-1
 250 458 l 2,50,51
 262 436 262 436 274.5 410.5 c 128,-1,52
 287 385 287 385 299 359 c 0,53,54
 305.5 346 l 0,55,56
 312 333 312 333 317.5 325.5 c 128,-1,57
 323 318 323 318 330 313 c 128,-1,58
 337 308 337 308 351 308 c 0,59,60
 374 308 374 308 389.5 325 c 128,-1,61
 405 342 405 342 421 358 c 2,62,-1
 561 508 l 2,63,64
 579 527 579 527 601 529.5 c 128,-1,65
 623 532 623 532 639 519 c 0,66,67
 654 504 654 504 652 482 c 128,-1,68
 650 460 650 460 632 442 c 0,69,70
 580 386 580 386 552 356.5 c 128,-1,71
 524 327 524 327 511.5 314 c 128,-1,72
 499 301 499 301 498 299.5 c 2,73,-1
 495 296 l 2,74,75
 488 289 488 289 470 278 c 128,-1,76
 452 267 452 267 436 265 c 1,77,78
 457 262 457 262 469.5 251 c 128,-1,79
 482 240 482 240 485 234 c 2,80,81
 488 231 488 231 495 215 c 0,82,83
 502 200 502 200 516 170 c 128,-1,84
 530 140 530 140 558 84 c 0,0,1
EndSplineSet
EndChar
StartChar: y
Encoding: 121 121 90
Width: 602
VWidth: 1473
Flags: W
HStem: -283.5 106.5<218.336 286.85> -3 109<228.292 381.214> 512 20G<190 212 610 639.5>
VStem: 654 10<471.08 474.01>
Fore
560 -27 m 0,0,1
 539 -119 539 -119 477 -183 c 128,-1,2
 415 -247 415 -247 323 -273 c 0,3,4
 278 -284 278 -284 235.5 -283.5 c 128,-1,5
 193 -283 193 -283 157 -272.5 c 128,-1,6
 121 -262 121 -262 94.5 -242 c 128,-1,7
 68 -222 68 -222 57 -194 c 0,8,9
 50 -175 50 -175 61 -154.5 c 128,-1,10
 72 -134 72 -134 93 -122 c 256,11,12
 113 -110 113 -110 134 -116 c 128,-1,13
 155 -122 155 -122 161 -141 c 0,14,15
 164 -150 164 -150 178 -159 c 128,-1,16
 192 -168 192 -168 213 -172.5 c 128,-1,17
 234 -177 234 -177 260.5 -177 c 128,-1,18
 287 -177 287 -177 317 -169 c 0,19,20
 336 -165 336 -165 357.5 -154.5 c 128,-1,21
 379 -144 379 -144 397 -128 c 128,-1,22
 415 -112 415 -112 430.5 -87 c 128,-1,23
 446 -62 446 -62 454 -27 c 0,24,25
 460 3 l 0,26,27
 464 29 464 29 470 49 c 1,28,29
 432 22 432 22 389 9.5 c 128,-1,30
 346 -3 346 -3 299 -3 c 0,31,32
 171 -3 171 -3 118 70 c 128,-1,33
 65 143 65 143 91 264 c 2,34,-1
 137 479 l 2,35,36
 141 501 141 501 160.5 516.5 c 128,-1,37
 180 532 180 532 200 532 c 0,38,39
 224 532 224 532 235.5 517 c 128,-1,40
 247 502 247 502 243 479 c 2,41,-1
 197 264 l 2,42,43
 180 180 180 180 210 143 c 128,-1,44
 240 106 240 106 323 106 c 0,45,46
 407 106 407 106 451 144.5 c 128,-1,47
 495 183 495 183 516 264 c 2,48,-1
 558 470 l 2,49,50
 563 491 563 491 579 512 c 128,-1,51
 595 533 595 533 625 533 c 256,52,53
 654 533 654 533 663 512 c 128,-1,54
 672 491 672 491 664 470 c 1,55,56
 664 473 664 473 654 424 c 0,57,58
 650 402 650 402 642.5 367.5 c 128,-1,59
 635 333 635 333 624 278.5 c 128,-1,60
 613 224 613 224 596.5 149.5 c 128,-1,61
 580 75 580 75 560 -27 c 0,0,1
EndSplineSet
EndChar
StartChar: z
Encoding: 122 122 91
Width: 545
VWidth: 1473
Flags: W
HStem: -1 109<185.345 484.917> 418 109<168.082 478.977>
Fore
443 355 m 2,0,1
 464 362 464 362 471.5 372.5 c 128,-1,2
 479 383 479 383 479 395 c 0,3,4
 482 418 482 418 439 418 c 2,5,-1
 199 418 l 2,6,7
 172 418 172 418 154.5 431.5 c 128,-1,8
 137 445 137 445 144 471 c 0,9,10
 149 492 149 492 167.5 509.5 c 128,-1,11
 186 527 186 527 222 527 c 2,12,-1
 464 527 l 2,13,14
 526 527 526 527 554.5 495 c 128,-1,15
 583 463 583 463 583 418 c 0,16,17
 583 404 583 404 579 385.5 c 128,-1,18
 575 367 575 367 564.5 348 c 128,-1,19
 554 329 554 329 535.5 310.5 c 128,-1,20
 517 292 517 292 489 278 c 2,21,-1
 211 174 l 2,22,23
 189 166 189 166 180.5 153 c 128,-1,24
 172 140 172 140 174 128 c 0,25,26
 174 115 174 115 185 111.5 c 128,-1,27
 196 108 196 108 214 108 c 2,28,-1
 454 108 l 2,29,30
 480 108 480 108 497 94.5 c 128,-1,31
 514 81 514 81 508 55 c 0,32,33
 504 34 504 34 485.5 16.5 c 128,-1,34
 467 -1 467 -1 430 -1 c 2,35,-1
 189 -1 l 2,36,37
 127 -1 127 -1 98 32 c 128,-1,38
 69 65 69 65 69 109 c 0,39,40
 69 124 69 124 73.5 142.5 c 128,-1,41
 78 161 78 161 88.5 180.5 c 128,-1,42
 99 200 99 200 117.5 218.5 c 128,-1,43
 136 237 136 237 165 250 c 2,44,-1
 443 355 l 2,0,1
EndSplineSet
EndChar
StartChar: braceleft
Encoding: 123 123 92
Width: 441
VWidth: 1473
Flags: W
VStem: 125 373<295 685 133.752 389.98>
Fore
498 685 m 0,0,1
 491 669 491 669 479 660 c 128,-1,2
 467 651 467 651 454 644 c 0,3,4
 420 625 420 625 399.5 599 c 128,-1,5
 379 573 379 573 370 530 c 2,6,-1
 351 440 l 2,7,8
 340 392 340 392 310.5 353.5 c 128,-1,9
 281 315 281 315 239 290 c 1,10,11
 271 265 271 265 284.5 227 c 128,-1,12
 298 189 298 189 287 140 c 2,13,-1
 268 52 l 2,14,15
 259 9 259 9 268 -17.5 c 128,-1,16
 277 -44 277 -44 303 -63 c 0,17,18
 324 -78 324 -78 329 -97 c 128,-1,19
 334 -116 334 -116 312 -144 c 0,20,21
 293 -165 293 -165 267 -168 c 0,22,23
 222 -171 222 -171 178 -106 c 0,24,25
 158 -77 158 -77 152.5 -38.5 c 128,-1,26
 147 0 147 0 159 52 c 2,27,-1
 178 140 l 2,28,29
 183 165 183 165 181.5 182 c 128,-1,30
 180 199 180 199 174.5 210.5 c 128,-1,31
 169 222 169 222 162 229.5 c 128,-1,32
 155 237 155 237 147 243 c 0,33,34
 137 250 137 250 127.5 262 c 128,-1,35
 118 274 118 274 125 295 c 0,36,37
 131 311 131 311 143.5 320.5 c 128,-1,38
 156 330 156 330 168 337 c 0,39,40
 189 349 189 349 209.5 369 c 128,-1,41
 230 389 230 389 242 440 c 2,42,-1
 261 530 l 2,43,44
 283 632 283 632 348 688 c 0,45,46
 421 753 421 753 461 748 c 0,47,48
 483 745 483 745 495.5 726 c 128,-1,49
 508 707 508 707 498 685 c 0,0,1
EndSplineSet
EndChar
StartChar: bar
Encoding: 124 124 93
Width: 294
VWidth: 1473
Flags: W
HStem: 777 20G<301.5 330>
VStem: 60 297<-146 731 -146 -146>
Fore
169 -146 m 1,0,1
 162 -183 162 -183 142 -197 c 128,-1,2
 122 -211 122 -211 103 -211 c 0,3,4
 74 -211 74 -211 64.5 -192.5 c 128,-1,5
 55 -174 55 -174 60 -146 c 2,6,-1
 247 731 l 2,7,8
 253 759 253 759 269.5 778 c 128,-1,9
 286 797 286 797 317 797 c 0,10,11
 343 797 343 797 352.5 777 c 128,-1,12
 362 757 362 757 357 731 c 2,13,-1
 169 -146 l 1,0,1
EndSplineSet
EndChar
StartChar: braceright
Encoding: 125 125 94
Width: 441
VWidth: 1473
Flags: W
VStem: 64 376<-107.5 293 189.848 292.345>
Fore
440 293 m 0,0,1
 439 273 439 273 424.5 261 c 128,-1,2
 410 249 410 249 396 242 c 0,3,4
 376 230 376 230 354.5 209.5 c 128,-1,5
 333 189 333 189 321 138 c 2,6,-1
 303 50 l 2,7,8
 283 -50 283 -50 218 -108 c 0,9,10
 196 -127 196 -127 173 -143 c 128,-1,11
 150 -159 150 -159 129.5 -166.5 c 128,-1,12
 109 -174 109 -174 92 -170 c 128,-1,13
 75 -166 75 -166 66 -146 c 0,14,15
 57 -122 57 -122 64 -107.5 c 128,-1,16
 71 -93 71 -93 85.5 -81 c 128,-1,17
 100 -69 100 -69 119 -59 c 128,-1,18
 138 -49 138 -49 153 -34 c 0,19,20
 184 -1 184 -1 194 50 c 2,21,-1
 212 138 l 2,22,23
 224 187 224 187 252.5 225.5 c 128,-1,24
 281 264 281 264 324 289 c 1,25,26
 292 314 292 314 278.5 352 c 128,-1,27
 265 390 265 390 277 439 c 2,28,-1
 296 529 l 2,29,30
 306 580 306 580 290 611 c 0,31,32
 281 625 281 625 267 636 c 128,-1,33
 253 647 253 647 243.5 659.5 c 128,-1,34
 234 672 234 672 233.5 686.5 c 128,-1,35
 233 701 233 701 252 723 c 0,36,37
 270 744 270 744 287.5 747.5 c 128,-1,38
 305 751 305 751 322.5 744 c 128,-1,39
 340 737 340 737 357 720.5 c 128,-1,40
 374 704 374 704 387 687 c 0,41,42
 426 628 426 628 405 529 c 2,43,-1
 386 439 l 2,44,45
 380 414 380 414 381.5 397 c 128,-1,46
 383 380 383 380 387.5 368.5 c 128,-1,47
 392 357 392 357 400 349.5 c 128,-1,48
 408 342 408 342 415 336 c 0,49,50
 424 329 424 329 433 319 c 128,-1,51
 442 309 442 309 440 293 c 0,0,1
EndSplineSet
EndChar
StartChar: asciitilde
Encoding: 126 126 95
Width: 636
VWidth: 1473
Flags: W
HStem: 158 228<221 492 213.557 235.189> 158 112<462.491 529.198>
Fore
657 323 m 0,0,1
 647 270 647 270 622 233 c 128,-1,2
 597 196 597 196 563.5 177 c 128,-1,3
 530 158 530 158 492 158 c 128,-1,4
 454 158 454 158 415 178 c 2,5,-1
 302 247 l 2,6,7
 296 252 296 252 282 259.5 c 128,-1,8
 268 267 268 267 252.5 269 c 128,-1,9
 237 271 237 271 222.5 263 c 128,-1,10
 208 255 208 255 200 228 c 0,11,12
 199 222 199 222 194.5 213.5 c 128,-1,13
 190 205 190 205 182.5 196 c 128,-1,14
 175 187 175 187 163.5 181 c 128,-1,15
 152 175 152 175 137 175 c 0,16,17
 118 175 118 175 108.5 182 c 128,-1,18
 99 189 99 189 95 197 c 128,-1,19
 91 205 91 205 91 213.5 c 128,-1,20
 91 222 91 222 91 227 c 1,21,22
 103 284 103 284 133.5 330.5 c 128,-1,23
 164 377 164 377 221 386 c 0,24,25
 246 390 246 390 274 382 c 128,-1,26
 302 374 302 374 317 365 c 2,27,-1
 436 296 l 2,28,29
 452 286 452 286 470 278 c 128,-1,30
 488 270 488 270 503.5 270 c 128,-1,31
 519 270 519 270 531.5 281.5 c 128,-1,32
 544 293 544 293 550 323 c 0,33,34
 551 329 551 329 553 337.5 c 128,-1,35
 555 346 555 346 562 355 c 128,-1,36
 569 364 569 364 580.5 370 c 128,-1,37
 592 376 592 376 613 376 c 0,38,39
 647 376 647 376 653.5 357.5 c 128,-1,40
 660 339 660 339 657 323 c 0,0,1
EndSplineSet
EndChar
StartChar: uni0E33.alt1
Encoding: 65539 -1 96
Width: 623
VWidth: 1473
Flags: W
HStem: 0 21G<493 515> 496 108<381.856 503.802> 698 84<-224.705 -138.288> 888 84<-188.096 -96.0399>
Fore
566 44 m 2,0,1
 561 22 561 22 543.5 11 c 128,-1,2
 526 0 526 0 504 0 c 256,3,4
 482 0 482 0 467 10.5 c 128,-1,5
 452 21 452 21 458 43 c 2,6,-1
 530 383 l 2,7,8
 541 432 541 432 514.5 464 c 128,-1,9
 488 496 488 496 412 496 c 0,10,11
 383 496 383 496 354.5 488 c 128,-1,12
 326 480 326 480 301.5 467.5 c 128,-1,13
 277 455 277 455 258 439.5 c 128,-1,14
 239 424 239 424 228 411 c 0,15,16
 212 392 212 392 190.5 391 c 128,-1,17
 169 390 169 390 153 402 c 0,18,19
 115 426 115 426 147 466 c 0,20,21
 169 494 169 494 201.5 519.5 c 128,-1,22
 234 545 234 545 272.5 563.5 c 128,-1,23
 311 582 311 582 353 593 c 128,-1,24
 395 604 395 604 436 604 c 0,25,26
 489 604 489 604 531 588 c 128,-1,27
 573 572 573 572 600.5 542.5 c 128,-1,28
 628 513 628 513 638 472.5 c 128,-1,29
 648 432 648 432 638 383 c 2,30,-1
 566 44 l 2,0,1
-6 835 m 0,31,32
 -13 804 -13 804 -31 779 c 128,-1,33
 -49 754 -49 754 -74 736.5 c 128,-1,34
 -99 719 -99 719 -129 708.5 c 128,-1,35
 -159 698 -159 698 -192 698 c 0,36,37
 -259 698 -259 698 -294.5 737 c 128,-1,38
 -330 776 -330 776 -318 835 c 0,39,40
 -312 863 -312 863 -294.5 888 c 128,-1,41
 -277 913 -277 913 -251 931.5 c 128,-1,42
 -225 950 -225 950 -195 961 c 128,-1,43
 -165 972 -165 972 -133 972 c 0,44,45
 -71 972 -71 972 -32.5 934.5 c 128,-1,46
 6 897 6 897 -6 835 c 0,31,32
-90 835 m 0,47,48
 -85 859 -85 859 -98.5 873.5 c 128,-1,49
 -112 888 -112 888 -150 888 c 0,50,51
 -187 888 -187 888 -208.5 872.5 c 128,-1,52
 -230 857 -230 857 -234 835 c 0,53,54
 -240 807 -240 807 -221 794.5 c 128,-1,55
 -202 782 -202 782 -174 782 c 0,56,57
 -144 782 -144 782 -120 794.5 c 128,-1,58
 -96 807 -96 807 -90 835 c 0,47,48
EndSplineSet
EndChar
StartChar: quotedbl
Encoding: 34 34 97
Width: 380
VWidth: 1473
Flags: W
HStem: 435 282<383.503 408.859 368 429 429 429>
VStem: 153 317<499 653 438 499>
Fore
438 499 m 2,0,1
 430 463 430 463 409.5 449 c 128,-1,2
 389 435 389 435 368 435 c 0,3,4
 339 435 339 435 330 453 c 128,-1,5
 321 471 321 471 329 499 c 2,6,-1
 361 653 l 2,7,8
 367 681 367 681 383 699 c 128,-1,9
 399 717 399 717 429 717 c 0,10,11
 457 717 457 717 466.5 698 c 128,-1,12
 476 679 476 679 470 653 c 2,13,-1
 438 499 l 2,0,1
262 499 m 2,14,15
 255 463 255 463 234.5 449 c 128,-1,16
 214 435 214 435 194 435 c 0,17,18
 165 435 165 435 155.5 453 c 128,-1,19
 146 471 146 471 153 499 c 2,20,-1
 186 653 l 2,21,22
 192 681 192 681 208.5 699 c 128,-1,23
 225 717 225 717 255 717 c 0,24,25
 281 717 281 717 291 698 c 128,-1,26
 301 679 301 679 295 653 c 2,27,-1
 262 499 l 2,14,15
EndSplineSet
EndChar
StartChar: exclam
Encoding: 33 33 98
Width: 307
VWidth: 1473
Flags: W
HStem: -7 132<133.144 203.765>
VStem: 164 81<199.622 294.754> 247 111<651.054 708.267>
Fore
245 224 m 2,0,1
 239 203 239 203 226.5 187.5 c 128,-1,2
 214 172 214 172 193 172 c 0,3,4
 168 172 168 172 164.5 189 c 128,-1,5
 161 206 161 206 164 224 c 2,6,-1
 247 688 l 2,7,8
 250 704 250 704 262.5 721 c 128,-1,9
 275 738 275 738 314 738 c 0,10,11
 351 738 351 738 356 721 c 128,-1,12
 361 704 361 704 358 688 c 2,13,-1
 245 224 l 2,0,1
236 57 m 0,14,15
 228 21 228 21 204.5 7 c 128,-1,16
 181 -7 181 -7 156 -7 c 0,17,18
 124 -7 124 -7 110.5 10.5 c 128,-1,19
 97 28 97 28 105 57 c 0,20,21
 112 88 112 88 132.5 106.5 c 128,-1,22
 153 125 153 125 186 125 c 0,23,24
 217 125 217 125 230 106.5 c 128,-1,25
 243 88 243 88 236 57 c 0,14,15
EndSplineSet
EndChar
StartChar: uni0E4E.alt1
Encoding: 65540 -1 99
Width: 0
VWidth: 1473
Flags: W
HStem: 831 49<-93.5112 -77 -77 -53.1289>
VStem: -303 358<756 1002.5 738 761.871>
Fore
29 1027 m 0,0,1
 41 1024 41 1024 48 1016.5 c 128,-1,2
 55 1009 55 1009 55 1002.5 c 128,-1,3
 55 996 55 996 47.5 991.5 c 128,-1,4
 40 987 40 987 25 987 c 1,5,6
 -12 993 -12 993 -51 972.5 c 128,-1,7
 -90 952 -90 952 -94.5 918 c 128,-1,8
 -99 884 -99 884 -59 880 c 0,9,10
 -44 877 -44 877 -43.5 865.5 c 128,-1,11
 -43 854 -43 854 -46 850 c 256,12,13
 -49 846 -49 846 -53 839 c 128,-1,14
 -57 832 -57 832 -77 831 c 0,15,16
 -193 829 -193 829 -209 765 c 1,17,18
 -211 725 -211 725 -165 725 c 128,-1,19
 -119 725 -119 725 -103 735 c 1,20,-1
 -127 681 l 1,21,22
 -197 653 -197 653 -252.5 671 c 128,-1,23
 -308 689 -308 689 -303 756 c 1,24,25
 -275 863 -275 863 -156 866 c 1,26,27
 -184 905 -184 905 -166.5 949.5 c 128,-1,28
 -149 994 -149 994 -95 1019 c 128,-1,29
 -41 1044 -41 1044 29 1027 c 0,0,1
EndSplineSet
EndChar
StartChar: exclamdown
Encoding: 161 161 100
Width: 307
VWidth: 1473
Flags: W
HStem: 399 133<219.628 293.857>
VStem: 180 81<244.347 321.581> 192 131<443.647 518.328>
Fore
177 -164 m 2,0,1
 174 -180 174 -180 161.5 -197 c 128,-1,2
 149 -214 149 -214 112 -214 c 0,3,4
 93 -214 93 -214 82.5 -209.5 c 128,-1,5
 72 -205 72 -205 67.5 -197.5 c 128,-1,6
 63 -190 63 -190 64 -181 c 128,-1,7
 65 -172 65 -172 66 -164 c 2,8,-1
 180 301 l 2,9,10
 184 318 184 318 195 335 c 128,-1,11
 206 352 206 352 231 352 c 0,12,13
 252 352 252 352 258 336.5 c 128,-1,14
 264 321 264 321 261 301 c 2,15,-1
 177 -164 l 2,0,1
323 467 m 0,16,17
 315 436 315 436 294.5 417.5 c 128,-1,18
 274 399 274 399 243 399 c 0,19,20
 211 399 211 399 197.5 417.5 c 128,-1,21
 184 436 184 436 192 467 c 0,22,23
 199 496 199 496 219 514 c 128,-1,24
 239 532 239 532 271 532 c 0,25,26
 296 532 296 532 313 518 c 128,-1,27
 330 504 330 504 323 467 c 0,16,17
EndSplineSet
EndChar
StartChar: cent
Encoding: 162 162 101
Width: 636
VWidth: 1473
Flags: W
HStem: 67.5 112.5<352.968 461.765> 511.5 106<343.529 394 404.5 450.496>
Fore
603 242 m 0,0,1
 619 230 619 230 619.5 208.5 c 128,-1,2
 620 187 620 187 604 168 c 0,3,4
 585 144 585 144 552 123 c 128,-1,5
 519 102 519 102 478.5 87 c 128,-1,6
 438 72 438 72 391.5 67.5 c 128,-1,7
 345 63 345 63 301 75 c 1,8,-1
 246 -31 l 2,9,10
 240 -43 240 -43 227 -49 c 128,-1,11
 214 -55 214 -55 203 -50 c 0,12,13
 193 -47 193 -47 188.5 -37.5 c 128,-1,14
 184 -28 184 -28 189 -18 c 2,15,-1
 246 91 l 1,16,17
 94 155 94 155 134 342 c 0,18,19
 150 421 150 421 190.5 478 c 128,-1,20
 231 535 231 535 283.5 569.5 c 128,-1,21
 336 604 336 604 394 617.5 c 128,-1,22
 452 631 452 631 504 622 c 1,23,-1
 555 722 l 2,24,25
 560 732 560 732 571.5 737 c 128,-1,26
 583 742 583 742 595 740 c 0,27,28
 608 737 608 737 612 728 c 128,-1,29
 616 719 616 719 610 709 c 2,30,-1
 564 614 l 1,31,32
 611 603 611 603 640 578.5 c 128,-1,33
 669 554 669 554 679 523 c 1,34,35
 688 505 688 505 678.5 484 c 128,-1,36
 669 463 669 463 648 451 c 0,37,38
 625 439 625 439 603.5 443.5 c 128,-1,39
 582 448 582 448 575 467 c 0,40,41
 572 476 572 476 556.5 487.5 c 128,-1,42
 541 499 541 499 513 507 c 1,43,-1
 352 183 l 1,44,45
 383 177 383 177 411 180 c 128,-1,46
 439 183 439 183 462.5 190 c 128,-1,47
 486 197 486 197 501.5 207 c 128,-1,48
 517 217 517 217 523 224 c 0,49,50
 539 245 539 245 562.5 250.5 c 128,-1,51
 586 256 586 256 603 242 c 0,0,1
240 342 m 0,52,53
 228 290 228 290 240.5 252.5 c 128,-1,54
 253 215 253 215 296 196 c 1,55,-1
 451 513 l 1,56,57
 435 516 435 516 404.5 511.5 c 128,-1,58
 374 507 374 507 341.5 488.5 c 128,-1,59
 309 470 309 470 280.5 434.5 c 128,-1,60
 252 399 252 399 240 342 c 0,52,53
EndSplineSet
EndChar
StartChar: sterling
Encoding: 163 163 102
Width: 586
VWidth: 1473
Flags: W
HStem: -2 102<392.217 455.656> 28.5 91.5<187.065 210.5 219.5 257.507> 330 57<138 211 318 408>
VStem: 230 88<276.675 316.062 316.062 330>
Fore
130 387 m 1,0,-1
 211 387 l 1,1,2
 209 395 209 395 201 411 c 128,-1,3
 193 427 193 427 185.5 449 c 128,-1,4
 178 471 178 471 176 498.5 c 128,-1,5
 174 526 174 526 183 557 c 0,6,7
 202 620 202 620 255.5 663 c 128,-1,8
 309 706 309 706 373.5 723.5 c 128,-1,9
 438 741 438 741 501 730.5 c 128,-1,10
 564 720 564 720 603 676 c 0,11,12
 628 647 628 647 640.5 599 c 128,-1,13
 653 551 653 551 641 496 c 1,14,-1
 536 496 l 1,15,16
 539 516 539 516 536 543 c 128,-1,17
 533 570 533 570 520 593.5 c 128,-1,18
 507 617 507 617 482 632 c 128,-1,19
 457 647 457 647 414 644 c 0,20,21
 383 641 383 641 356 627.5 c 128,-1,22
 329 614 329 614 310.5 592 c 128,-1,23
 292 570 292 570 284.5 540.5 c 128,-1,24
 277 511 277 511 286 477 c 0,25,26
 293 460 293 460 302.5 436 c 128,-1,27
 312 412 312 412 315 387 c 1,28,-1
 408 387 l 1,29,-1
 417 330 l 1,30,-1
 318 330 l 1,31,32
 321 298 321 298 316 271.5 c 128,-1,33
 311 245 311 245 299 224 c 0,34,35
 287 200 287 200 271.5 182 c 128,-1,36
 256 164 256 164 240.5 149 c 128,-1,37
 225 134 225 134 210.5 123 c 128,-1,38
 196 112 196 112 186 103 c 1,39,40
 220 115 220 115 263 120 c 128,-1,41
 306 125 306 125 358 113 c 0,42,43
 380 106.5 l 0,44,45
 402 100 402 100 422 100 c 128,-1,46
 442 100 442 100 468.5 106 c 128,-1,47
 495 112 495 112 535 130 c 1,48,-1
 557 41 l 1,49,50
 542 35 542 35 520.5 25.5 c 128,-1,51
 499 16 499 16 472 8 c 128,-1,52
 445 0 445 0 411 -2 c 128,-1,53
 377 -4 377 -4 339 6 c 0,54,55
 302 16 302 16 274 22 c 128,-1,56
 246 28 246 28 219.5 28.5 c 128,-1,57
 193 29 193 29 165 22 c 128,-1,58
 137 15 137 15 102 -1 c 1,59,-1
 71 97 l 1,60,61
 90 112 90 112 112 126.5 c 128,-1,62
 134 141 134 141 164 171 c 0,63,64
 189 197 189 197 203 221 c 128,-1,65
 217 245 217 245 223.5 265.5 c 128,-1,66
 230 286 230 286 230 302 c 128,-1,67
 230 318 230 318 228 330 c 1,68,-1
 138 330 l 1,69,-1
 130 387 l 1,0,-1
EndSplineSet
EndChar
StartChar: currency
Encoding: 164 164 103
Width: 715
VWidth: 1473
Flags: W
HStem: 85 95<318.906 447.219> 488 97<430.616 539.046>
Fore
684 337 m 0,0,1
 675 295 675 295 653.5 259.5 c 128,-1,2
 632 224 632 224 604 194 c 1,3,-1
 631 161 l 2,4,5
 644 144 644 144 638 128 c 128,-1,6
 632 112 632 112 620 100 c 0,7,8
 607 88 607 88 585 85 c 128,-1,9
 563 82 563 82 551 99 c 2,10,-1
 523 133 l 1,11,12
 482 106 482 106 448.5 95.5 c 128,-1,13
 415 85 415 85 376 85 c 0,14,15
 329 85 329 85 300 97 c 128,-1,16
 271 109 271 109 246 134 c 1,17,-1
 203 99 l 2,18,19
 184 82 184 82 166.5 85 c 128,-1,20
 149 88 149 88 140 100 c 0,21,22
 133 112 133 112 131.5 130.5 c 128,-1,23
 130 149 130 149 147 165 c 2,24,-1
 192 202 l 1,25,26
 175 233 175 233 171.5 260 c 128,-1,27
 168 287 168 287 177 331 c 0,28,29
 189 386 189 386 211 419 c 128,-1,30
 233 452 233 452 253 477 c 1,31,-1
 222 517 l 2,32,33
 211 532 211 532 219.5 550.5 c 128,-1,34
 228 569 228 569 240 580 c 0,35,36
 253 591 253 591 274 597 c 128,-1,37
 295 603 295 603 308 588 c 2,38,-1
 339 545 l 1,39,40
 377 569 377 569 409.5 577 c 128,-1,41
 442 585 442 585 482 585 c 0,42,43
 529 585 529 585 556 574.5 c 128,-1,44
 583 564 583 564 608 542 c 1,45,-1
 654 582 l 2,46,47
 672 597 672 597 693.5 593 c 128,-1,48
 715 589 715 589 722 579 c 0,49,50
 731 567 731 567 730 547 c 128,-1,51
 729 527 729 527 710 513 c 2,52,-1
 666 476 l 1,53,54
 678 452 678 452 686.5 421 c 128,-1,55
 695 390 695 390 684 337 c 0,0,1
277 333 m 0,56,57
 262 267 262 267 296 223.5 c 128,-1,58
 330 180 330 180 396 180 c 256,59,60
 463 180 463 180 516.5 223.5 c 128,-1,61
 570 267 570 267 585 333 c 0,62,63
 598 399 598 399 563.5 443.5 c 128,-1,64
 529 488 529 488 463 488 c 0,65,66
 430 488 430 488 399 476 c 128,-1,67
 368 464 368 464 343 442.5 c 128,-1,68
 318 421 318 421 300.5 393 c 128,-1,69
 283 365 283 365 277 333 c 0,56,57
EndSplineSet
EndChar
StartChar: yen
Encoding: 165 165 104
Width: 562
VWidth: 1473
Flags: W
HStem: -4 21G<269.5 293.5> 156 68<118 255 390 524> 275 70<143 280 418 550>
Fore
670 716 m 0,0,1
 689 700 689 700 689 675.5 c 128,-1,2
 689 651 689 651 669 631 c 2,3,-1
 418 345 l 1,4,-1
 564 345 l 1,5,-1
 550 275 l 1,6,-1
 401 275 l 1,7,-1
 390 224 l 1,8,-1
 539 224 l 1,9,-1
 524 156 l 1,10,-1
 376 156 l 1,11,-1
 354 53 l 2,12,13
 348 28 348 28 327 12 c 128,-1,14
 306 -4 306 -4 281 -4 c 0,15,16
 258 -4 258 -4 243 12.5 c 128,-1,17
 228 29 228 29 233 53 c 2,18,-1
 255 156 l 1,19,-1
 103 156 l 1,20,-1
 118 224 l 1,21,-1
 270 224 l 1,22,-1
 280 275 l 1,23,-1
 128 275 l 1,24,-1
 143 345 l 1,25,-1
 292 345 l 1,26,-1
 165 632 l 2,27,28
 158 654 158 654 168 677.5 c 128,-1,29
 178 701 178 701 202 716 c 0,30,31
 227 728 227 728 250.5 721.5 c 128,-1,32
 274 715 274 715 280 691 c 2,33,34
 290.5 663.5 l 2,35,36
 301 636 301 636 317 598.5 c 128,-1,37
 333 561 333 561 350 520.5 c 128,-1,38
 367 480 367 480 380 452 c 1,39,-1
 582 692 l 2,40,41
 600 716 600 716 626.5 722 c 128,-1,42
 653 728 653 728 670 716 c 0,0,1
EndSplineSet
EndChar
StartChar: brokenbar
Encoding: 166 166 105
Width: 241
VWidth: 1473
Flags: W
VStem: 43 267<-212 750 -528.928 -162.512>
Fore
281 765 m 0,0,1
 305 765 305 765 310 750 c 128,-1,2
 315 735 315 735 308 703 c 2,3,-1
 246 411 l 2,4,5
 239 380 239 380 228 364 c 128,-1,6
 217 348 217 348 193 348 c 0,7,8
 171 348 171 348 165 364 c 128,-1,9
 159 380 159 380 166 411 c 2,10,-1
 228 703 l 2,11,12
 236 735 236 735 247.5 750 c 128,-1,13
 259 765 259 765 281 765 c 0,0,1
159 190 m 0,14,15
 183 190 183 190 188 175.5 c 128,-1,16
 193 161 193 161 186 128 c 2,17,-1
 124 -165 l 2,18,19
 116 -196 116 -196 105 -212 c 128,-1,20
 94 -228 94 -228 71 -228 c 0,21,22
 49 -228 49 -228 43 -212 c 128,-1,23
 37 -196 37 -196 44 -165 c 2,24,-1
 106 128 l 2,25,26
 113 161 113 161 125 175.5 c 128,-1,27
 137 190 137 190 159 190 c 0,14,15
EndSplineSet
EndChar
StartChar: section
Encoding: 167 167 106
Width: 695
VWidth: 1473
Flags: W
HStem: 529 21G<609.5 633.5> 691 100<446.008 555.79>
VStem: 147 112<30.2222 106.634> 580 109<556.172 620.503>
Fore
628 193 m 0,0,1
 608 169 608 169 584.5 151 c 128,-1,2
 561 133 561 133 545 130 c 1,3,4
 572 82 572 82 560 32 c 128,-1,5
 548 -18 548 -18 512 -59 c 128,-1,6
 476 -100 476 -100 423 -126 c 128,-1,7
 370 -152 370 -152 314 -149 c 0,8,9
 212 -143 212 -143 169.5 -92 c 128,-1,10
 127 -41 127 -41 147 62 c 0,11,12
 155 88 155 88 174 103.5 c 128,-1,13
 193 119 193 119 218 119 c 256,14,15
 243 119 243 119 255.5 103.5 c 128,-1,16
 268 88 268 88 259 59 c 0,17,18
 250 24 250 24 258.5 -1.5 c 128,-1,19
 267 -27 267 -27 286.5 -40 c 128,-1,20
 306 -53 306 -53 332 -55 c 128,-1,21
 358 -57 358 -57 385 -47 c 256,22,23
 411 -37 411 -37 426.5 -16.5 c 128,-1,24
 442 4 442 4 446.5 27 c 128,-1,25
 451 50 451 50 444.5 70 c 128,-1,26
 438 90 438 90 420 99 c 0,27,28
 367 134 367 134 324 161 c 0,29,30
 287 184 287 184 257 203 c 128,-1,31
 227 222 227 222 225 224 c 0,32,33
 192 242 192 242 178.5 281 c 128,-1,34
 165 320 165 320 172.5 364 c 128,-1,35
 180 408 180 408 208.5 451.5 c 128,-1,36
 237 495 237 495 287 523 c 1,37,38
 267 561 267 561 276.5 610.5 c 128,-1,39
 286 660 286 660 320 701 c 256,40,41
 354 742 354 742 407.5 766.5 c 128,-1,42
 461 791 461 791 520 791 c 0,43,44
 564 791 564 791 599.5 775.5 c 128,-1,45
 635 760 635 760 658.5 733 c 128,-1,46
 682 706 682 706 690 668.5 c 128,-1,47
 698 631 698 631 689 586 c 0,48,49
 684 561 684 561 664.5 545 c 128,-1,50
 645 529 645 529 622 529 c 0,51,52
 597 529 597 529 585 546.5 c 128,-1,53
 573 564 573 564 580 588 c 0,54,55
 583 603 583 603 582.5 621 c 128,-1,56
 582 639 582 639 574 654.5 c 128,-1,57
 566 670 566 670 549 680.5 c 128,-1,58
 532 691 532 691 502 691 c 0,59,60
 476 691 476 691 451.5 677 c 128,-1,61
 427 663 427 663 412.5 642.5 c 128,-1,62
 398 622 398 622 395 598.5 c 128,-1,63
 392 575 392 575 407 555 c 0,64,65
 415 544 415 544 445.5 524 c 128,-1,66
 476 504 476 504 511.5 482 c 128,-1,67
 547 460 547 460 580 439 c 128,-1,68
 613 418 613 418 629 405 c 0,69,70
 650 387 650 387 661 362 c 128,-1,71
 672 337 672 337 672 309 c 128,-1,72
 672 281 672 281 661 251 c 128,-1,73
 650 221 650 221 628 193 c 0,0,1
491 202 m 1,74,75
 508 206 508 206 524.5 221.5 c 128,-1,76
 541 237 541 237 549.5 257 c 128,-1,77
 558 277 558 277 556 297 c 128,-1,78
 554 317 554 317 533 329 c 2,79,80
 510.5 343.5 l 2,81,82
 488 358 488 358 457 378 c 128,-1,83
 426 398 426 398 393.5 417 c 128,-1,84
 361 436 361 436 343 446 c 1,85,86
 315 438 315 438 300.5 419.5 c 128,-1,87
 286 401 286 401 280.5 381 c 128,-1,88
 275 361 275 361 279 345 c 128,-1,89
 283 329 283 329 295 323 c 2,90,-1
 319 307.5 l 2,91,92
 343 292 343 292 359.5 282 c 0,93,-1
 424.5 242 l 0,94,95
 473 212 473 212 491 202 c 1,74,75
EndSplineSet
EndChar
StartChar: dieresis
Encoding: 168 168 107
Width: 402
VWidth: 1473
Flags: W
HStem: 575 138<190.267 268.249 406.752 484.734>
VStem: 158 141<619.566 697.191> 374 142<619.674 697.299>
Fore
217 575 m 0,0,1
 184 575 184 575 168 594.5 c 128,-1,2
 152 614 152 614 158 642 c 0,3,4
 165 672 165 672 189.5 692.5 c 128,-1,5
 214 713 214 713 246 713 c 0,6,7
 274 713 274 713 290 692.5 c 128,-1,8
 306 672 306 672 299 642 c 0,9,10
 293 614 293 614 269 594.5 c 128,-1,11
 245 575 245 575 217 575 c 0,0,1
433 575 m 0,12,13
 401 575 401 575 384.5 594.5 c 128,-1,14
 368 614 368 614 374 642 c 0,15,16
 382 672 382 672 406 692.5 c 128,-1,17
 430 713 430 713 463 713 c 0,18,19
 491 713 491 713 507 692.5 c 128,-1,20
 523 672 523 672 516 642 c 0,21,22
 510 614 510 614 485.5 594.5 c 128,-1,23
 461 575 461 575 433 575 c 0,12,13
EndSplineSet
EndChar
StartChar: copyright
Encoding: 169 169 108
Width: 847
VWidth: 1473
Flags: W
HStem: -21 73<321.842 549.203> 513 67<464.286 612.672> 666 68<446.527 671.366>
Fore
577 734 m 128,-1,1
 656 734 656 734 717.5 704.5 c 128,-1,2
 779 675 779 675 819.5 624 c 128,-1,3
 860 573 860 573 875 504.5 c 128,-1,4
 890 436 890 436 874 359 c 0,5,6
 857 280 857 280 813 210.5 c 128,-1,7
 769 141 769 141 707 89.5 c 128,-1,8
 645 38 645 38 570.5 8.5 c 128,-1,9
 496 -21 496 -21 418 -21 c 0,10,11
 339 -21 339 -21 276.5 8.5 c 128,-1,12
 214 38 214 38 172.5 89.5 c 128,-1,13
 131 141 131 141 116.5 210.5 c 128,-1,14
 102 280 102 280 118 359 c 0,15,16
 134 436 134 436 178 504.5 c 128,-1,17
 222 573 222 573 285 624 c 128,-1,18
 348 675 348 675 423 704.5 c 128,-1,0
 498 734 498 734 577 734 c 128,-1,1
433 52 m 0,19,20
 496 52 496 52 556.5 75.5 c 128,-1,21
 617 99 617 99 668 141 c 128,-1,22
 719 183 719 183 755 239 c 128,-1,23
 791 295 791 295 804 359 c 0,24,25
 818 423 818 423 806 478 c 128,-1,26
 794 533 794 533 761 575 c 128,-1,27
 728 617 728 617 678 641.5 c 128,-1,28
 628 666 628 666 564 666 c 0,29,30
 499 666 499 666 439 641.5 c 128,-1,31
 379 617 379 617 328 575 c 128,-1,32
 277 533 277 533 241 478 c 128,-1,33
 205 423 205 423 192 359 c 0,34,35
 178 295 178 295 190 239 c 128,-1,36
 202 183 202 183 234.5 141 c 128,-1,37
 267 99 267 99 317.5 75.5 c 128,-1,38
 368 52 368 52 433 52 c 0,19,20
703 514 m 0,39,40
 678 547 678 547 639.5 563.5 c 128,-1,41
 601 580 601 580 558 580 c 0,42,43
 514 580 514 580 470 564 c 128,-1,44
 426 548 426 548 388.5 518.5 c 128,-1,45
 351 489 351 489 323.5 447 c 128,-1,46
 296 405 296 405 286 355 c 0,47,48
 275 306 275 306 282.5 268.5 c 128,-1,49
 290 231 290 231 308 203 c 128,-1,50
 326 175 326 175 351 157.5 c 128,-1,51
 376 140 376 140 401 134 c 0,52,53
 448 118 448 118 509 129 c 128,-1,54
 570 140 570 140 632 192 c 0,55,56
 639 197 639 197 646.5 212 c 128,-1,57
 654 227 654 227 642 242 c 0,58,59
 633 253 633 253 618.5 251 c 128,-1,60
 604 249 604 249 594 240 c 0,61,62
 564 217 564 217 520 201.5 c 128,-1,63
 476 186 476 186 433 203 c 0,64,65
 420 208 420 208 403.5 216.5 c 128,-1,66
 387 225 387 225 374 243 c 128,-1,67
 361 261 361 261 355 288 c 128,-1,68
 349 315 349 315 358 355 c 0,69,70
 373 426 373 426 425 469.5 c 128,-1,71
 477 513 477 513 544 513 c 0,72,73
 604 513 604 513 641 463 c 0,74,75
 648 451 648 451 663 451 c 128,-1,76
 678 451 678 451 689 461 c 256,77,78
 701 471 701 471 705.5 487.5 c 128,-1,79
 710 504 710 504 703 514 c 0,39,40
EndSplineSet
EndChar
StartChar: ordfeminine
Encoding: 170 170 109
Width: 431
VWidth: 1473
Flags: W
HStem: 271 354<389 415 330 401 330 330> 271 59<198.568 323.436> 454 62<239.916 345.167> 558 67<280.741 406.426>
VStem: 118 358<392 395 454 464 392 464 392 392>
Fore
476 464 m 2,0,-1
 442 305 l 2,1,2
 439 289 439 289 427 280 c 128,-1,3
 415 271 415 271 401 271 c 0,4,5
 389 271 389 271 381 279 c 128,-1,6
 373 287 373 287 377 302 c 1,7,8
 354 289 354 289 322 280 c 128,-1,9
 290 271 290 271 258 271 c 0,10,11
 180 271 180 271 142.5 300.5 c 128,-1,12
 105 330 105 330 118 392 c 0,13,14
 130 443 130 443 183 479.5 c 128,-1,15
 236 516 236 516 315 516 c 0,16,17
 351 516 351 516 380.5 505.5 c 128,-1,18
 410 495 410 495 417 480 c 1,19,20
 427 517 427 517 407 537.5 c 128,-1,21
 387 558 387 558 318 558 c 0,22,23
 289 558 289 558 263 551.5 c 128,-1,24
 237 545 237 545 214 533 c 0,25,26
 192 522 192 522 183 528.5 c 128,-1,27
 174 535 174 535 171 538 c 1,28,29
 164 550 164 550 170.5 566 c 128,-1,30
 177 582 177 582 194 591 c 0,31,32
 224 608 224 608 258.5 616.5 c 128,-1,33
 293 625 293 625 330 625 c 0,34,35
 415 625 415 625 458 588 c 128,-1,36
 501 551 501 551 476 464 c 2,0,-1
270 330 m 0,37,38
 315 330 315 330 351 345.5 c 128,-1,39
 387 361 387 361 395 390 c 0,40,41
 399 410 399 410 392 421.5 c 128,-1,42
 385 433 385 433 371 440.5 c 128,-1,43
 357 448 357 448 337.5 451 c 128,-1,44
 318 454 318 454 299 454 c 0,45,46
 281 454 281 454 262 450 c 128,-1,47
 243 446 243 446 227 439 c 128,-1,48
 211 432 211 432 199 421 c 128,-1,49
 187 410 187 410 183 395 c 0,50,51
 175 361 175 361 202.5 345.5 c 128,-1,52
 230 330 230 330 270 330 c 0,37,38
EndSplineSet
EndChar
StartChar: guillemotleft
Encoding: 171 171 110
Width: 578
VWidth: 1473
Flags: W
HStem: 39.5 456.5<204.5 302 302 302>
VStem: 103 489<274 456.5 274 274>
Fore
214 268 m 1,0,1
 220 252 220 252 230 227 c 128,-1,2
 240 202 240 202 252 177 c 0,3,4
 265 149 265 149 278 118 c 0,5,6
 286 102 286 102 276.5 79 c 128,-1,7
 267 56 267 56 246 47 c 0,8,9
 225 35 225 35 204.5 39.5 c 128,-1,10
 184 44 184 44 180 65 c 1,11,12
 174.5 78 l 2,13,14
 169 91 169 91 161 112 c 128,-1,15
 153 133 153 133 143.5 156.5 c 128,-1,16
 134 180 134 180 125 200 c 128,-1,17
 116 220 116 220 110.5 233 c 128,-1,18
 105 246 105 246 105 247 c 2,19,20
 97 264 97 264 103 274 c 128,-1,21
 109 284 109 284 118 296 c 2,22,-1
 267 473 l 2,23,24
 280 491 280 491 302 496 c 128,-1,25
 324 501 324 501 340 489 c 256,26,27
 357 477 357 477 357 456.5 c 128,-1,28
 357 436 357 436 342 418 c 0,29,30
 315 387 315 387 290 359 c 0,31,32
 270 334 270 334 247.5 309 c 128,-1,33
 225 284 225 284 214 268 c 1,0,1
449 268 m 1,34,35
 455 252 455 252 465.5 227 c 128,-1,36
 476 202 476 202 488 177 c 0,37,38
 501 149 501 149 514 118 c 0,39,40
 522 102 522 102 512 79 c 128,-1,41
 502 56 502 56 482 47 c 0,42,43
 461 35 461 35 440.5 39.5 c 128,-1,44
 420 44 420 44 415 65 c 1,45,-1
 410 78 l 2,46,47
 405 91 405 91 397 112 c 128,-1,48
 389 133 389 133 379.5 156.5 c 128,-1,49
 370 180 370 180 361 200 c 128,-1,50
 352 220 352 220 346 233 c 128,-1,51
 340 246 340 246 340 247 c 2,52,53
 333 264 333 264 339 274 c 128,-1,54
 345 284 345 284 354 296 c 2,55,-1
 502 473 l 2,56,57
 516 491 516 491 538 496 c 128,-1,58
 560 501 560 501 576 489 c 256,59,60
 592 477 592 477 592 456.5 c 128,-1,61
 592 436 592 436 577 418 c 0,62,63
 551 387 551 387 526 359 c 0,64,65
 505 334 505 334 483 309 c 128,-1,66
 461 284 461 284 449 268 c 1,34,35
EndSplineSet
EndChar
StartChar: logicalnot
Encoding: 172 172 111
Width: 855
VWidth: 1473
Flags: W
HStem: 82 354<728.156 775.375> 327 109<143.08 728>
Fore
863 436 m 1,0,-1
 800 137 l 2,1,2
 796 115 796 115 776 98.5 c 128,-1,3
 756 82 756 82 734 82 c 0,4,5
 710 82 710 82 696 97.5 c 128,-1,6
 682 113 682 113 687 137 c 2,7,-1
 728 327 l 1,8,-1
 164 327 l 2,9,10
 140 327 140 327 126.5 343 c 128,-1,11
 113 359 113 359 119 383 c 0,12,13
 124 408 124 408 142.5 422 c 128,-1,14
 161 436 161 436 186 436 c 2,15,-1
 863 436 l 1,0,-1
EndSplineSet
EndChar
StartChar: registered
Encoding: 174 174 112
Width: 782
VWidth: 1473
Flags: W
HStem: -19 71<290.056 517.607> 524 65<477.541 567.335> 666 72<415.867 640.884>
Fore
844 359 m 256,0,1
 828 281 828 281 783 212 c 128,-1,2
 738 143 738 143 676 91.5 c 128,-1,3
 614 40 614 40 539 10.5 c 128,-1,4
 464 -19 464 -19 386 -19 c 256,5,6
 308 -19 308 -19 245.5 10.5 c 128,-1,7
 183 40 183 40 141.5 91.5 c 128,-1,8
 100 143 100 143 85.5 212 c 128,-1,9
 71 281 71 281 87 359 c 256,10,11
 103 438 103 438 148 506.5 c 128,-1,12
 193 575 193 575 255 626.5 c 128,-1,13
 317 678 317 678 392.5 708 c 128,-1,14
 468 738 468 738 547 738 c 256,15,16
 625 738 625 738 687.5 708 c 128,-1,17
 750 678 750 678 790.5 626.5 c 128,-1,18
 831 575 831 575 845.5 506.5 c 128,-1,19
 860 438 860 438 844 359 c 256,0,1
772 359 m 128,-1,21
 785 423 785 423 773.5 479 c 128,-1,22
 762 535 762 535 729.5 577 c 128,-1,23
 697 619 697 619 646 642.5 c 128,-1,24
 595 666 595 666 532 666 c 0,25,26
 467 666 467 666 406 642.5 c 128,-1,27
 345 619 345 619 294 577 c 128,-1,28
 243 535 243 535 207 479 c 128,-1,29
 171 423 171 423 158 359 c 0,30,31
 144 295 144 295 156.5 239 c 128,-1,32
 169 183 169 183 201.5 141.5 c 128,-1,33
 234 100 234 100 285 76 c 128,-1,34
 336 52 336 52 401 52 c 0,35,36
 464 52 464 52 525 76 c 128,-1,37
 586 100 586 100 637 141.5 c 128,-1,38
 688 183 688 183 723.5 239 c 128,-1,20
 759 295 759 295 772 359 c 128,-1,21
398 329 m 1,39,40
 383 336 383 336 376.5 346.5 c 128,-1,41
 370 357 370 357 382 373 c 0,42,43
 392 387 392 387 408 388.5 c 128,-1,44
 424 390 424 390 436 385 c 0,45,46
 454 376 454 376 479.5 370.5 c 128,-1,47
 505 365 505 365 531.5 368 c 128,-1,48
 558 371 558 371 581 385 c 128,-1,49
 604 399 604 399 613 429 c 0,50,51
 626 466 626 466 601.5 496 c 128,-1,52
 577 526 577 526 508 524 c 0,53,54
 443 522 443 522 407 499 c 128,-1,55
 371 476 371 476 359 418 c 2,56,-1
 309 186 l 2,57,58
 306 169 306 169 298 157.5 c 128,-1,59
 290 146 290 146 273 146 c 0,60,61
 253 146 253 146 248 157.5 c 128,-1,62
 243 169 243 169 246 186 c 2,63,-1
 302 445 l 2,64,65
 309 482 309 482 331.5 509 c 128,-1,66
 354 536 354 536 384.5 554 c 128,-1,67
 415 572 415 572 451.5 580.5 c 128,-1,68
 488 589 488 589 523 589 c 0,69,70
 554 589 554 589 586.5 582 c 128,-1,71
 619 575 619 575 643 558 c 128,-1,72
 667 541 667 541 679 513 c 128,-1,73
 691 485 691 485 682 442 c 0,74,75
 675 408 675 408 658.5 383 c 128,-1,76
 642 358 642 358 620 342 c 128,-1,77
 598 326 598 326 572.5 318.5 c 128,-1,78
 547 311 547 311 523 311 c 1,79,80
 550 292 550 292 572 260 c 128,-1,81
 594 228 594 228 605 190 c 0,82,83
 610 178 610 178 607 165 c 128,-1,84
 604 152 604 152 583 144 c 0,85,86
 575 141 575 141 567 141 c 256,87,88
 560 141 560 141 554 145.5 c 128,-1,89
 548 150 548 150 544 165 c 0,90,91
 532 192 532 192 513.5 217 c 128,-1,92
 495 242 495 242 474.5 262.5 c 128,-1,93
 454 283 454 283 433 300 c 128,-1,94
 412 317 412 317 398 329 c 1,39,40
EndSplineSet
EndChar
StartChar: macron
Encoding: 175 175 113
Width: 483
VWidth: 1473
Flags: W
HStem: 622 101<202.594 220 220 559.922>
VStem: 178 405<636.965 705.545 672 672 672 672>
Fore
220 622 m 1,0,1
 200 620 200 620 187.5 635.5 c 128,-1,2
 175 651 175 651 178 672 c 0,3,4
 183 692 183 692 202 707.5 c 128,-1,5
 221 723 221 723 242 723 c 2,6,-1
 544 723 l 2,7,8
 564 723 564 723 576.5 708.5 c 128,-1,9
 589 694 589 694 583 672 c 0,10,11
 579 651 579 651 560.5 636.5 c 128,-1,12
 542 622 542 622 522 622 c 2,13,-1
 220 622 l 1,0,1
EndSplineSet
EndChar
StartChar: degree
Encoding: 176 176 114
Width: 318
VWidth: 1473
Flags: W
HStem: 466 63<225.766 303.256> 661 64<264.41 341.685>
VStem: 153 259<569 595 595 622 595 595 595 595>
Fore
153 595 m 0,0,1
 159 622 159 622 174.5 645.5 c 128,-1,2
 190 669 190 669 211.5 686.5 c 128,-1,3
 233 704 233 704 258.5 714.5 c 128,-1,4
 284 725 284 725 311 725 c 0,5,6
 365 725 365 725 394.5 687.5 c 128,-1,7
 424 650 424 650 412 595 c 0,8,9
 407 569 407 569 392 545.5 c 128,-1,10
 377 522 377 522 355.5 504 c 128,-1,11
 334 486 334 486 308.5 476 c 128,-1,12
 283 466 283 466 256 466 c 0,13,14
 202 466 202 466 171.5 503.5 c 128,-1,15
 141 541 141 541 153 595 c 0,0,1
217 595 m 0,16,17
 211 567 211 567 226.5 548 c 128,-1,18
 242 529 242 529 270 529 c 256,19,20
 298 529 298 529 320.5 548 c 128,-1,21
 343 567 343 567 349 595 c 0,22,23
 357 623 357 623 341.5 642 c 128,-1,24
 326 661 326 661 298 661 c 256,25,26
 270 661 270 661 247 642 c 128,-1,27
 224 623 224 623 217 595 c 0,16,17
EndSplineSet
EndChar
StartChar: plusminus
Encoding: 177 177 115
Width: 632
VWidth: 1473
Flags: W
HStem: 0 109<97.173 556.433> 299 109<159.173 323 455 624.917>
Fore
648 355 m 0,0,1
 644 334 644 334 625.5 316.5 c 128,-1,2
 607 299 607 299 570 299 c 2,3,-1
 433 299 l 1,4,-1
 414 214 l 2,5,6
 407 177 407 177 387 162 c 128,-1,7
 367 147 367 147 346 147 c 0,8,9
 317 147 317 147 307.5 166.5 c 128,-1,10
 298 186 298 186 303 214 c 2,11,-1
 323 299 l 1,12,-1
 186 299 l 2,13,14
 158 299 158 299 141 312.5 c 128,-1,15
 124 326 124 326 131 355 c 0,16,17
 137 383 137 383 158.5 395.5 c 128,-1,18
 180 408 180 408 208 408 c 2,19,-1
 345 408 l 1,20,-1
 364 498 l 2,21,22
 371 526 371 526 388 544.5 c 128,-1,23
 405 563 405 563 435 563 c 0,24,25
 461 563 461 563 470.5 543.5 c 128,-1,26
 480 524 480 524 474 498 c 2,27,-1
 455 408 l 1,28,-1
 592 408 l 2,29,30
 620 408 620 408 637 395.5 c 128,-1,31
 654 383 654 383 648 355 c 0,0,1
579 56 m 0,32,33
 575 35 575 35 557 17.5 c 128,-1,34
 539 0 539 0 502 0 c 2,35,-1
 122 0 l 2,36,37
 94 0 94 0 78 13.5 c 128,-1,38
 62 27 62 27 69 56 c 0,39,40
 75 84 75 84 96.5 96.5 c 128,-1,41
 118 109 118 109 144 109 c 2,42,-1
 524 109 l 2,43,44
 551 109 551 109 568 96.5 c 128,-1,45
 585 84 585 84 579 56 c 0,32,33
EndSplineSet
EndChar
StartChar: twosuperior
Encoding: 178 178 116
Width: 455
VWidth: 1473
Flags: W
HStem: 280 84<293 433.234> 631 84<300.9 401.976>
VStem: 184 81<561.816 638.668>
Fore
460 352 m 0,0,1
 470 339 470 339 466 321 c 0,2,3
 463 305 463 305 448 292.5 c 128,-1,4
 433 280 433 280 417 280 c 2,5,-1
 162 280 l 2,6,7
 146 280 146 280 137 289 c 128,-1,8
 128 298 128 298 126.5 310.5 c 128,-1,9
 125 323 125 323 131 337 c 128,-1,10
 137 351 137 351 149 359 c 2,11,-1
 180 380 l 2,12,13
 203 396 203 396 251 429.5 c 128,-1,14
 299 463 299 463 390 526 c 0,15,16
 415 541 415 541 422.5 559 c 128,-1,17
 430 577 430 577 425 592.5 c 128,-1,18
 420 608 420 608 404.5 619.5 c 128,-1,19
 389 631 389 631 368 631 c 0,20,21
 326 631 326 631 300 608.5 c 128,-1,22
 274 586 274 586 265 557 c 0,23,24
 261 541 261 541 244.5 529 c 128,-1,25
 228 517 228 517 211 519 c 0,26,27
 196 522 196 522 188 534.5 c 128,-1,28
 180 547 180 547 184 564 c 0,29,30
 205 635 205 635 258 675 c 128,-1,31
 311 715 311 715 387 715 c 0,32,33
 439 715 439 715 470.5 689 c 128,-1,34
 502 663 502 663 510.5 624 c 128,-1,35
 519 585 519 585 501 540.5 c 128,-1,36
 483 496 483 496 436 461 c 0,37,38
 383 426 l 0,39,40
 361 410 361 410 336.5 393 c 128,-1,41
 312 376 312 376 293 364 c 1,42,-1
 435 364 l 2,43,44
 452 364 452 364 460 352 c 0,0,1
EndSplineSet
EndChar
StartChar: threesuperior
Encoding: 179 179 117
Width: 412
VWidth: 1473
Flags: W
HStem: 274 77<236.674 334.379> 471 80<281.967 360.562> 636 79<308.423 386.834>
VStem: 141 89<387.709 443.203> 184 89<572.681 626.008>
Fore
414 516 m 1,0,1
 435 508 435 508 446.5 478 c 128,-1,2
 458 448 458 448 451 410 c 0,3,4
 436 346 436 346 383 310 c 128,-1,5
 330 274 330 274 271 274 c 0,6,7
 240 274 240 274 213 280.5 c 128,-1,8
 186 287 186 287 167.5 303.5 c 128,-1,9
 149 320 149 320 141 346.5 c 128,-1,10
 133 373 133 373 141 411 c 0,11,12
 144 430 144 430 159 442 c 128,-1,13
 174 454 174 454 193 454 c 0,14,15
 214 454 214 454 223.5 442 c 128,-1,16
 233 430 233 430 230 411 c 0,17,18
 222 382 222 382 239 366.5 c 128,-1,19
 256 351 256 351 289 351 c 0,20,21
 314 351 314 351 338 362.5 c 128,-1,22
 362 374 362 374 374 405 c 0,23,24
 377 414 377 414 378 425 c 128,-1,25
 379 436 379 436 376 446.5 c 128,-1,26
 373 457 373 457 365.5 464 c 128,-1,27
 358 471 358 471 345 471 c 2,28,-1
 283 471 l 2,29,30
 265 471 265 471 255.5 484.5 c 128,-1,31
 246 498 246 498 250 514 c 0,32,33
 253 529 253 529 268.5 540 c 128,-1,34
 284 551 284 551 299 551 c 2,35,-1
 358 551 l 2,36,37
 365 551 365 551 378.5 562 c 128,-1,38
 392 573 392 573 395 595 c 0,39,40
 398 608 398 608 384 622 c 128,-1,41
 370 636 370 636 346 636 c 0,42,43
 305 636 305 636 290 623 c 128,-1,44
 275 610 275 610 273 598 c 0,45,46
 256 555 256 555 218 555 c 0,47,48
 199 555 199 555 189.5 567 c 128,-1,49
 180 579 180 579 184 598 c 0,50,51
 189 622 189 622 205.5 643 c 128,-1,52
 222 664 222 664 246.5 680.5 c 128,-1,53
 271 697 271 697 302 706 c 128,-1,54
 333 715 333 715 365 715 c 0,55,56
 426 715 426 715 454 682.5 c 128,-1,57
 482 650 482 650 479 610 c 0,58,59
 480 585 480 585 461 556 c 128,-1,60
 442 527 442 527 414 516 c 1,0,1
EndSplineSet
EndChar
StartChar: acute
Encoding: 180 180 118
Width: 372
VWidth: 1473
Flags: W
HStem: 588 149<315 362 362 362>
Fore
362 737 m 1,0,-1
 488 737 l 1,1,-1
 315 588 l 1,2,-1
 249 588 l 1,3,-1
 362 737 l 1,0,-1
EndSplineSet
EndChar
StartChar: mu
Encoding: 181 181 119
Width: 707
VWidth: 1473
Flags: W
HStem: -7 109<282.99 445.59> 507 20G<241.5 263.5 665 686.5>
Fore
175 46 m 2,0,1
 172 21 172 21 170.5 6 c 128,-1,2
 169 -9 169 -9 168.5 -19 c 128,-1,3
 168 -29 168 -29 168 -38 c 128,-1,4
 168 -47 168 -47 169 -59 c 0,5,6
 171 -82 171 -82 168.5 -113 c 128,-1,7
 166 -144 166 -144 156.5 -171.5 c 128,-1,8
 147 -199 147 -199 128.5 -217.5 c 128,-1,9
 110 -236 110 -236 82 -236 c 0,10,11
 49 -236 49 -236 37 -217.5 c 128,-1,12
 25 -199 25 -199 26 -172.5 c 128,-1,13
 27 -146 27 -146 36.5 -115.5 c 128,-1,14
 46 -85 46 -85 56 -62 c 0,15,16
 63 -49 63 -49 71 -28 c 0,17,18
 78 -12 78 -12 86 14 c 128,-1,19
 94 40 94 40 102 74 c 2,20,-1
 187 474 l 2,21,22
 192 496 192 496 211.5 511.5 c 128,-1,23
 231 527 231 527 252 527 c 0,24,25
 275 527 275 527 286.5 512.5 c 128,-1,26
 298 498 298 498 293 474 c 2,27,-1
 247 259 l 2,28,29
 231 187 231 187 261.5 144.5 c 128,-1,30
 292 102 292 102 373 102 c 0,31,32
 455 102 455 102 501.5 139.5 c 128,-1,33
 548 177 548 177 566 259 c 2,34,-1
 611 474 l 2,35,36
 616 496 616 496 635 511.5 c 128,-1,37
 654 527 654 527 676 527 c 0,38,39
 697 527 697 527 710 511.5 c 128,-1,40
 723 496 723 496 717 474 c 2,41,-1
 628 49 l 2,42,43
 622 25 622 25 603.5 9.5 c 128,-1,44
 585 -6 585 -6 563 -6 c 0,45,46
 542 -6 542 -6 528 8 c 128,-1,47
 514 22 514 22 520 44 c 2,48,-1
 523 56 l 1,49,50
 485 27 485 27 440.5 10 c 128,-1,51
 396 -7 396 -7 349 -7 c 0,52,53
 287 -7 287 -7 243 15.5 c 128,-1,54
 199 38 199 38 180 72 c 1,55,-1
 175 46 l 2,0,1
EndSplineSet
EndChar
StartChar: paragraph
Encoding: 182 182 120
Width: 593
VWidth: 1473
Flags: W
HStem: 589 112<440 472.938 472.938 518.251 518.251 539>
VStem: 137 497.5<395 636 320.938 366.251>
Fore
620 673 m 0,0,1
 631 659 631 659 634.5 636 c 128,-1,2
 638 613 638 613 633 589 c 2,3,-1
 470 -175 l 2,4,5
 466 -199 466 -199 450.5 -216.5 c 128,-1,6
 435 -234 435 -234 410 -234 c 0,7,8
 382 -234 382 -234 376.5 -216.5 c 128,-1,9
 371 -199 371 -199 376 -175 c 2,10,-1
 539 589 l 1,11,-1
 440 589 l 1,12,-1
 278 -169 l 2,13,14
 274 -192 274 -192 259.5 -208.5 c 128,-1,15
 245 -225 245 -225 221 -225 c 256,16,17
 197 -225 197 -225 190.5 -207.5 c 128,-1,18
 184 -190 184 -190 189 -169 c 2,19,-1
 283 277 l 1,20,21
 247 277 247 277 216.5 291 c 128,-1,22
 186 305 186 305 165 331 c 128,-1,23
 144 357 144 357 137 395 c 128,-1,24
 130 433 130 433 138 482 c 0,25,26
 147 529 147 529 172 568.5 c 128,-1,27
 197 608 197 608 232.5 637.5 c 128,-1,28
 268 667 268 667 311.5 684 c 128,-1,29
 355 701 355 701 399 701 c 2,30,-1
 449 701 l 2,31,32
 471 701 471 701 497 700.5 c 128,-1,33
 523 700 523 700 547 701 c 0,34,35
 548 701 548 701 557 701 c 128,-1,36
 566 701 566 701 577 698 c 128,-1,37
 588 695 588 695 599.5 689.5 c 128,-1,38
 611 684 611 684 620 673 c 0,0,1
EndSplineSet
EndChar
StartChar: periodcentered
Encoding: 183 183 121
Width: 338
VWidth: 1473
Flags: W
HStem: 253 190<198.18 288.425>
VStem: 147 192<321.458 413.498>
Fore
339 348 m 0,0,1
 330 308 330 308 296 280.5 c 128,-1,2
 262 253 262 253 222 253 c 0,3,4
 184 253 184 253 161 280.5 c 128,-1,5
 138 308 138 308 147 348 c 0,6,7
 155 387 155 387 189.5 415 c 128,-1,8
 224 443 224 443 262 443 c 0,9,10
 302 443 302 443 324 415 c 128,-1,11
 346 387 346 387 339 348 c 0,0,1
EndSplineSet
EndChar
StartChar: cedilla
Encoding: 184 184 122
Width: 318
VWidth: 1473
Flags: W
HStem: -222.5 228.5<71 147 147 147> -222.5 65.5<79.5903 128.218>
VStem: -3 253<-197 -131 -197 -197>
Fore
250 -131 m 0,0,1
 236 -165 236 -165 208 -187 c 128,-1,2
 180 -209 180 -209 145 -218 c 128,-1,3
 110 -227 110 -227 71 -222.5 c 128,-1,4
 32 -218 32 -218 -3 -197 c 1,5,-1
 41 -136 l 1,6,7
 50 -144 50 -144 67.5 -150 c 128,-1,8
 85 -156 85 -156 103 -157 c 128,-1,9
 121 -158 121 -158 135 -150.5 c 128,-1,10
 149 -143 149 -143 152 -125 c 0,11,12
 158 -100 158 -100 133 -93.5 c 128,-1,13
 108 -87 108 -87 69 -84 c 1,14,-1
 147 6 l 1,15,-1
 234 6 l 1,16,-1
 166 -47 l 1,17,18
 218 -40 218 -40 241.5 -67 c 128,-1,19
 265 -94 265 -94 250 -131 c 0,0,1
EndSplineSet
EndChar
StartChar: onesuperior
Encoding: 185 185 123
Width: 355
VWidth: 1473
Flags: W
HStem: 271 435<259 336 369 391>
VStem: 186 203<611 644 644 666>
Fore
379 701 m 1,0,1
 386 694 386 694 388 684.5 c 128,-1,2
 390 675 390 675 389 666 c 2,3,-1
 314 315 l 2,4,5
 311 298 311 298 295.5 284.5 c 128,-1,6
 280 271 280 271 259 271 c 0,7,8
 243 271 243 271 232.5 285 c 128,-1,9
 222 299 222 299 225 315 c 2,10,-1
 287 605 l 1,11,-1
 237 588 l 2,12,13
 221 580 221 580 205 587.5 c 128,-1,14
 189 595 189 595 186 611 c 256,15,16
 183 628 183 628 194 644 c 128,-1,17
 205 660 205 660 225 667 c 2,18,-1
 336 706 l 2,19,20
 362 712 362 712 379 701 c 1,0,1
EndSplineSet
EndChar
StartChar: ordmasculine
Encoding: 186 186 124
Width: 433
VWidth: 1473
Flags: W
HStem: 275 80<253.562 334.305> 548 80<290.876 376.637>
VStem: 134 360<489 489 448 520.5 448 448>
Fore
492 454 m 0,0,1
 482 407 482 407 457.5 373 c 128,-1,2
 433 339 433 339 402 317.5 c 128,-1,3
 371 296 371 296 337 285.5 c 128,-1,4
 303 275 303 275 274 275 c 0,5,6
 197 275 197 275 157.5 324 c 128,-1,7
 118 373 118 373 134 448 c 0,8,9
 143 489 143 489 165 523 c 128,-1,10
 187 557 187 557 217 580 c 128,-1,11
 247 603 247 603 281 615.5 c 128,-1,12
 315 628 315 628 349 628 c 0,13,14
 390 628 390 628 421 614 c 128,-1,15
 452 600 452 600 470.5 576 c 128,-1,16
 489 552 489 552 494 520.5 c 128,-1,17
 499 489 499 489 492 454 c 0,0,1
408 451 m 0,18,19
 411 467 411 467 409.5 484 c 128,-1,20
 408 501 408 501 400 515.5 c 128,-1,21
 392 530 392 530 375.5 539 c 128,-1,22
 359 548 359 548 334 548 c 0,23,24
 287 548 287 548 257 517 c 128,-1,25
 227 486 227 486 220 449 c 0,26,27
 215 424 215 424 219.5 406.5 c 128,-1,28
 224 389 224 389 235 378 c 128,-1,29
 246 367 246 367 261.5 361 c 128,-1,30
 277 355 277 355 293 355 c 0,31,32
 329 355 329 355 362.5 378 c 128,-1,33
 396 401 396 401 408 451 c 0,18,19
EndSplineSet
EndChar
StartChar: guillemotright
Encoding: 187 187 125
Width: 576
VWidth: 1473
Flags: W
HStem: 39.5 456.5<381 476.5 476.5 476.5>
VStem: 91.5 489.5<79 274 79 79>
Fore
468 268 m 1,0,1
 461 284 461 284 456 296.5 c 0,2,-1
 430 359 l 0,3,4
 418 387 418 387 405 418 c 0,5,6
 398 436 398 436 406.5 456.5 c 128,-1,7
 415 477 415 477 436 489 c 256,8,9
 457 501 457 501 476.5 496 c 128,-1,10
 496 491 496 491 504 473 c 2,11,-1
 576 296 l 2,12,13
 580 284 580 284 581 274 c 128,-1,14
 582 264 582 264 569 247 c 2,15,16
 557 233.5 l 2,17,18
 545 220 545 220 528 200 c 128,-1,19
 511 180 511 180 491 156.5 c 128,-1,20
 471 133 471 133 455 112 c 128,-1,21
 439 91 439 91 428.5 78.5 c 128,-1,22
 418 66 418 66 417 65 c 0,23,24
 404 44 404 44 381 39.5 c 128,-1,25
 358 35 358 35 342 47 c 0,26,27
 326 56 326 56 327.5 79 c 128,-1,28
 329 102 329 102 342 118 c 0,29,30
 367 149 367 149 392 177 c 0,31,32
 412 202 412 202 433.5 227 c 128,-1,33
 455 252 455 252 468 268 c 1,0,1
233 268 m 1,34,35
 225 284 225 284 220 296.5 c 0,36,-1
 194 359 l 0,37,38
 183 387 183 387 169 418 c 0,39,40
 162 436 162 436 171 456.5 c 128,-1,41
 180 477 180 477 200 489 c 256,42,43
 221 501 221 501 241 496 c 128,-1,44
 261 491 261 491 268 473 c 2,45,-1
 340 296 l 2,46,47
 345 284 345 284 345.5 274 c 128,-1,48
 346 264 346 264 333 247 c 2,49,-1
 321 233.5 l 2,50,51
 309 220 309 220 292 200 c 128,-1,52
 275 180 275 180 255.5 156.5 c 128,-1,53
 236 133 236 133 219.5 112 c 128,-1,54
 203 91 203 91 193 78.5 c 128,-1,55
 183 66 183 66 181 65 c 0,56,57
 168 44 168 44 145 39.5 c 128,-1,58
 122 35 122 35 106 47 c 0,59,60
 90 56 90 56 91.5 79 c 128,-1,61
 93 102 93 102 106 118 c 0,62,63
 131 149 131 149 156 177 c 0,64,65
 177 202 177 202 198.5 227 c 128,-1,66
 220 252 220 252 233 268 c 1,34,35
EndSplineSet
EndChar
StartChar: onequarter
Encoding: 188 188 126
Width: 894
VWidth: 1473
Flags: W
HStem: 1 21G<751 768> 77 82<631 735> 585 20G<237 282.724>
Fore
174 -15 m 1,0,-1
 747 712 l 1,1,-1
 834 712 l 1,2,-1
 261 -15 l 1,3,-1
 174 -15 l 1,0,-1
877 149 m 0,4,5
 885 137 885 137 883.5 124.5 c 128,-1,6
 882 112 882 112 873.5 101 c 128,-1,7
 865 90 865 90 850 82.5 c 128,-1,8
 835 75 835 75 818 77 c 1,9,-1
 810 44 l 2,10,11
 807 28 807 28 791.5 14.5 c 128,-1,12
 776 1 776 1 760 1 c 0,13,14
 742 1 742 1 733.5 14.5 c 128,-1,15
 725 28 725 28 728 44 c 2,16,-1
 735 77 l 1,17,-1
 533 77 l 2,18,19
 520 75 520 75 512 81.5 c 128,-1,20
 504 88 504 88 501 99 c 128,-1,21
 498 110 498 110 501.5 123.5 c 128,-1,22
 505 137 505 137 516 146 c 2,23,-1
 810 421 l 2,24,25
 813 424 813 424 825.5 432 c 128,-1,26
 838 440 838 440 854 439 c 0,27,28
 871 436 871 436 879.5 423.5 c 128,-1,29
 888 411 888 411 884 395 c 2,30,-1
 835 161 l 1,31,32
 853 161 853 161 862 158.5 c 128,-1,33
 871 156 871 156 877 149 c 0,4,5
631 159 m 1,34,-1
 748 159 l 1,35,-1
 778 298 l 1,36,-1
 631 159 l 1,34,-1
379 701 m 1,37,38
 386 694 386 694 388 684.5 c 128,-1,39
 390 675 390 675 389 666 c 2,40,-1
 314 315 l 2,41,42
 311 298 311 298 295.5 284.5 c 128,-1,43
 280 271 280 271 259 271 c 0,44,45
 243 271 243 271 232.5 285 c 128,-1,46
 222 299 222 299 225 315 c 2,47,-1
 287 605 l 1,48,-1
 237 588 l 2,49,50
 221 580 221 580 205 587.5 c 128,-1,51
 189 595 189 595 186 611 c 256,52,53
 183 628 183 628 194 644 c 128,-1,54
 205 660 205 660 225 667 c 2,55,-1
 336 706 l 2,56,57
 362 712 362 712 379 701 c 1,37,38
EndSplineSet
Ligature2: "'frac' Diagonal Fractions in Latin lookup 0 subtable" one fraction four
Ligature2: "'frac' Diagonal Fractions in Latin lookup 0 subtable" one slash four
EndChar
StartChar: onehalf
Encoding: 189 189 127
Width: 875
VWidth: 1473
Flags: W
HStem: 0 84<666 806.201> 351 84<672.326 775.952> 580 20G<218 266.739> 696 20G<685.215 790>
VStem: 557 79<279.866 356.977>
Fore
128 -10 m 1,0,-1
 701 716 l 1,1,-1
 790 716 l 1,2,-1
 215 -10 l 1,3,-1
 128 -10 l 1,0,-1
361 695 m 0,4,5
 368 688 368 688 369 678.5 c 128,-1,6
 370 669 370 669 368 660 c 2,7,-1
 293 309 l 2,8,9
 290 292 290 292 275.5 278.5 c 128,-1,10
 261 265 261 265 245 265 c 256,11,12
 228 265 228 265 217 279 c 128,-1,13
 206 293 206 293 209 309 c 2,14,-1
 271 600 l 1,15,-1
 218 582 l 2,16,17
 202 575 202 575 188 582 c 128,-1,18
 174 589 174 589 171 605 c 256,19,20
 168 622 168 622 179 638 c 128,-1,21
 190 654 190 654 206 661 c 2,22,-1
 321 700 l 2,23,24
 349 706 349 706 361 695 c 0,4,5
832 72 m 0,25,26
 840 63 840 63 839 50.5 c 128,-1,27
 838 38 838 38 831.5 27 c 128,-1,28
 825 16 825 16 814 8 c 128,-1,29
 803 0 803 0 790 0 c 2,30,-1
 535 0 l 2,31,32
 519 0 519 0 510 9 c 128,-1,33
 501 18 501 18 499.5 30.5 c 128,-1,34
 498 43 498 43 503 57 c 128,-1,35
 508 71 508 71 522 80 c 2,36,-1
 552 100 l 2,37,38
 576 116 576 116 624 149.5 c 128,-1,39
 672 183 672 183 763 246 c 0,40,41
 788 261 788 261 795.5 279.5 c 128,-1,42
 803 298 803 298 798 313.5 c 128,-1,43
 793 329 793 329 777.5 340 c 128,-1,44
 762 351 762 351 741 351 c 0,45,46
 698 351 698 351 671.5 328.5 c 128,-1,47
 645 306 645 306 636 277 c 0,48,49
 632 261 632 261 616.5 249 c 128,-1,50
 601 237 601 237 583 239 c 0,51,52
 567 242 567 242 559 254.5 c 128,-1,53
 551 267 551 267 557 284 c 0,54,55
 577 355 577 355 629.5 395 c 128,-1,56
 682 435 682 435 759 435 c 0,57,58
 810 435 810 435 842 409 c 128,-1,59
 874 383 874 383 882 344 c 128,-1,60
 890 305 890 305 873 261 c 128,-1,61
 856 217 856 217 809 181 c 0,62,63
 756 146 l 0,64,65
 734 130 734 130 709.5 113 c 128,-1,66
 685 96 685 96 666 84 c 1,67,-1
 807 84 l 2,68,69
 825 84 825 84 832 72 c 0,25,26
EndSplineSet
Ligature2: "'frac' Diagonal Fractions in Latin lookup 0 subtable" one fraction two
Ligature2: "'frac' Diagonal Fractions in Latin lookup 0 subtable" one slash two
EndChar
StartChar: threequarters
Encoding: 190 190 128
Width: 900
VWidth: 1473
Flags: W
HStem: 1 21G<751 768> 77 82<631 735 835 854.749> 274 77<229.576 326.954> 461 80<272.809 357.482> 638 77<301.681 378.823>
VStem: 134 88<384.967 442.725> 177 88<571.975 640.645>
Fore
301 -13 m 1,0,-1
 875 713 l 1,1,-1
 787 713 l 1,2,-1
 214 -13 l 1,3,-1
 301 -13 l 1,0,-1
877 149 m 0,4,5
 885 138 885 138 882 118 c 0,6,7
 878 102 878 102 862 89.5 c 128,-1,8
 846 77 846 77 818 77 c 1,9,-1
 810 44 l 2,10,11
 807 28 807 28 791.5 14.5 c 128,-1,12
 776 1 776 1 760 1 c 0,13,14
 742 1 742 1 733.5 14.5 c 128,-1,15
 725 28 725 28 728 44 c 2,16,-1
 735 77 l 1,17,-1
 533 77 l 2,18,19
 520 75 520 75 512 81.5 c 128,-1,20
 504 88 504 88 501 99 c 128,-1,21
 498 110 498 110 501.5 123.5 c 128,-1,22
 505 137 505 137 516 146 c 2,23,-1
 810 421 l 2,24,25
 813 424 813 424 825.5 432 c 128,-1,26
 838 440 838 440 854 439 c 0,27,28
 871 436 871 436 879.5 423.5 c 128,-1,29
 888 411 888 411 884 395 c 2,30,-1
 835 161 l 1,31,32
 853 161 853 161 862 158.5 c 128,-1,33
 871 156 871 156 877 149 c 0,4,5
631 159 m 1,34,-1
 748 159 l 1,35,-1
 778 298 l 1,36,-1
 631 159 l 1,34,-1
404 505 m 1,37,38
 426 498 426 498 438.5 473 c 128,-1,39
 451 448 451 448 443 410 c 0,40,41
 429 346 429 346 376 310 c 128,-1,42
 323 274 323 274 264 274 c 0,43,44
 233 274 233 274 205.5 280.5 c 128,-1,45
 178 287 178 287 159.5 303.5 c 128,-1,46
 141 320 141 320 133 346.5 c 128,-1,47
 125 373 125 373 134 411 c 0,48,49
 137 430 137 430 151.5 442 c 128,-1,50
 166 454 166 454 186 454 c 128,-1,51
 206 454 206 454 215.5 442 c 128,-1,52
 225 430 225 430 222 411 c 0,53,54
 215 382 215 382 232 366.5 c 128,-1,55
 249 351 249 351 281 351 c 0,56,57
 306 351 306 351 330.5 362.5 c 128,-1,58
 355 374 355 374 367 405 c 0,59,60
 374 421 374 421 367.5 441 c 128,-1,61
 361 461 361 461 334 461 c 2,62,-1
 273 461 l 2,63,64
 255 461 255 461 246 474.5 c 128,-1,65
 237 488 237 488 240 504 c 0,66,67
 243 519 243 519 259 530 c 128,-1,68
 275 541 275 541 290 541 c 2,69,-1
 349 541 l 2,70,71
 357 541 357 541 371 557 c 128,-1,72
 385 573 385 573 387 595 c 0,73,74
 390 608 390 608 377 623 c 128,-1,75
 364 638 364 638 340 638 c 0,76,77
 299 638 299 638 283.5 624 c 128,-1,78
 268 610 268 610 265 598 c 0,79,80
 249 555 249 555 211 555 c 0,81,82
 192 555 192 555 182 567 c 128,-1,83
 172 579 172 579 177 598 c 0,84,85
 181 622 181 622 198 643 c 128,-1,86
 215 664 215 664 239.5 680.5 c 128,-1,87
 264 697 264 697 295 706 c 128,-1,88
 326 715 326 715 358 715 c 0,89,90
 418 715 418 715 446 682.5 c 128,-1,91
 474 650 474 650 471 610 c 0,92,93
 471 597 471 597 466 581.5 c 128,-1,94
 461 566 461 566 452 551 c 128,-1,95
 443 536 443 536 430.5 523.5 c 128,-1,96
 418 511 418 511 404 505 c 1,37,38
EndSplineSet
Ligature2: "'frac' Diagonal Fractions in Latin lookup 0 subtable" three fraction four
Ligature2: "'frac' Diagonal Fractions in Latin lookup 0 subtable" three slash four
EndChar
StartChar: questiondown
Encoding: 191 191 129
Width: 683
VWidth: 1473
Flags: W
HStem: -225 107<239.503 398.819> 398 144<467.844 549.671>
VStem: 415 109<254.347 314.597> 433 150<443.841 523.707>
Fore
72 4 m 256,0,1
 82 52 82 52 105 88 c 128,-1,2
 128 124 128 124 160.5 149 c 128,-1,3
 193 174 193 174 232 190 c 128,-1,4
 271 206 271 206 314 215 c 0,5,6
 330 218 330 218 345.5 221.5 c 128,-1,7
 361 225 361 225 374 234 c 0,8,9
 390 243 390 243 400.5 254 c 128,-1,10
 411 265 411 265 415 290 c 0,11,12
 423 327 423 327 443 338 c 128,-1,13
 463 349 463 349 483 349 c 0,14,15
 514 349 514 349 521.5 330.5 c 128,-1,16
 529 312 529 312 524 284 c 0,17,18
 520 262 520 262 512.5 243 c 128,-1,19
 505 224 505 224 492 208 c 128,-1,20
 479 192 479 192 458.5 176.5 c 128,-1,21
 438 161 438 161 407 143 c 0,22,23
 386 131 386 131 363 124.5 c 128,-1,24
 340 118 340 118 318 113 c 0,25,26
 293 108 293 108 271 100.5 c 128,-1,27
 249 93 249 93 231.5 81 c 128,-1,28
 214 69 214 69 200.5 50.5 c 128,-1,29
 187 32 187 32 181 4 c 0,30,31
 174 -29 174 -29 182 -53 c 128,-1,32
 190 -77 190 -77 207.5 -91 c 128,-1,33
 225 -105 225 -105 250 -111.5 c 128,-1,34
 275 -118 275 -118 303 -118 c 0,35,36
 351 -118 351 -118 399.5 -96.5 c 128,-1,37
 448 -75 448 -75 491 -38 c 0,38,39
 511 -22 511 -22 534 -21.5 c 128,-1,40
 557 -21 557 -21 570 -37 c 256,41,42
 583 -53 583 -53 579 -76 c 128,-1,43
 575 -99 575 -99 555 -115 c 0,44,45
 494 -168 494 -168 425.5 -196.5 c 128,-1,46
 357 -225 357 -225 284 -225 c 0,47,48
 218 -225 218 -225 173 -207 c 128,-1,49
 128 -189 128 -189 102.5 -158 c 128,-1,50
 77 -127 77 -127 69.5 -85 c 128,-1,51
 62 -43 62 -43 72 4 c 256,0,1
433 470 m 0,52,53
 440 499 440 499 467 520.5 c 128,-1,54
 494 542 494 542 524 542 c 256,55,56
 555 542 555 542 573 520.5 c 128,-1,57
 591 499 591 499 583 470 c 0,58,59
 577 440 577 440 550.5 419 c 128,-1,60
 524 398 524 398 494 398 c 256,61,62
 463 398 463 398 445 419 c 128,-1,63
 427 440 427 440 433 470 c 0,52,53
EndSplineSet
EndChar
StartChar: Aring
Encoding: 197 197 134
Width: 736
VWidth: 1473
Flags: W
HStem: 0 21G<111.5 125.5 616.5 630.5> 302 109<256 628> 617 103<389.935 598.296> 772 53<514.841 580.863> 909 54<532.461 591.062>
VStem: 595 55<837.892 893.128>
Fore
458 868 m 0,0,1
 466 907 466 907 500.5 935 c 128,-1,2
 535 963 535 963 575 963 c 256,3,4
 614 963 614 963 635.5 935 c 128,-1,5
 657 907 657 907 650 868 c 0,6,7
 641 828 641 828 607 800 c 128,-1,8
 573 772 573 772 533 772 c 256,9,10
 494 772 494 772 471.5 800 c 128,-1,11
 449 828 449 828 458 868 c 0,0,1
511 868 m 0,12,13
 507 850 507 850 517 837.5 c 128,-1,14
 527 825 527 825 545 825 c 256,15,16
 563 825 563 825 577 837.5 c 128,-1,17
 591 850 591 850 595 868 c 0,18,19
 598 885 598 885 589 897 c 128,-1,20
 580 909 580 909 563 909 c 256,21,22
 545 909 545 909 529.5 897 c 128,-1,23
 514 885 514 885 511 868 c 0,12,13
687 66 m 2,24,25
 679 29 679 29 660 14.5 c 128,-1,26
 641 0 641 0 620 0 c 0,27,28
 613 0 613 0 604 2 c 128,-1,29
 595 4 595 4 587.5 11.5 c 128,-1,30
 580 19 580 19 576.5 31.5 c 128,-1,31
 573 44 573 44 577 66 c 2,32,-1
 628 302 l 1,33,-1
 233 302 l 1,34,-1
 183 66 l 2,35,36
 175 29 175 29 155.5 14.5 c 128,-1,37
 136 0 136 0 115 0 c 0,38,39
 108 0 108 0 99 2 c 128,-1,40
 90 4 90 4 82.5 11.5 c 128,-1,41
 75 19 75 19 72 31.5 c 128,-1,42
 69 44 69 44 74 66 c 0,43,44
 87 131 87 131 102 197 c 0,45,46
 113 253 113 253 126.5 317.5 c 128,-1,47
 140 382 140 382 152 433 c 0,48,49
 164 491 164 491 191 542.5 c 128,-1,50
 218 594 218 594 263 633.5 c 128,-1,51
 308 673 308 673 371.5 696.5 c 128,-1,52
 435 720 435 720 520 720 c 0,53,54
 604 720 604 720 657 697.5 c 128,-1,55
 710 675 710 675 738 636 c 128,-1,56
 766 597 766 597 772 545.5 c 128,-1,57
 778 494 778 494 766 438 c 2,58,-1
 687 66 l 2,24,25
659 442 m 2,59,60
 666 474 666 474 663.5 505 c 128,-1,61
 661 536 661 536 644.5 561 c 128,-1,62
 628 586 628 586 593 601.5 c 128,-1,63
 558 617 558 617 499 617 c 0,64,65
 439 617 439 617 397 601.5 c 128,-1,66
 355 586 355 586 327 561 c 128,-1,67
 299 536 299 536 284.5 505 c 128,-1,68
 270 474 270 474 262 442 c 0,69,70
 261 435 261 435 259 429 c 0,71,72
 256 414 256 414 256 411 c 1,73,-1
 653 411 l 1,74,75
 653 414 653 414 656 426.5 c 128,-1,76
 659 439 659 439 659 442 c 2,59,60
EndSplineSet
EndChar
StartChar: AE
Encoding: 198 198 135
Width: 1231
VWidth: 1473
Flags: W
HStem: -3 106<859.089 1034.46> 302 109<256 628 760 1054.92> 617 103<389.935 598.2 939.656 1130.89>
Fore
659 442 m 2,0,1
 666 474 666 474 663.5 505 c 128,-1,2
 661 536 661 536 644.5 561 c 128,-1,3
 628 586 628 586 593 601.5 c 128,-1,4
 558 617 558 617 499 617 c 0,5,6
 439 617 439 617 397 601.5 c 128,-1,7
 355 586 355 586 327 561 c 128,-1,8
 299 536 299 536 284.5 505 c 128,-1,9
 270 474 270 474 262 442 c 0,10,11
 261 435 261 435 259 429 c 0,12,13
 256 414 256 414 256 411 c 1,14,-1
 653 411 l 1,15,16
 653 414 653 414 656 426.5 c 128,-1,17
 659 439 659 439 659 442 c 2,0,1
687 66 m 2,18,19
 679 29 679 29 660 14.5 c 128,-1,20
 641 0 641 0 620 0 c 0,21,22
 613 0 613 0 604 2 c 128,-1,23
 595 4 595 4 587.5 11.5 c 128,-1,24
 580 19 580 19 576.5 31.5 c 128,-1,25
 573 44 573 44 577 66 c 2,26,-1
 628 302 l 1,27,-1
 233 302 l 1,28,-1
 183 66 l 2,29,30
 175 29 175 29 155.5 14.5 c 128,-1,31
 136 0 136 0 115 0 c 0,32,33
 108 0 108 0 99 2 c 128,-1,34
 90 4 90 4 82.5 11.5 c 128,-1,35
 75 19 75 19 72 31.5 c 128,-1,36
 69 44 69 44 74 66 c 2,37,-1
 152 433 l 2,38,39
 164 491 164 491 191 542.5 c 128,-1,40
 218 594 218 594 263 633.5 c 128,-1,41
 308 673 308 673 371.5 696.5 c 128,-1,42
 435 720 435 720 520 720 c 0,43,44
 614 720 614 720 670 691.5 c 128,-1,45
 726 663 726 663 751 616 c 1,46,47
 807 672 807 672 885 697.5 c 128,-1,48
 963 723 963 723 1039 723 c 0,49,50
 1133 723 1133 723 1205 691 c 128,-1,51
 1277 659 1277 659 1299 600 c 0,52,53
 1307 579 1307 579 1299.5 558.5 c 128,-1,54
 1292 538 1292 538 1268 526 c 0,55,56
 1246 514 1246 514 1226.5 520.5 c 128,-1,57
 1207 527 1207 527 1195 545 c 0,58,59
 1179 575 1179 575 1134.5 594 c 128,-1,60
 1090 613 1090 613 1015 613 c 0,61,62
 983 613 983 613 944 605 c 128,-1,63
 905 597 905 597 869.5 579 c 128,-1,64
 834 561 834 561 806.5 531.5 c 128,-1,65
 779 502 779 502 770 460 c 2,66,-1
 760 412 l 1,67,-1
 1024 411 l 2,68,69
 1052 411 1052 411 1069 399 c 128,-1,70
 1086 387 1086 387 1078 358 c 0,71,72
 1074 337 1074 337 1055.5 319.5 c 128,-1,73
 1037 302 1037 302 1000 302 c 2,74,-1
 737 302 l 1,75,-1
 731 273 l 2,76,77
 723 230 723 230 738 197.5 c 128,-1,78
 753 165 753 165 779.5 144.5 c 128,-1,79
 806 124 806 124 840 113.5 c 128,-1,80
 874 103 874 103 906 103 c 0,81,82
 981 103 981 103 1034 122 c 128,-1,83
 1087 141 1087 141 1115 171 c 0,84,85
 1134 189 1134 189 1157 195.5 c 128,-1,86
 1180 202 1180 202 1198 190 c 256,87,88
 1215 178 1215 178 1213.5 157.5 c 128,-1,89
 1212 137 1212 137 1196 116 c 0,90,91
 1149 57 1149 57 1063.5 27 c 128,-1,92
 978 -3 978 -3 884 -3 c 0,93,94
 854 -3 854 -3 822.5 5 c 128,-1,95
 791 13 791 13 764 26.5 c 128,-1,96
 737 40 737 40 717.5 58.5 c 128,-1,97
 698 77 698 77 694 97 c 1,98,-1
 687 66 l 2,18,19
EndSplineSet
EndChar
StartChar: Eth
Encoding: 208 208 145
Width: 769
VWidth: 1473
Flags: W
HStem: 0 109<226.224 228 228 332.296 332.296 386.046> 331 90<88 159 287 429> 610 110<323.815 482.842 482.842 500.349>
Fore
738 614 m 0,0,1
 775 569 775 569 788 502 c 128,-1,2
 801 435 801 435 788 362.5 c 128,-1,3
 775 290 775 290 736 221.5 c 128,-1,4
 697 153 697 153 631 105 c 0,5,6
 579 63 579 63 523.5 42 c 128,-1,7
 468 21 468 21 423.5 11 c 128,-1,8
 379 1 379 1 348.5 0.5 c 128,-1,9
 318 0 318 0 317 0 c 2,10,-1
 228 0 l 2,11,12
 171 1 171 1 137 41 c 0,13,14
 106 80 106 80 119 141 c 0,15,16
 125 168 125 168 131 199 c 0,17,18
 137 225 137 225 144.5 259 c 128,-1,19
 152 293 152 293 159 331 c 1,20,-1
 69 331 l 1,21,-1
 88 421 l 1,22,-1
 178 421 l 1,23,24
 184 446 184 446 190 473 c 0,25,26
 194 496 194 496 200 523.5 c 128,-1,27
 206 551 206 551 212 579 c 0,28,29
 225 639 225 639 274 681 c 0,30,31
 323 720 323 720 382 720 c 2,32,-1
 467 720 l 2,33,34
 470 720 470 720 499.5 719.5 c 128,-1,35
 529 719 529 719 571 709.5 c 128,-1,36
 613 700 613 700 658.5 678 c 128,-1,37
 704 656 704 656 738 614 c 0,0,1
570 184 m 0,38,39
 614 220 614 220 642 267.5 c 128,-1,40
 670 315 670 315 679.5 363.5 c 128,-1,41
 689 412 689 412 680.5 458 c 128,-1,42
 672 504 672 504 645 538 c 0,43,44
 622 566 622 566 588 580.5 c 128,-1,45
 554 595 554 595 523 603 c 0,46,47
 485 610 485 610 446 610 c 2,48,-1
 358 610 l 2,49,50
 327 610 327 610 321 580 c 0,51,52
 317 560 317 560 311 533 c 0,53,54
 306 511 306 511 300.5 482.5 c 128,-1,55
 295 454 295 454 287 421 c 1,56,-1
 448 421 l 1,57,-1
 429 331 l 1,58,-1
 268 331 l 1,59,60
 261 302 261 302 255 270 c 0,61,62
 249 242 249 242 241.5 207 c 128,-1,63
 234 172 234 172 227 138 c 0,64,65
 221 109 221 109 252 109 c 2,66,-1
 340 109 l 1,67,68
 363 109.5 l 2,69,70
 386 110 386 110 420.5 117 c 128,-1,71
 455 124 455 124 495 139.5 c 128,-1,72
 535 155 535 155 570 184 c 0,38,39
EndSplineSet
EndChar
StartChar: multiply
Encoding: 215 215 152
Width: 677
VWidth: 1473
Flags: W
HStem: 22.5 468<516 615 615 615>
Fore
586 75 m 0,0,1
 582 53 582 53 563 38 c 0,2,3
 538 18 538 18 516 22.5 c 128,-1,4
 494 27 494 27 479 46 c 2,5,-1
 374 177 l 1,6,-1
 214 46 l 2,7,8
 190 27 190 27 166.5 22.5 c 128,-1,9
 143 18 143 18 127 38 c 256,10,11
 110 59 110 59 119 81 c 128,-1,12
 128 103 128 103 153 122 c 2,13,-1
 314 255 l 1,14,-1
 211 386 l 2,15,16
 190 411 190 411 197.5 434 c 128,-1,17
 205 457 205 457 222 471 c 0,18,19
 246 492 246 492 267.5 487.5 c 128,-1,20
 289 483 289 483 303 463 c 2,21,-1
 407 331 l 1,22,-1
 569 466 l 2,23,24
 592 486 592 486 615 490.5 c 128,-1,25
 638 495 638 495 654 474 c 0,26,27
 666 460 666 460 663 437 c 128,-1,28
 660 414 660 414 629 389 c 2,29,-1
 467 255 l 1,30,-1
 572 122 l 2,31,32
 592 99 592 99 586 75 c 0,0,1
EndSplineSet
EndChar
StartChar: Oslash
Encoding: 216 216 153
Width: 798
VWidth: 1473
Flags: W
Fore
773 616 m 2,0,1
 818 564 818 564 829.5 495.5 c 128,-1,2
 841 427 841 427 825.5 355 c 128,-1,3
 810 283 810 283 768 214.5 c 128,-1,4
 726 146 726 146 663 96 c 0,5,6
 617 56 617 56 562.5 31 c 128,-1,7
 508 6 508 6 453.5 -3 c 128,-1,8
 399 -12 399 -12 347 -4.5 c 128,-1,9
 295 3 295 3 253 28 c 1,10,-1
 178 -57 l 2,11,12
 165 -72 165 -72 148 -76 c 128,-1,13
 131 -80 131 -80 118 -71 c 0,14,15
 106 -62 106 -62 107 -45.5 c 128,-1,16
 108 -29 108 -29 119 -15 c 2,17,-1
 189 74 l 1,18,19
 138 125 138 125 121.5 194.5 c 128,-1,20
 105 264 105 264 117.5 338 c 128,-1,21
 130 412 130 412 171 484.5 c 128,-1,22
 212 557 212 557 280 616 c 0,23,24
 329 656 329 656 384 681 c 128,-1,25
 439 706 439 706 495 714.5 c 128,-1,26
 551 723 551 723 605 715 c 128,-1,27
 659 707 659 707 703 682 c 1,28,-1
 772 765 l 2,29,30
 784 781 784 781 801.5 785.5 c 128,-1,31
 819 790 819 790 834 781 c 1,32,33
 847 769 847 769 847 752 c 128,-1,34
 847 735 847 735 835 720 c 2,35,-1
 760 636 l 1,36,37
 763 632 763 632 766.5 627 c 128,-1,38
 770 622 770 622 773 616 c 2,0,1
268 175 m 1,39,40
 268 172 268 172 269.5 171.5 c 128,-1,41
 271 171 271 171 273 168 c 1,42,-1
 619 585 l 1,43,44
 589 601 589 601 554 605.5 c 128,-1,45
 519 610 519 610 482 603.5 c 128,-1,46
 445 597 445 597 409.5 580 c 128,-1,47
 374 563 374 563 345 538 c 0,48,49
 299 502 299 502 269.5 454.5 c 128,-1,50
 240 407 240 407 230 356 c 128,-1,51
 220 305 220 305 228.5 257 c 128,-1,52
 237 209 237 209 268 175 c 1,39,40
604 175 m 0,53,54
 648 209 648 209 676 257 c 128,-1,55
 704 305 704 305 715 356 c 128,-1,56
 726 407 726 407 718 454.5 c 128,-1,57
 710 502 710 502 681 538 c 1,58,-1
 330 121 l 1,59,60
 392 97 392 97 465.5 108 c 128,-1,61
 539 119 539 119 604 175 c 0,53,54
EndSplineSet
EndChar
StartChar: Thorn
Encoding: 222 222 159
Width: 698
VWidth: 1473
Flags: W
HStem: 138 86<246 480> 517 102<330 565.488>
Fore
526 619 m 2,0,1
 551 619 551 619 591.5 612 c 128,-1,2
 632 605 632 605 667.5 580 c 128,-1,3
 703 555 703 555 722 506.5 c 128,-1,4
 741 458 741 458 723 374 c 0,5,6
 710 312 710 312 678.5 267 c 128,-1,7
 647 222 647 222 607 193.5 c 128,-1,8
 567 165 567 165 523 151.5 c 128,-1,9
 479 138 479 138 439 138 c 2,10,-1
 225 138 l 1,11,-1
 202 21 l 2,12,13
 197 -3 197 -3 176.5 -14 c 128,-1,14
 156 -25 156 -25 140 -25 c 256,15,16
 124 -25 124 -25 106 -14 c 128,-1,17
 88 -3 88 -3 93 21 c 2,18,-1
 236 691 l 2,19,20
 242 715 242 715 264 726 c 128,-1,21
 286 737 286 737 302 737 c 256,22,23
 318 737 318 737 334.5 726 c 128,-1,24
 351 715 351 715 345 691 c 2,25,-1
 330 619 l 1,26,-1
 526 619 l 2,0,1
457 224 m 2,27,28
 508 224 508 224 554.5 261 c 128,-1,29
 601 298 601 298 616 367 c 0,30,31
 632 445 632 445 603.5 481 c 128,-1,32
 575 517 575 517 519 517 c 2,33,-1
 308 517 l 1,34,-1
 246 224 l 1,35,-1
 457 224 l 2,27,28
EndSplineSet
EndChar
StartChar: uni00DF
Encoding: 223 223 160
Width: 671
VWidth: 1473
Flags: W
HStem: 3 99<273.625 433.624> 415 93<365 465.187>
Fore
314 102 m 2,0,-1
 343 102 l 2,1,2
 418 105 418 105 470.5 147 c 128,-1,3
 523 189 523 189 536 261 c 0,4,5
 542 293 542 293 534.5 321 c 128,-1,6
 527 349 527 349 509.5 369.5 c 128,-1,7
 492 390 492 390 466 402.5 c 128,-1,8
 440 415 440 415 410 415 c 2,9,-1
 345 415 l 1,10,-1
 365 508 l 1,11,-1
 439 508 l 2,12,13
 480 508 480 508 503.5 528 c 128,-1,14
 527 548 527 548 535 575 c 0,15,16
 542 605 542 605 527.5 625 c 128,-1,17
 513 645 513 645 486.5 652.5 c 128,-1,18
 460 660 460 660 426.5 655 c 128,-1,19
 393 650 393 650 367 632 c 0,20,21
 346 617 346 617 326 592 c 128,-1,22
 306 567 306 567 298 524 c 2,23,-1
 247 286 l 2,24,25
 237 240 237 240 228.5 198 c 128,-1,26
 220 156 220 156 212 122 c 0,27,28
 203 84 203 84 196 47 c 0,29,30
 192 25 192 25 175 12 c 128,-1,31
 158 -1 158 -1 137 -1 c 256,32,33
 116 -1 116 -1 106 13 c 128,-1,34
 96 27 96 27 100 47 c 1,35,36
 91 6 91 6 99 38 c 0,37,38
 102 52 102 52 108.5 83.5 c 128,-1,39
 115 115 115 115 127.5 172.5 c 128,-1,40
 140 230 140 230 158.5 317.5 c 128,-1,41
 177 405 177 405 203 532 c 0,42,43
 224 629 224 629 294 683 c 128,-1,44
 364 737 364 737 458 737 c 0,45,46
 541 737 541 737 584.5 703.5 c 128,-1,47
 628 670 628 670 637.5 624.5 c 128,-1,48
 647 579 647 579 625 533.5 c 128,-1,49
 603 488 603 488 554 463 c 1,50,51
 583 449 583 449 602.5 426.5 c 128,-1,52
 622 404 622 404 631.5 376 c 128,-1,53
 641 348 641 348 641.5 317 c 128,-1,54
 642 286 642 286 636 256 c 0,55,56
 626 205 626 205 599 159 c 128,-1,57
 572 113 572 113 532 79.5 c 128,-1,58
 492 46 492 46 442 25 c 128,-1,59
 392 4 392 4 334 3 c 2,60,-1
 305 3 l 2,61,62
 280 1 280 1 261.5 13 c 128,-1,63
 243 25 243 25 249 52 c 0,64,65
 253 72 253 72 273 86 c 128,-1,66
 293 100 293 100 314 102 c 2,0,-1
EndSplineSet
EndChar
StartChar: ae
Encoding: 230 230 167
Width: 1087
VWidth: 1473
Flags: W
HStem: -12 92<222.011 397.211 726.557 887.737> 221 102<675 1002.5> 274 93<303.829 451.367> 442 96<316.73 510.823 782.005 933.359>
Fore
1075 466 m 0,0,1
 1098 435 1098 435 1104.5 405.5 c 128,-1,2
 1111 376 1111 376 1109.5 349.5 c 128,-1,3
 1108 323 1108 323 1100.5 303 c 128,-1,4
 1093 283 1093 283 1087 273 c 0,5,6
 1067 240 1067 240 1038 230.5 c 128,-1,7
 1009 221 1009 221 977 221 c 2,8,-1
 645 221 l 1,9,10
 641 187 641 187 651 162 c 128,-1,11
 661 137 661 137 681 120 c 128,-1,12
 701 103 701 103 730 94 c 128,-1,13
 759 85 759 85 791 85 c 0,14,15
 843 85 843 85 879 98.5 c 128,-1,16
 915 112 915 112 938 133 c 0,17,18
 966 156 966 156 985.5 159 c 128,-1,19
 1005 162 1005 162 1019 150 c 0,20,21
 1034 136 1034 136 1028 108.5 c 128,-1,22
 1022 81 1022 81 1003 65 c 0,23,24
 955 29 955 29 901 8 c 128,-1,25
 847 -13 847 -13 770 -13 c 0,26,27
 700 -13 700 -13 645.5 12 c 128,-1,28
 591 37 591 37 563 85 c 1,29,30
 533 56 533 56 499.5 37 c 128,-1,31
 466 18 466 18 431 7 c 128,-1,32
 396 -4 396 -4 362.5 -8 c 128,-1,33
 329 -12 329 -12 299 -12 c 0,34,35
 181 -12 181 -12 121.5 36.5 c 128,-1,36
 62 85 62 85 82 177 c 0,37,38
 91 218 91 218 117.5 252.5 c 128,-1,39
 144 287 144 287 185.5 312 c 128,-1,40
 227 337 227 337 279 352 c 128,-1,41
 331 367 331 367 392 367 c 0,42,43
 449 367 449 367 491 346.5 c 128,-1,44
 533 326 533 326 555 306 c 1,45,-1
 555 309 l 2,46,47
 563 382 563 382 524 412 c 128,-1,48
 485 442 485 442 396 442 c 0,49,50
 352 442 352 442 311.5 430 c 128,-1,51
 271 418 271 418 237 401 c 0,52,53
 202 383 202 383 187 389.5 c 128,-1,54
 172 396 172 396 169 401 c 0,55,56
 155 423 155 423 167.5 445.5 c 128,-1,57
 180 468 180 468 205 485 c 0,58,59
 302 538 302 538 415 538 c 0,60,61
 502 538 502 538 556.5 513.5 c 128,-1,62
 611 489 611 489 641 436 c 1,63,64
 691 486 691 486 754.5 512 c 128,-1,65
 818 538 818 538 887 538 c 0,66,67
 966 538 966 538 1009 514.5 c 128,-1,68
 1052 491 1052 491 1075 466 c 0,0,1
323 80 m 0,69,70
 398 80 398 80 453 105.5 c 128,-1,71
 508 131 508 131 517 174 c 0,72,73
 523 203 523 203 512.5 222.5 c 128,-1,74
 502 242 502 242 480 253.5 c 128,-1,75
 458 265 458 265 428.5 269.5 c 128,-1,76
 399 274 399 274 368 274 c 0,77,78
 342 274 342 274 312.5 268 c 128,-1,79
 283 262 283 262 258 250.5 c 128,-1,80
 233 239 233 239 214.5 222 c 128,-1,81
 196 205 196 205 190 183 c 0,82,83
 183 130 183 130 220.5 105 c 128,-1,84
 258 80 258 80 323 80 c 0,69,70
1003 323 m 1,85,86
 1003 346 1003 346 996 367.5 c 128,-1,87
 989 389 989 389 973.5 406 c 128,-1,88
 958 423 958 423 932.5 432.5 c 128,-1,89
 907 442 907 442 869 442 c 0,90,91
 826 442 826 442 792.5 429.5 c 128,-1,92
 759 417 759 417 734 398.5 c 128,-1,93
 709 380 709 380 694 359.5 c 128,-1,94
 679 339 679 339 675 323 c 1,95,-1
 1003 323 l 1,85,86
EndSplineSet
EndChar
StartChar: eth
Encoding: 240 240 177
Width: 696
VWidth: 1473
Flags: W
HStem: 1 111<275.415 440.9> 436 108<354.556 516.403>
Fore
675 648 m 1,0,1
 700 600 700 600 707.5 524.5 c 128,-1,2
 715 449 715 449 694 359 c 2,3,-1
 629 55 l 2,4,5
 625 31 625 31 604 15 c 128,-1,6
 583 -1 583 -1 561 -1 c 256,7,8
 539 -1 539 -1 526.5 15 c 128,-1,9
 514 31 514 31 520 55 c 1,10,-1
 522 56 l 1,11,12
 480 28 480 28 431.5 14.5 c 128,-1,13
 383 1 383 1 331 1 c 0,14,15
 261 1 261 1 212.5 24 c 128,-1,16
 164 47 164 47 136 84.5 c 128,-1,17
 108 122 108 122 100.5 171.5 c 128,-1,18
 93 221 93 221 105 274 c 0,19,20
 115 327 115 327 146 375.5 c 128,-1,21
 177 424 177 424 222 461.5 c 128,-1,22
 267 499 267 499 324.5 521.5 c 128,-1,23
 382 544 382 544 446 544 c 0,24,25
 513 544 513 544 552.5 528.5 c 128,-1,26
 592 513 592 513 613 489 c 1,27,28
 613 526 613 526 601 559 c 128,-1,29
 589 592 589 592 576 613 c 1,30,-1
 496 583 l 1,31,-1
 464 632 l 1,32,-1
 536 663 l 1,33,34
 523 673 523 673 506 688 c 128,-1,35
 489 703 489 703 476 709 c 256,36,37
 463 715 463 715 457.5 724.5 c 128,-1,38
 452 734 452 734 453 743.5 c 128,-1,39
 454 753 454 753 459 761.5 c 128,-1,40
 464 770 464 770 471 776 c 0,41,42
 494 796 494 796 513 791.5 c 128,-1,43
 532 787 532 787 542 784 c 1,44,45
 569 770 569 770 596 746.5 c 128,-1,46
 623 723 623 723 641 703 c 1,47,-1
 719 734 l 1,48,-1
 756 679 l 1,49,-1
 675 648 l 1,0,1
564 277 m 1,50,51
 582 358 582 358 540 397 c 128,-1,52
 498 436 498 436 423 436 c 0,53,54
 383 436 383 436 347 423 c 128,-1,55
 311 410 311 410 283.5 387.5 c 128,-1,56
 256 365 256 365 237 335.5 c 128,-1,57
 218 306 218 306 211 274 c 256,58,59
 203 242 203 242 210 212.5 c 128,-1,60
 217 183 217 183 235 160.5 c 128,-1,61
 253 138 253 138 283.5 125 c 128,-1,62
 314 112 314 112 355 112 c 0,63,64
 430 112 430 112 487.5 151 c 128,-1,65
 545 190 545 190 564 275 c 1,66,-1
 564 277 l 1,50,51
EndSplineSet
EndChar
StartChar: divide
Encoding: 247 247 184
Width: 738
VWidth: 1473
Flags: W
HStem: 6 141<336.328 410.734> 368 140<413.328 488.765>
Fore
141 194 m 2,0,-1
 675 194 l 2,1,2
 700 194 700 194 719 212 c 128,-1,3
 738 230 738 230 744 255 c 256,4,5
 750 280 750 280 738 297.5 c 128,-1,6
 726 315 726 315 700 315 c 2,7,-1
 166 315 l 2,8,9
 141 315 141 315 120.5 297.5 c 128,-1,10
 100 280 100 280 94 255 c 0,11,12
 90 230 90 230 104 212 c 128,-1,13
 118 194 118 194 141 194 c 2,0,-1
438 368 m 256,14,15
 410 368 410 368 391.5 389 c 128,-1,16
 373 410 373 410 380 438 c 0,17,18
 386 467 386 467 412.5 487.5 c 128,-1,19
 439 508 439 508 467 508 c 256,20,21
 495 508 495 508 510.5 487.5 c 128,-1,22
 526 467 526 467 520 438 c 0,23,24
 513 410 513 410 489.5 389 c 128,-1,25
 466 368 466 368 438 368 c 256,14,15
359 6 m 256,26,27
 331 6 331 6 313.5 26.5 c 128,-1,28
 296 47 296 47 303 77 c 0,29,30
 309 106 309 106 335.5 126.5 c 128,-1,31
 362 147 362 147 390 147 c 256,32,33
 418 147 418 147 433.5 126.5 c 128,-1,34
 449 106 449 106 443 77 c 0,35,36
 436 47 436 47 411.5 26.5 c 128,-1,37
 387 6 387 6 359 6 c 256,26,27
EndSplineSet
EndChar
StartChar: oslash
Encoding: 248 248 185
Width: 649
VWidth: 1473
Flags: W
Fore
617 468 m 0,0,1
 648 429 648 429 658.5 376 c 128,-1,2
 669 323 669 323 657 267 c 0,3,4
 631 147 631 147 530 60 c 0,5,6
 492 28 492 28 447 9 c 128,-1,7
 402 -10 402 -10 357 -16 c 128,-1,8
 312 -22 312 -22 270 -14.5 c 128,-1,9
 228 -7 228 -7 193 15 c 1,10,-1
 134 -52 l 2,11,12
 124 -63 124 -63 111.5 -66 c 128,-1,13
 99 -69 99 -69 88 -60 c 0,14,15
 78 -53 78 -53 78 -40 c 128,-1,16
 78 -27 78 -27 88 -15 c 2,17,-1
 147 53 l 1,18,19
 113 94 113 94 101.5 148 c 128,-1,20
 90 202 90 202 100 258 c 128,-1,21
 110 314 110 314 142 369 c 128,-1,22
 174 424 174 424 227 468 c 0,23,24
 264 499 264 499 308 519 c 128,-1,25
 352 539 352 539 397 546.5 c 128,-1,26
 442 554 442 554 483 547.5 c 128,-1,27
 524 541 524 541 557 519 c 1,28,-1
 614 583 l 2,29,30
 626 595 626 595 638 598 c 128,-1,31
 650 601 650 601 659 594 c 0,32,33
 669 586 669 586 672 572 c 128,-1,34
 675 558 675 558 663 547 c 2,35,-1
 608 480 l 1,36,37
 611 477 611 477 612.5 474 c 128,-1,38
 614 471 614 471 617 468 c 0,0,1
187 267 m 0,39,40
 169 184 169 184 211 128 c 1,41,-1
 496 446 l 1,42,43
 449 470 449 470 388 460.5 c 128,-1,44
 327 451 327 451 274 408 c 0,45,46
 205 346 205 346 187 267 c 0,39,40
479 124 m 0,47,48
 516 150 516 150 539.5 187.5 c 128,-1,49
 563 225 563 225 571 265 c 128,-1,50
 579 305 579 305 571.5 342.5 c 128,-1,51
 564 380 564 380 539 408 c 1,52,-1
 259 87 l 1,53,54
 281 72 281 72 310 67.5 c 128,-1,55
 339 63 339 63 368.5 68.5 c 128,-1,56
 398 74 398 74 426.5 88 c 128,-1,57
 455 102 455 102 479 124 c 0,47,48
EndSplineSet
EndChar
StartChar: thorn
Encoding: 254 254 191
Width: 674
VWidth: 1473
Flags: W
HStem: 430 109<383.406 487.566>
Fore
206 32 m 1,0,1
 187 -56 187 -56 178 -100 c 128,-1,2
 169 -144 169 -144 165 -164 c 0,3,4
 159 -186 159 -186 161 -184 c 1,5,6
 156 -211 156 -211 137 -229 c 128,-1,7
 118 -247 118 -247 93 -247 c 0,8,9
 63 -247 63 -247 54.5 -229 c 128,-1,10
 46 -211 46 -211 52 -184 c 0,11,12
 53 -178 53 -178 61 -139 c 128,-1,13
 69 -100 69 -100 82.5 -39 c 128,-1,14
 96 22 96 22 112 98.5 c 128,-1,15
 128 175 128 175 144.5 254.5 c 128,-1,16
 161 334 161 334 177 410 c 128,-1,17
 193 486 193 486 206.5 547 c 128,-1,18
 220 608 220 608 228 647.5 c 128,-1,19
 236 687 236 687 237 692 c 0,20,21
 245 720 245 720 261 738.5 c 128,-1,22
 277 757 277 757 306 757 c 0,23,24
 334 757 334 757 344 738.5 c 128,-1,25
 354 720 354 720 346 692 c 2,26,27
 340 670 l 2,28,29
 336 651 336 651 327 608.5 c 128,-1,30
 318 566 318 566 301 482 c 1,31,32
 337 505 337 505 382 522 c 128,-1,33
 427 539 427 539 470 539 c 0,34,35
 539 539 539 539 586 511 c 128,-1,36
 633 483 633 483 657.5 439 c 128,-1,37
 682 395 682 395 685.5 339.5 c 128,-1,38
 689 284 689 284 673 230 c 0,39,40
 657 178 657 178 627 134 c 128,-1,41
 597 90 597 90 555 56 c 128,-1,42
 513 22 513 22 459 3 c 128,-1,43
 405 -16 405 -16 343 -16 c 0,44,45
 309 -16 309 -16 272.5 -5 c 128,-1,46
 236 6 236 6 208 31 c 2,47,-1
 206 32 l 1,0,1
364 85 m 0,48,49
 442 81 442 81 500 131 c 128,-1,50
 558 181 558 181 577 270 c 0,51,52
 583 299 583 299 577.5 328.5 c 128,-1,53
 572 358 572 358 555 381.5 c 128,-1,54
 538 405 538 405 510.5 418.5 c 128,-1,55
 483 432 483 432 446 430 c 0,56,57
 411 429 411 429 379.5 417 c 128,-1,58
 348 405 348 405 321.5 385 c 128,-1,59
 295 365 295 365 275.5 340 c 128,-1,60
 256 315 256 315 247 287 c 0,61,62
 220 199 220 199 250 144.5 c 128,-1,63
 280 90 280 90 364 85 c 0,48,49
EndSplineSet
EndChar
StartChar: Lslash
Encoding: 321 321 193
Width: 701
VWidth: 1473
Flags: W
HStem: -1 109<235.159 652.918> 697 20G<290 319>
Fore
669 91 m 0,0,1
 681 78 681 78 675 55 c 0,2,3
 672 34 672 34 653.5 16.5 c 128,-1,4
 635 -1 635 -1 600 -1 c 2,5,-1
 233 -1 l 2,6,7
 194 -1 194 -1 170 10 c 128,-1,8
 146 21 146 21 134 40.5 c 128,-1,9
 122 60 122 60 120 86 c 128,-1,10
 118 112 118 112 124 141 c 0,11,12
 131 172 131 172 137 204.5 c 128,-1,13
 143 237 143 237 149 264 c 0,14,15
 155 295 155 295 162 323 c 1,16,-1
 60 265 l 1,17,-1
 77 342 l 1,18,-1
 178 399 l 1,19,20
 187 438 187 438 196 479 c 0,21,22
 203 514 203 514 212 559 c 128,-1,23
 221 604 221 604 231 651 c 0,24,25
 239 679 239 679 257 698 c 128,-1,26
 275 717 275 717 305 717 c 0,27,28
 333 717 333 717 341 697.5 c 128,-1,29
 349 678 349 678 342 651 c 0,30,31
 336 626 336 626 330 597 c 0,32,33
 324 572 324 572 317.5 538.5 c 128,-1,34
 311 505 311 505 303 467 c 1,35,-1
 398 517 l 1,36,-1
 382 440 l 1,37,-1
 287 390 l 1,38,39
 278 352 278 352 270 311 c 0,40,41
 262 275 262 275 252.5 230.5 c 128,-1,42
 243 186 243 186 233 138 c 0,43,44
 230 125 230 125 235 116.5 c 128,-1,45
 240 108 240 108 256 108 c 2,46,-1
 623 108 l 2,47,48
 656 108 656 108 669 91 c 0,0,1
EndSplineSet
EndChar
StartChar: lslash
Encoding: 322 322 194
Width: 296
VWidth: 1473
Flags: W
HStem: -1 21G<126.5 152.5> 818 20G<305 336>
VStem: 65 336<255 569 255 300.297>
Fore
401 569 m 1,0,-1
 385 495 l 1,1,-1
 289 426 l 1,2,-1
 212 65 l 2,3,4
 205 28 205 28 183.5 13.5 c 128,-1,5
 162 -1 162 -1 143 -1 c 0,6,7
 110 -1 110 -1 103 17 c 128,-1,8
 96 35 96 35 103 65 c 2,9,-1
 159 329 l 1,10,-1
 65 255 l 1,11,-1
 81 331 l 1,12,-1
 175 404 l 1,13,-1
 253 772 l 2,14,15
 261 801 261 801 275 819.5 c 128,-1,16
 289 838 289 838 321 838 c 0,17,18
 351 838 351 838 360.5 820.5 c 128,-1,19
 370 803 370 803 362 772 c 2,20,-1
 305 501 l 1,21,-1
 401 569 l 1,0,-1
EndSplineSet
EndChar
